<svg xmlns="http://www.w3.org/2000/svg" xmlns:xlink="http://www.w3.org/1999/xlink" width="1080" zoomAndPan="magnify" viewBox="0 0 810 1012.49997" height="1350" preserveAspectRatio="xMidYMid meet" version="1.0"><defs><clipPath id="8cd3c982f7"><path d="M 81.160156 133.769531 L 728.839844 133.769531 L 728.839844 878.152344 L 81.160156 878.152344 Z M 81.160156 133.769531 " clip-rule="nonzero"/></clipPath></defs><g clip-path="url(#8cd3c982f7)"><path fill="#4e69ff" d="M 351.742188 561.234375 L 361.683594 561.234375 L 361.683594 551.292969 L 351.742188 551.292969 Z M 351.789062 573.429688 L 361.636719 573.429688 L 361.636719 563.585938 L 351.789062 563.585938 Z M 351.695312 549.035156 L 361.730469 549.035156 L 361.730469 538.996094 L 351.695312 538.996094 Z M 351.839844 585.628906 L 361.589844 585.628906 L 361.589844 575.878906 L 351.839844 575.878906 Z M 351.933594 610.023438 L 361.492188 610.023438 L 361.492188 600.464844 L 351.933594 600.464844 Z M 351.886719 597.824219 L 361.539062 597.824219 L 361.539062 588.171875 L 351.886719 588.171875 Z M 351.648438 536.835938 L 361.78125 536.835938 L 361.78125 526.703125 L 351.648438 526.703125 Z M 351.429688 475.824219 L 361.996094 475.824219 L 361.996094 465.261719 L 351.429688 465.261719 Z M 351.476562 488.023438 L 361.949219 488.023438 L 361.949219 477.554688 L 351.476562 477.554688 Z M 351.957031 622.246094 L 361.46875 622.246094 L 361.46875 612.734375 L 351.957031 612.734375 Z M 351.621094 524.617188 L 361.804688 524.617188 L 361.804688 514.433594 L 351.621094 514.433594 Z M 351.574219 512.417969 L 361.851562 512.417969 L 361.851562 502.140625 L 351.574219 502.140625 Z M 351.527344 500.21875 L 361.902344 500.21875 L 361.902344 489.847656 L 351.527344 489.847656 Z M 338.800781 378.242188 L 350.132812 378.242188 L 350.132812 366.910156 L 338.800781 366.910156 Z M 338.894531 402.640625 L 350.039062 402.640625 L 350.039062 391.496094 L 338.894531 391.496094 Z M 338.75 366.046875 L 350.183594 366.046875 L 350.183594 354.617188 L 338.75 354.617188 Z M 338.917969 414.859375 L 350.015625 414.859375 L 350.015625 403.765625 L 338.917969 403.765625 Z M 338.726562 353.824219 L 350.207031 353.824219 L 350.207031 342.347656 L 338.726562 342.347656 Z M 338.992188 427.035156 L 349.941406 427.035156 L 349.941406 416.085938 L 338.992188 416.085938 Z M 352.152344 671.035156 L 361.277344 671.035156 L 361.277344 661.910156 L 352.152344 661.910156 Z M 352.007812 634.441406 L 361.421875 634.441406 L 361.421875 625.03125 L 352.007812 625.03125 Z M 352.367188 719.800781 L 361.058594 719.800781 L 361.058594 711.109375 L 352.367188 711.109375 Z M 352.078125 646.617188 L 361.347656 646.617188 L 361.347656 637.347656 L 352.078125 637.347656 Z M 352.101562 658.835938 L 361.324219 658.835938 L 361.324219 649.617188 L 352.101562 649.617188 Z M 352.296875 707.628906 L 361.132812 707.628906 L 361.132812 698.792969 L 352.296875 698.792969 Z M 352.222656 683.207031 L 361.203125 683.207031 L 361.203125 674.230469 L 352.222656 674.230469 Z M 364.351562 646.59375 L 373.570312 646.59375 L 373.570312 637.371094 L 364.351562 637.371094 Z M 364.636719 719.777344 L 373.28125 719.777344 L 373.28125 711.132812 L 364.636719 711.132812 Z M 350.832031 304.984375 L 362.597656 304.984375 L 362.597656 293.21875 L 350.832031 293.21875 Z M 364.445312 670.988281 L 373.476562 670.988281 L 373.476562 661.957031 L 364.445312 661.957031 Z M 364.855469 768.542969 L 373.066406 768.542969 L 373.066406 760.332031 L 364.855469 760.332031 Z M 339.0625 451.453125 L 349.871094 451.453125 L 349.871094 440.648438 L 339.0625 440.648438 Z M 351.382812 463.628906 L 362.042969 463.628906 L 362.042969 452.964844 L 351.382812 452.964844 Z M 364.542969 695.382812 L 373.378906 695.382812 L 373.378906 686.546875 L 364.542969 686.546875 Z M 363.726562 475.777344 L 374.195312 475.777344 L 374.195312 465.308594 L 363.726562 465.308594 Z M 364.253906 622.195312 L 373.667969 622.195312 L 373.667969 612.785156 L 364.253906 612.785156 Z M 363.796875 500.195312 L 374.125 500.195312 L 374.125 489.871094 L 363.796875 489.871094 Z M 363.964844 549.011719 L 373.957031 549.011719 L 373.957031 539.023438 L 363.964844 539.023438 Z M 364.15625 597.800781 L 373.761719 597.800781 L 373.761719 588.195312 L 364.15625 588.195312 Z M 364.085938 573.382812 L 373.835938 573.382812 L 373.835938 563.632812 L 364.085938 563.632812 Z M 364.734375 744.171875 L 373.1875 744.171875 L 373.1875 735.722656 L 364.734375 735.722656 Z M 351.238281 427.035156 L 362.1875 427.035156 L 362.1875 416.085938 L 351.238281 416.085938 Z M 351.214844 414.8125 L 362.210938 414.8125 L 362.210938 403.816406 L 351.214844 403.816406 Z M 351.140625 390.394531 L 362.285156 390.394531 L 362.285156 379.253906 L 351.140625 379.253906 Z M 351.167969 402.613281 L 362.261719 402.613281 L 362.261719 391.523438 L 351.167969 391.523438 Z M 351.308594 439.207031 L 362.117188 439.207031 L 362.117188 428.402344 L 351.308594 428.402344 Z M 351.335938 451.429688 L 362.09375 451.429688 L 362.09375 440.671875 L 351.335938 440.671875 Z M 351.046875 365.996094 L 362.378906 365.996094 L 362.378906 354.664062 L 351.046875 354.664062 Z M 350.925781 329.378906 L 362.5 329.378906 L 362.5 317.808594 L 350.925781 317.808594 Z M 351.09375 378.195312 L 362.332031 378.195312 L 362.332031 366.957031 L 351.09375 366.957031 Z M 350.949219 341.601562 L 362.476562 341.601562 L 362.476562 330.078125 L 350.949219 330.078125 Z M 351 353.800781 L 362.429688 353.800781 L 362.429688 342.371094 L 351 342.371094 Z M 350.878906 317.183594 L 362.546875 317.183594 L 362.546875 305.515625 L 350.878906 305.515625 Z M 363.894531 524.589844 L 374.027344 524.589844 L 374.027344 514.457031 L 363.894531 514.457031 Z M 314.328125 402.710938 L 325.617188 402.710938 L 325.617188 391.425781 L 314.328125 391.425781 Z M 314.496094 451.527344 L 325.449219 451.527344 L 325.449219 440.578125 L 314.496094 440.578125 Z M 314.425781 427.105469 L 325.519531 427.105469 L 325.519531 416.011719 L 314.425781 416.011719 Z M 314.449219 439.328125 L 325.496094 439.328125 L 325.496094 428.28125 L 314.449219 428.28125 Z M 314.59375 475.921875 L 325.351562 475.921875 L 325.351562 465.164062 L 314.59375 465.164062 Z M 314.617188 488.140625 L 325.328125 488.140625 L 325.328125 477.433594 L 314.617188 477.433594 Z M 327.175781 561.304688 L 337.261719 561.304688 L 337.261719 551.21875 L 327.175781 551.21875 Z M 327.273438 585.699219 L 337.167969 585.699219 L 337.167969 575.808594 L 327.273438 575.808594 Z M 314.691406 500.316406 L 325.257812 500.316406 L 325.257812 489.75 L 314.691406 489.75 Z M 327.320312 597.898438 L 337.117188 597.898438 L 337.117188 588.101562 L 327.320312 588.101562 Z M 327.394531 622.316406 L 337.046875 622.316406 L 337.046875 612.664062 L 327.394531 612.664062 Z M 327.34375 610.117188 L 337.09375 610.117188 L 337.09375 600.371094 L 327.34375 600.371094 Z M 314.28125 390.511719 L 325.664062 390.511719 L 325.664062 379.132812 L 314.28125 379.132812 Z M 327.226562 573.503906 L 337.214844 573.503906 L 337.214844 563.511719 L 327.226562 563.511719 Z M 302.035156 402.757812 L 313.417969 402.757812 L 313.417969 391.378906 L 302.035156 391.378906 Z M 302.105469 414.933594 L 313.34375 414.933594 L 313.34375 403.695312 L 302.105469 403.695312 Z M 302.179688 439.351562 L 313.273438 439.351562 L 313.273438 428.257812 L 302.179688 428.257812 Z M 314.761719 524.734375 L 325.183594 524.734375 L 325.183594 514.316406 L 314.761719 514.316406 Z M 302.25 463.769531 L 313.199219 463.769531 L 313.199219 452.820312 L 302.25 452.820312 Z M 302.203125 451.574219 L 313.25 451.574219 L 313.25 440.527344 L 302.203125 440.527344 Z M 302.132812 427.152344 L 313.320312 427.152344 L 313.320312 415.964844 L 302.132812 415.964844 Z M 314.859375 549.128906 L 325.089844 549.128906 L 325.089844 538.902344 L 314.859375 538.902344 Z M 314.929688 573.550781 L 325.015625 573.550781 L 325.015625 563.464844 L 314.929688 563.464844 Z M 302.011719 390.539062 L 313.441406 390.539062 L 313.441406 379.109375 L 302.011719 379.109375 Z M 315.027344 597.945312 L 324.917969 597.945312 L 324.917969 588.054688 L 315.027344 588.054688 Z M 315.121094 622.339844 L 324.824219 622.339844 L 324.824219 612.640625 L 315.121094 612.640625 Z M 326.648438 414.882812 L 337.789062 414.882812 L 337.789062 403.742188 L 326.648438 403.742188 Z M 339.59375 597.875 L 349.339844 597.875 L 349.339844 588.125 L 339.59375 588.125 Z M 339.472656 561.257812 L 349.460938 561.257812 L 349.460938 551.265625 L 339.472656 551.265625 Z M 339.640625 610.070312 L 349.292969 610.070312 L 349.292969 600.417969 L 339.640625 600.417969 Z M 339.496094 573.476562 L 349.4375 573.476562 L 349.4375 563.539062 L 339.496094 563.539062 Z M 339.6875 622.269531 L 349.246094 622.269531 L 349.246094 612.710938 L 339.6875 612.710938 Z M 339.785156 646.664062 L 349.148438 646.664062 L 349.148438 637.300781 L 339.785156 637.300781 Z M 339.855469 671.082031 L 349.078125 671.082031 L 349.078125 661.863281 L 339.855469 661.863281 Z M 339.160156 475.847656 L 349.773438 475.847656 L 349.773438 465.234375 L 339.160156 465.234375 Z M 339.425781 549.058594 L 349.507812 549.058594 L 349.507812 538.972656 L 339.425781 538.972656 Z M 339.230469 500.269531 L 349.703125 500.269531 L 349.703125 489.800781 L 339.230469 489.800781 Z M 339.328125 524.664062 L 349.605469 524.664062 L 349.605469 514.386719 L 339.328125 514.386719 Z M 339.28125 512.464844 L 349.652344 512.464844 L 349.652344 502.09375 L 339.28125 502.09375 Z M 326.746094 439.28125 L 337.695312 439.28125 L 337.695312 428.332031 L 326.746094 428.332031 Z M 326.9375 500.316406 L 337.503906 500.316406 L 337.503906 489.75 L 326.9375 489.75 Z M 326.914062 488.09375 L 337.527344 488.09375 L 337.527344 477.480469 L 326.914062 477.480469 Z M 326.863281 475.898438 L 337.574219 475.898438 L 337.574219 465.1875 L 326.863281 465.1875 Z M 327.007812 512.488281 L 337.429688 512.488281 L 337.429688 502.070312 L 327.007812 502.070312 Z M 327.03125 524.710938 L 337.40625 524.710938 L 337.40625 514.339844 L 327.03125 514.339844 Z M 327.082031 536.910156 L 337.359375 536.910156 L 337.359375 526.632812 L 327.082031 526.632812 Z M 339.085938 463.675781 L 349.84375 463.675781 L 349.84375 452.917969 L 339.085938 452.917969 Z M 326.695312 427.082031 L 337.742188 427.082031 L 337.742188 416.035156 L 326.695312 416.035156 Z M 326.601562 402.6875 L 337.839844 402.6875 L 337.839844 391.449219 L 326.601562 391.449219 Z M 327.128906 549.105469 L 337.3125 549.105469 L 337.3125 538.925781 L 327.128906 538.925781 Z M 326.839844 463.675781 L 337.597656 463.675781 L 337.597656 452.917969 L 326.839844 452.917969 Z M 326.769531 451.5 L 337.671875 451.5 L 337.671875 440.601562 L 326.769531 440.601562 Z M 363.460938 402.566406 L 374.460938 402.566406 L 374.460938 391.570312 L 363.460938 391.570312 Z M 389.226562 719.683594 L 397.679688 719.683594 L 397.679688 711.230469 L 389.226562 711.230469 Z M 389.132812 695.285156 L 397.777344 695.285156 L 397.777344 686.640625 L 389.132812 686.640625 Z M 388.914062 646.519531 L 397.992188 646.519531 L 397.992188 637.445312 L 388.914062 637.445312 Z M 389.539062 792.84375 L 397.367188 792.84375 L 397.367188 785.015625 L 389.539062 785.015625 Z M 389.417969 768.472656 L 397.488281 768.472656 L 397.488281 760.40625 L 389.417969 760.40625 Z M 389.324219 744.078125 L 397.585938 744.078125 L 397.585938 735.816406 L 389.324219 735.816406 Z M 389.011719 670.914062 L 397.894531 670.914062 L 397.894531 662.03125 L 389.011719 662.03125 Z M 388.554688 548.914062 L 398.351562 548.914062 L 398.351562 539.117188 L 388.554688 539.117188 Z M 388.578125 561.136719 L 398.328125 561.136719 L 398.328125 551.386719 L 388.578125 551.386719 Z M 388.460938 524.519531 L 398.449219 524.519531 L 398.449219 514.53125 L 388.460938 514.53125 Z M 388.84375 622.101562 L 398.066406 622.101562 L 398.066406 612.878906 L 388.84375 612.878906 Z M 388.722656 597.730469 L 398.183594 597.730469 L 398.183594 588.269531 L 388.722656 588.269531 Z M 388.410156 512.320312 L 398.496094 512.320312 L 398.496094 502.238281 L 388.410156 502.238281 Z M 388.652344 573.308594 L 398.257812 573.308594 L 398.257812 563.707031 L 388.652344 563.707031 Z M 363.628906 451.382812 L 374.292969 451.382812 L 374.292969 440.71875 L 363.628906 440.71875 Z M 389.660156 817.214844 L 397.246094 817.214844 L 397.246094 809.628906 L 389.660156 809.628906 Z M 375.277344 268.296875 L 387.136719 268.296875 L 387.136719 256.433594 L 375.277344 256.433594 Z M 375.226562 256.097656 L 387.1875 256.097656 L 387.1875 244.140625 L 375.226562 244.140625 Z M 375.445312 317.109375 L 386.96875 317.109375 L 386.96875 305.585938 L 375.445312 305.585938 Z M 375.394531 304.914062 L 387.019531 304.914062 L 387.019531 293.292969 L 375.394531 293.292969 Z M 375.347656 292.714844 L 387.066406 292.714844 L 387.066406 281 L 375.347656 281 Z M 375.203125 243.878906 L 387.210938 243.878906 L 387.210938 231.871094 L 375.203125 231.871094 Z M 389.753906 841.609375 L 397.152344 841.609375 L 397.152344 834.214844 L 389.753906 834.214844 Z M 389.875 865.980469 L 397.03125 865.980469 L 397.03125 858.824219 L 389.875 858.824219 Z M 375.15625 231.679688 L 387.257812 231.679688 L 387.257812 219.578125 L 375.15625 219.578125 Z M 375.109375 219.480469 L 387.304688 219.480469 L 387.304688 207.285156 L 375.109375 207.285156 Z M 375.492188 329.308594 L 386.921875 329.308594 L 386.921875 317.878906 L 375.492188 317.878906 Z M 387.546875 268.273438 L 399.359375 268.273438 L 399.359375 256.460938 L 387.546875 256.460938 Z M 387.523438 256.050781 L 399.386719 256.050781 L 399.386719 244.191406 L 387.523438 244.191406 Z M 387.476562 243.851562 L 399.433594 243.851562 L 399.433594 231.894531 L 387.476562 231.894531 Z M 387.59375 280.46875 L 399.3125 280.46875 L 399.3125 268.753906 L 387.59375 268.753906 Z M 387.425781 231.65625 L 399.480469 231.65625 L 399.480469 219.601562 L 387.425781 219.601562 Z M 387.644531 292.667969 L 399.265625 292.667969 L 399.265625 281.046875 L 387.644531 281.046875 Z M 402.21875 878.132812 L 409.183594 878.132812 L 409.183594 871.167969 L 402.21875 871.167969 Z M 387.378906 219.457031 L 399.53125 219.457031 L 399.53125 207.308594 L 387.378906 207.308594 Z M 402.097656 853.761719 L 409.304688 853.761719 L 409.304688 846.554688 L 402.097656 846.554688 Z M 402.171875 865.933594 L 409.230469 865.933594 L 409.230469 858.875 L 402.171875 858.875 Z M 387.667969 304.890625 L 399.242188 304.890625 L 399.242188 293.316406 L 387.667969 293.316406 Z M 387.355469 207.238281 L 399.554688 207.238281 L 399.554688 195.039062 L 387.355469 195.039062 Z M 387.980469 390.296875 L 398.929688 390.296875 L 398.929688 379.347656 L 387.980469 379.347656 Z M 388.195312 451.308594 L 398.710938 451.308594 L 398.710938 440.792969 L 388.195312 440.792969 Z M 388.363281 500.125 L 398.542969 500.125 L 398.542969 489.941406 L 388.363281 489.941406 Z M 388.027344 402.496094 L 398.882812 402.496094 L 398.882812 391.640625 L 388.027344 391.640625 Z M 388.097656 426.914062 L 398.808594 426.914062 L 398.808594 416.203125 L 388.097656 416.203125 Z M 387.714844 317.085938 L 399.191406 317.085938 L 399.191406 305.609375 L 387.714844 305.609375 Z M 388.265625 475.730469 L 398.640625 475.730469 L 398.640625 465.355469 L 388.265625 465.355469 Z M 388.242188 463.507812 L 398.664062 463.507812 L 398.664062 453.085938 L 388.242188 453.085938 Z M 387.761719 329.285156 L 399.144531 329.285156 L 399.144531 317.902344 L 387.761719 317.902344 Z M 387.8125 341.484375 L 399.097656 341.484375 L 399.097656 330.199219 L 387.8125 330.199219 Z M 387.90625 365.878906 L 399 365.878906 L 399 354.785156 L 387.90625 354.785156 Z M 387.929688 378.097656 L 398.976562 378.097656 L 398.976562 367.054688 L 387.929688 367.054688 Z M 387.835938 353.703125 L 399.074219 353.703125 L 399.074219 342.46875 L 387.835938 342.46875 Z M 375.324219 280.496094 L 387.089844 280.496094 L 387.089844 268.730469 L 375.324219 268.730469 Z M 377.148438 768.496094 L 385.265625 768.496094 L 385.265625 760.378906 L 377.148438 760.378906 Z M 377.195312 780.695312 L 385.21875 780.695312 L 385.21875 772.675781 L 377.195312 772.675781 Z M 377.078125 756.324219 L 385.335938 756.324219 L 385.335938 748.0625 L 377.078125 748.0625 Z M 377.027344 744.125 L 385.386719 744.125 L 385.386719 735.769531 L 377.027344 735.769531 Z M 362.957031 256.125 L 374.964844 256.125 L 374.964844 244.117188 L 362.957031 244.117188 Z M 377.292969 805.089844 L 385.121094 805.089844 L 385.121094 797.261719 L 377.292969 797.261719 Z M 377.246094 792.890625 L 385.167969 792.890625 L 385.167969 784.96875 L 377.246094 784.96875 Z M 376.765625 683.160156 L 385.648438 683.160156 L 385.648438 674.277344 L 376.765625 674.277344 Z M 376.742188 670.9375 L 385.671875 670.9375 L 385.671875 662.007812 L 376.742188 662.007812 Z M 376.835938 695.335938 L 385.578125 695.335938 L 385.578125 686.59375 L 376.835938 686.59375 Z M 376.933594 719.730469 L 385.480469 719.730469 L 385.480469 711.183594 L 376.933594 711.183594 Z M 376.980469 731.925781 L 385.433594 731.925781 L 385.433594 723.476562 L 376.980469 723.476562 Z M 376.882812 707.53125 L 385.53125 707.53125 L 385.53125 698.886719 L 376.882812 698.886719 Z M 363.101562 304.960938 L 374.820312 304.960938 L 374.820312 293.242188 L 363.101562 293.242188 Z M 362.980469 268.34375 L 374.941406 268.34375 L 374.941406 256.386719 L 362.980469 256.386719 Z M 363.363281 378.171875 L 374.554688 378.171875 L 374.554688 366.984375 L 363.363281 366.984375 Z M 302.300781 475.96875 L 313.152344 475.96875 L 313.152344 465.117188 L 302.300781 465.117188 Z M 363.292969 353.753906 L 374.628906 353.753906 L 374.628906 342.417969 L 363.292969 342.417969 Z M 363.535156 426.984375 L 374.386719 426.984375 L 374.386719 416.132812 L 363.535156 416.132812 Z M 363.582031 439.183594 L 374.339844 439.183594 L 374.339844 428.425781 L 363.582031 428.425781 Z M 363.414062 390.367188 L 374.507812 390.367188 L 374.507812 379.277344 L 363.414062 379.277344 Z M 363.078125 292.738281 L 374.84375 292.738281 L 374.84375 280.972656 L 363.078125 280.972656 Z M 363.027344 280.542969 L 374.890625 280.542969 L 374.890625 268.679688 L 363.027344 268.679688 Z M 363.195312 329.355469 L 374.722656 329.355469 L 374.722656 317.832031 L 363.195312 317.832031 Z M 363.246094 341.554688 L 374.675781 341.554688 L 374.675781 330.125 L 363.246094 330.125 Z M 376.691406 658.742188 L 385.722656 658.742188 L 385.722656 649.714844 L 376.691406 649.714844 Z M 376.210938 536.765625 L 386.203125 536.765625 L 386.203125 526.777344 L 376.210938 526.777344 Z M 375.925781 451.332031 L 386.488281 451.332031 L 386.488281 440.769531 L 375.925781 440.769531 Z M 375.875 439.136719 L 386.539062 439.136719 L 386.539062 428.476562 L 375.875 428.476562 Z M 375.78125 414.742188 L 386.632812 414.742188 L 386.632812 403.886719 L 375.78125 403.886719 Z M 375.828125 426.9375 L 386.585938 426.9375 L 386.585938 416.179688 L 375.828125 416.179688 Z M 375.949219 463.554688 L 386.464844 463.554688 L 386.464844 453.039062 L 375.949219 453.039062 Z M 375.996094 475.753906 L 386.417969 475.753906 L 386.417969 465.332031 L 375.996094 465.332031 Z M 375.660156 378.125 L 386.753906 378.125 L 386.753906 367.03125 L 375.660156 367.03125 Z M 375.613281 365.925781 L 386.800781 365.925781 L 386.800781 354.738281 L 375.613281 354.738281 Z M 375.5625 353.726562 L 386.851562 353.726562 L 386.851562 342.441406 L 375.5625 342.441406 Z M 376.042969 487.949219 L 386.371094 487.949219 L 386.371094 477.625 L 376.042969 477.625 Z M 375.683594 390.34375 L 386.730469 390.34375 L 386.730469 379.300781 L 375.683594 379.300781 Z M 375.730469 402.542969 L 386.683594 402.542969 L 386.683594 391.59375 L 375.730469 391.59375 Z M 376.644531 646.542969 L 385.769531 646.542969 L 385.769531 637.417969 L 376.644531 637.417969 Z M 376.453125 597.753906 L 385.960938 597.753906 L 385.960938 588.246094 L 376.453125 588.246094 Z M 402.003906 829.363281 L 409.398438 829.363281 L 409.398438 821.96875 L 402.003906 821.96875 Z M 376.40625 585.554688 L 386.007812 585.554688 L 386.007812 575.953125 L 376.40625 575.953125 Z M 376.5 609.949219 L 385.914062 609.949219 L 385.914062 600.539062 L 376.5 600.539062 Z M 376.597656 634.347656 L 385.816406 634.347656 L 385.816406 625.125 L 376.597656 625.125 Z M 376.546875 622.148438 L 385.867188 622.148438 L 385.867188 612.832031 L 376.546875 612.832031 Z M 376.261719 548.960938 L 386.152344 548.960938 L 386.152344 539.070312 L 376.261719 539.070312 Z M 376.1875 524.542969 L 386.226562 524.542969 L 386.226562 514.507812 L 376.1875 514.507812 Z M 376.308594 561.160156 L 386.105469 561.160156 L 386.105469 551.363281 L 376.308594 551.363281 Z M 376.117188 512.371094 L 386.296875 512.371094 L 386.296875 502.1875 L 376.117188 502.1875 Z M 376.09375 500.148438 L 386.320312 500.148438 L 386.320312 489.917969 L 376.09375 489.917969 Z M 375.515625 341.53125 L 386.898438 341.53125 L 386.898438 330.148438 L 375.515625 330.148438 Z M 376.355469 573.359375 L 386.058594 573.359375 L 386.058594 563.65625 L 376.355469 563.65625 Z M 203.890625 427.417969 L 215.609375 427.417969 L 215.609375 415.699219 L 203.890625 415.699219 Z M 203.917969 439.640625 L 215.585938 439.640625 L 215.585938 427.96875 L 203.917969 427.96875 Z M 203.820312 415.246094 L 215.683594 415.246094 L 215.683594 403.382812 L 203.820312 403.382812 Z M 204.371094 573.886719 L 215.128906 573.886719 L 215.128906 563.128906 L 204.371094 563.128906 Z M 203.964844 451.835938 L 215.539062 451.835938 L 215.539062 440.265625 L 203.964844 440.265625 Z M 204.445312 586.058594 L 215.058594 586.058594 L 215.058594 575.445312 L 204.445312 575.445312 Z M 203.796875 403.023438 L 215.707031 403.023438 L 215.707031 391.113281 L 203.796875 391.113281 Z M 216.929688 647.046875 L 227.066406 647.046875 L 227.066406 636.914062 L 216.929688 636.914062 Z M 203.75 390.824219 L 215.753906 390.824219 L 215.753906 378.820312 L 203.75 378.820312 Z M 216.761719 598.234375 L 227.234375 598.234375 L 227.234375 587.765625 L 216.761719 587.765625 Z M 216.835938 622.652344 L 227.160156 622.652344 L 227.160156 612.328125 L 216.835938 612.328125 Z M 203.722656 378.605469 L 215.777344 378.605469 L 215.777344 366.550781 L 203.722656 366.550781 Z M 203.675781 366.40625 L 215.828125 366.40625 L 215.828125 354.257812 L 203.675781 354.257812 Z M 204.613281 634.875 L 214.890625 634.875 L 214.890625 624.597656 L 204.613281 624.597656 Z M 191.476562 390.847656 L 203.53125 390.847656 L 203.53125 378.796875 L 191.476562 378.796875 Z M 191.5 403.070312 L 203.507812 403.070312 L 203.507812 391.066406 L 191.5 391.066406 Z M 191.429688 378.652344 L 203.578125 378.652344 L 203.578125 366.503906 L 191.429688 366.503906 Z M 191.574219 415.246094 L 203.4375 415.246094 L 203.4375 403.382812 L 191.574219 403.382812 Z M 191.644531 439.664062 L 203.363281 439.664062 L 203.363281 427.945312 L 191.644531 427.945312 Z M 191.597656 427.464844 L 203.410156 427.464844 L 203.410156 415.652344 L 191.597656 415.652344 Z M 204.515625 610.480469 L 214.988281 610.480469 L 214.988281 600.011719 L 204.515625 600.011719 Z M 204.566406 622.675781 L 214.9375 622.675781 L 214.9375 612.304688 L 204.566406 612.304688 Z M 204.46875 598.28125 L 215.035156 598.28125 L 215.035156 587.714844 L 204.46875 587.714844 Z M 204.683594 659.292969 L 214.816406 659.292969 L 214.816406 649.160156 L 204.683594 649.160156 Z M 204.660156 647.070312 L 214.84375 647.070312 L 214.84375 636.890625 L 204.660156 636.890625 Z M 216.714844 586.035156 L 227.28125 586.035156 L 227.28125 575.472656 L 216.714844 575.472656 Z M 179.132812 341.960938 L 166.886719 341.960938 L 166.886719 329.71875 L 117.902344 329.71875 L 117.902344 317.472656 L 81.160156 317.472656 L 81.160156 341.960938 L 93.40625 341.960938 L 93.40625 354.207031 L 105.652344 354.207031 L 105.652344 366.453125 L 130.148438 366.453125 L 130.148438 378.699219 L 142.394531 378.699219 L 142.394531 390.945312 L 166.886719 390.945312 L 166.886719 378.699219 L 179.132812 378.699219 L 179.132812 366.453125 L 203.628906 366.453125 L 203.628906 341.960938 Z M 228.914062 561.59375 L 239.578125 561.59375 L 239.578125 550.929688 L 228.914062 550.929688 Z M 228.867188 549.394531 L 239.625 549.394531 L 239.625 538.636719 L 228.867188 538.636719 Z M 228.554688 463.988281 L 239.9375 463.988281 L 239.9375 452.605469 L 228.554688 452.605469 Z M 229.058594 598.183594 L 239.433594 598.183594 L 239.433594 587.8125 L 229.058594 587.8125 Z M 228.960938 573.789062 L 239.527344 573.789062 L 239.527344 563.226562 L 228.960938 563.226562 Z M 228.984375 586.011719 L 239.503906 586.011719 L 239.503906 575.496094 L 228.984375 575.496094 Z M 228.625 476.160156 L 239.863281 476.160156 L 239.863281 464.921875 L 228.625 464.921875 Z M 302.347656 488.167969 L 313.105469 488.167969 L 313.105469 477.410156 L 302.347656 477.410156 Z M 228.3125 390.753906 L 240.175781 390.753906 L 240.175781 378.890625 L 228.3125 378.890625 Z M 228.386719 415.171875 L 240.105469 415.171875 L 240.105469 403.457031 L 228.386719 403.457031 Z M 228.363281 402.949219 L 240.128906 402.949219 L 240.128906 391.1875 L 228.363281 391.1875 Z M 228.457031 427.347656 L 240.03125 427.347656 L 240.03125 415.773438 L 228.457031 415.773438 Z M 228.480469 439.566406 L 240.007812 439.566406 L 240.007812 428.042969 L 228.480469 428.042969 Z M 229.128906 622.605469 L 239.359375 622.605469 L 239.359375 612.375 L 229.128906 612.375 Z M 216.042969 390.777344 L 227.953125 390.777344 L 227.953125 378.867188 L 216.042969 378.867188 Z M 216.164062 427.394531 L 227.832031 427.394531 L 227.832031 415.726562 L 216.164062 415.726562 Z M 229.082031 610.40625 L 239.40625 610.40625 L 239.40625 600.082031 L 229.082031 600.082031 Z M 216.113281 415.195312 L 227.882812 415.195312 L 227.882812 403.429688 L 216.113281 403.429688 Z M 216.210938 439.59375 L 227.785156 439.59375 L 227.785156 428.019531 L 216.210938 428.019531 Z M 216.234375 451.8125 L 227.761719 451.8125 L 227.761719 440.289062 L 216.234375 440.289062 Z M 216.066406 403 L 227.929688 403 L 227.929688 391.136719 L 216.066406 391.136719 Z M 229.179688 634.800781 L 239.3125 634.800781 L 239.3125 624.667969 L 229.179688 624.667969 Z M 216.667969 573.839844 L 227.328125 573.839844 L 227.328125 563.175781 L 216.667969 563.175781 Z M 215.945312 366.382812 L 228.050781 366.382812 L 228.050781 354.28125 L 215.945312 354.28125 Z M 229.226562 647 L 239.265625 647 L 239.265625 636.964844 L 229.226562 636.964844 Z M 215.996094 378.578125 L 228 378.578125 L 228 366.574219 L 215.996094 366.574219 Z M 167.753906 634.996094 L 178.269531 634.996094 L 178.269531 624.476562 L 167.753906 624.476562 Z M 143.332031 671.660156 L 153.703125 671.660156 L 153.703125 661.285156 L 143.332031 661.285156 Z M 143.28125 659.460938 L 153.753906 659.460938 L 153.753906 648.992188 L 143.28125 648.992188 Z M 143.234375 647.265625 L 153.800781 647.265625 L 153.800781 636.699219 L 143.234375 636.699219 Z M 143.136719 622.867188 L 153.894531 622.867188 L 153.894531 612.113281 L 143.136719 612.113281 Z M 130.890625 635.113281 L 141.648438 635.113281 L 141.648438 624.359375 L 130.890625 624.359375 Z M 130.988281 659.511719 L 141.554688 659.511719 L 141.554688 648.945312 L 130.988281 648.945312 Z M 130.964844 647.289062 L 141.578125 647.289062 L 141.578125 636.675781 L 130.964844 636.675781 Z M 155.433594 622.820312 L 166.09375 622.820312 L 166.09375 612.160156 L 155.433594 612.160156 Z M 155.386719 610.625 L 166.144531 610.625 L 166.144531 599.867188 L 155.386719 599.867188 Z M 155.480469 635.019531 L 166.046875 635.019531 L 166.046875 624.453125 L 155.480469 624.453125 Z M 155.578125 659.414062 L 165.953125 659.414062 L 165.953125 649.039062 L 155.578125 649.039062 Z M 155.503906 647.238281 L 166.023438 647.238281 L 166.023438 636.722656 L 155.503906 636.722656 Z M 155.601562 671.636719 L 165.925781 671.636719 L 165.925781 661.308594 L 155.601562 661.308594 Z M 81.953125 684.050781 L 92.613281 684.050781 L 92.613281 673.386719 L 81.953125 673.386719 Z M 94.199219 671.804688 L 104.859375 671.804688 L 104.859375 661.140625 L 94.199219 661.140625 Z M 131.035156 671.707031 L 141.503906 671.707031 L 141.503906 661.238281 L 131.035156 661.238281 Z M 94.269531 696.222656 L 104.789062 696.222656 L 104.789062 685.707031 L 94.269531 685.707031 Z M 82 696.246094 L 92.566406 696.246094 L 92.566406 685.683594 L 82 685.683594 Z M 106.46875 671.78125 L 117.082031 671.78125 L 117.082031 661.167969 L 106.46875 661.167969 Z M 154.6875 403.144531 L 166.839844 403.144531 L 166.839844 390.992188 L 154.6875 390.992188 Z M 106.519531 683.976562 L 117.035156 683.976562 L 117.035156 673.460938 L 106.519531 673.460938 Z M 131.082031 683.90625 L 141.457031 683.90625 L 141.457031 673.53125 L 131.082031 673.53125 Z M 118.667969 647.335938 L 129.378906 647.335938 L 129.378906 636.628906 L 118.667969 636.628906 Z M 118.742188 671.753906 L 129.308594 671.753906 L 129.308594 661.191406 L 118.742188 661.191406 Z M 106.421875 659.582031 L 117.132812 659.582031 L 117.132812 648.871094 L 106.421875 648.871094 Z M 118.8125 683.929688 L 129.234375 683.929688 L 129.234375 673.507812 L 118.8125 673.507812 Z M 179.949219 610.550781 L 190.566406 610.550781 L 190.566406 599.9375 L 179.949219 599.9375 Z M 179.160156 378.675781 L 191.355469 378.675781 L 191.355469 366.476562 L 179.160156 366.476562 Z M 167.894531 671.585938 L 178.125 671.585938 L 178.125 661.359375 L 167.894531 661.359375 Z M 179.183594 390.898438 L 191.332031 390.898438 L 191.332031 378.746094 L 179.183594 378.746094 Z M 179.230469 403.09375 L 191.285156 403.09375 L 191.285156 391.042969 L 179.230469 391.042969 Z M 179.878906 586.132812 L 190.636719 586.132812 L 190.636719 575.375 L 179.878906 575.375 Z M 179.328125 427.492188 L 191.1875 427.492188 L 191.1875 415.628906 L 179.328125 415.628906 Z M 192.367188 647.121094 L 202.644531 647.121094 L 202.644531 636.84375 L 192.367188 636.84375 Z M 192.199219 598.304688 L 202.8125 598.304688 L 202.8125 587.691406 L 192.199219 587.691406 Z M 192.222656 610.527344 L 202.789062 610.527344 L 202.789062 599.960938 L 192.222656 599.960938 Z M 192.292969 622.699219 L 202.714844 622.699219 L 202.714844 612.28125 L 192.292969 612.28125 Z M 192.414062 659.316406 L 202.59375 659.316406 L 202.59375 649.136719 L 192.414062 649.136719 Z M 179.902344 598.351562 L 190.613281 598.351562 L 190.613281 587.644531 L 179.902344 587.644531 Z M 179.277344 415.292969 L 191.238281 415.292969 L 191.238281 403.335938 L 179.277344 403.335938 Z M 167.632812 598.378906 L 178.390625 598.378906 L 178.390625 587.621094 L 167.632812 587.621094 Z M 166.9375 403.144531 L 179.085938 403.144531 L 179.085938 390.992188 L 166.9375 390.992188 Z M 167.726562 622.773438 L 178.292969 622.773438 L 178.292969 612.207031 L 167.726562 612.207031 Z M 192.101562 573.910156 L 202.90625 573.910156 L 202.90625 563.105469 L 192.101562 563.105469 Z M 228.265625 378.554688 L 240.222656 378.554688 L 240.222656 366.597656 L 228.265625 366.597656 Z M 167.800781 647.191406 L 178.222656 647.191406 L 178.222656 636.769531 L 167.800781 636.769531 Z M 166.910156 390.921875 L 179.109375 390.921875 L 179.109375 378.722656 L 166.910156 378.722656 Z M 180.046875 634.945312 L 190.46875 634.945312 L 190.46875 624.527344 L 180.046875 624.527344 Z M 180.167969 671.5625 L 190.347656 671.5625 L 190.347656 661.382812 L 180.167969 661.382812 Z M 180 622.75 L 190.515625 622.75 L 190.515625 612.230469 L 180 612.230469 Z M 180.070312 647.167969 L 190.445312 647.167969 L 190.445312 636.796875 L 180.070312 636.796875 Z M 180.144531 659.339844 L 190.371094 659.339844 L 190.371094 649.113281 L 180.144531 649.113281 Z M 228.53125 451.765625 L 239.960938 451.765625 L 239.960938 440.335938 L 228.53125 440.335938 Z M 290.484375 610.238281 L 300.472656 610.238281 L 300.472656 600.25 L 290.484375 600.25 Z M 277.613281 439.425781 L 288.851562 439.425781 L 288.851562 428.1875 L 277.613281 428.1875 Z M 277.660156 451.621094 L 288.804688 451.621094 L 288.804688 440.480469 L 277.660156 440.480469 Z M 277.734375 476.039062 L 288.730469 476.039062 L 288.730469 465.042969 L 277.734375 465.042969 Z M 277.78125 488.238281 L 288.683594 488.238281 L 288.683594 477.335938 L 277.78125 477.335938 Z M 277.828125 500.4375 L 288.636719 500.4375 L 288.636719 489.632812 L 277.828125 489.632812 Z M 277.566406 427.226562 L 288.898438 427.226562 L 288.898438 415.894531 L 277.566406 415.894531 Z M 277.398438 378.410156 L 289.066406 378.410156 L 289.066406 366.742188 L 277.398438 366.742188 Z M 290.558594 622.414062 L 300.402344 622.414062 L 300.402344 612.566406 L 290.558594 612.566406 Z M 277.445312 390.609375 L 289.019531 390.609375 L 289.019531 379.035156 L 277.445312 379.035156 Z M 277.46875 402.832031 L 288.996094 402.832031 L 288.996094 391.304688 L 277.46875 391.304688 Z M 265.199219 402.855469 L 276.773438 402.855469 L 276.773438 391.28125 L 265.199219 391.28125 Z M 277.515625 415.027344 L 288.949219 415.027344 L 288.949219 403.597656 L 277.515625 403.597656 Z M 277.683594 463.84375 L 288.78125 463.84375 L 288.78125 452.75 L 277.683594 452.75 Z M 278.261719 622.460938 L 288.203125 622.460938 L 288.203125 612.519531 L 278.261719 612.519531 Z M 278.238281 610.238281 L 288.226562 610.238281 L 288.226562 600.25 L 278.238281 600.25 Z M 278.308594 634.660156 L 288.15625 634.660156 L 288.15625 624.8125 L 278.308594 624.8125 Z M 265.125 378.4375 L 276.84375 378.4375 L 276.84375 366.71875 L 265.125 366.71875 Z M 278.164062 598.066406 L 288.300781 598.066406 L 288.300781 587.933594 L 278.164062 587.933594 Z M 277.902344 524.855469 L 288.5625 524.855469 L 288.5625 514.195312 L 277.902344 514.195312 Z M 265.148438 390.65625 L 276.820312 390.65625 L 276.820312 378.988281 L 265.148438 378.988281 Z M 277.949219 537.054688 L 288.515625 537.054688 L 288.515625 526.488281 L 277.949219 526.488281 Z M 277.996094 549.25 L 288.46875 549.25 L 288.46875 538.78125 L 277.996094 538.78125 Z M 278.046875 561.449219 L 288.417969 561.449219 L 288.417969 551.074219 L 278.046875 551.074219 Z M 278.09375 573.644531 L 288.371094 573.644531 L 288.371094 563.371094 L 278.09375 563.371094 Z M 278.140625 585.84375 L 288.324219 585.84375 L 288.324219 575.664062 L 278.140625 575.664062 Z M 277.855469 512.65625 L 288.613281 512.65625 L 288.613281 501.902344 L 277.855469 501.902344 Z M 302.730469 597.992188 L 312.722656 597.992188 L 312.722656 588.003906 L 302.730469 588.003906 Z M 302.78125 610.191406 L 312.671875 610.191406 L 312.671875 600.296875 L 302.78125 600.296875 Z M 302.707031 585.773438 L 312.746094 585.773438 L 312.746094 575.734375 L 302.707031 575.734375 Z M 302.851562 622.363281 L 312.601562 622.363281 L 312.601562 612.617188 L 302.851562 612.617188 Z M 302.875 634.585938 L 312.578125 634.585938 L 312.578125 624.886719 L 302.875 624.886719 Z M 302.636719 573.597656 L 312.816406 573.597656 L 312.816406 563.417969 L 302.636719 563.417969 Z M 302.394531 500.363281 L 313.058594 500.363281 L 313.058594 489.703125 L 302.394531 489.703125 Z M 302.441406 512.5625 L 313.007812 512.5625 L 313.007812 501.996094 L 302.441406 501.996094 Z M 302.46875 524.785156 L 312.984375 524.785156 L 312.984375 514.265625 L 302.46875 514.265625 Z M 289.714844 390.585938 L 301.242188 390.585938 L 301.242188 379.058594 L 289.714844 379.058594 Z M 302.539062 536.957031 L 312.914062 536.957031 L 312.914062 526.585938 L 302.539062 526.585938 Z M 302.609375 561.375 L 312.839844 561.375 L 312.839844 551.148438 L 302.609375 551.148438 Z M 302.5625 549.179688 L 312.890625 549.179688 L 312.890625 538.855469 L 302.5625 538.855469 Z M 290.148438 512.609375 L 300.808594 512.609375 L 300.808594 501.949219 L 290.148438 501.949219 Z M 290.195312 524.808594 L 300.761719 524.808594 L 300.761719 514.242188 L 290.195312 514.242188 Z M 290.292969 549.203125 L 300.667969 549.203125 L 300.667969 538.828125 L 290.292969 538.828125 Z M 290.460938 598.015625 L 300.5 598.015625 L 300.5 587.980469 L 290.460938 587.980469 Z M 290.386719 573.597656 L 300.570312 573.597656 L 300.570312 563.417969 L 290.386719 563.417969 Z M 290.316406 561.425781 L 300.640625 561.425781 L 300.640625 551.097656 L 290.316406 551.097656 Z M 290.101562 500.410156 L 300.859375 500.410156 L 300.859375 489.65625 L 290.101562 489.65625 Z M 289.933594 451.597656 L 301.027344 451.597656 L 301.027344 440.503906 L 289.933594 440.503906 Z M 289.8125 414.980469 L 301.144531 414.980469 L 301.144531 403.648438 L 289.8125 403.648438 Z M 289.859375 427.179688 L 301.097656 427.179688 L 301.097656 415.941406 L 289.859375 415.941406 Z M 289.765625 402.78125 L 301.195312 402.78125 L 301.195312 391.355469 L 289.765625 391.355469 Z M 290.003906 476.015625 L 300.953125 476.015625 L 300.953125 465.066406 L 290.003906 465.066406 Z M 289.980469 463.796875 L 300.976562 463.796875 L 300.976562 452.796875 L 289.980469 452.796875 Z M 265.679688 537.078125 L 276.292969 537.078125 L 276.292969 526.464844 L 265.679688 526.464844 Z M 240.5625 378.507812 L 252.421875 378.507812 L 252.421875 366.644531 L 240.5625 366.644531 Z M 240.511719 366.308594 L 252.472656 366.308594 L 252.472656 354.351562 L 240.511719 354.351562 Z M 253.792969 646.929688 L 263.6875 646.929688 L 263.6875 637.035156 L 253.792969 637.035156 Z M 240.609375 390.707031 L 252.375 390.707031 L 252.375 378.941406 L 240.609375 378.941406 Z M 240.632812 402.925781 L 252.351562 402.925781 L 252.351562 391.210938 L 240.632812 391.210938 Z M 240.679688 415.125 L 252.304688 415.125 L 252.304688 403.503906 L 240.679688 403.503906 Z M 253.742188 634.730469 L 263.734375 634.730469 L 263.734375 624.742188 L 253.742188 624.742188 Z M 253.550781 585.941406 L 263.925781 585.941406 L 263.925781 575.566406 L 253.550781 575.566406 Z M 253.695312 622.53125 L 263.78125 622.53125 L 263.78125 612.449219 L 253.695312 612.449219 Z M 253.480469 561.519531 L 263.996094 561.519531 L 263.996094 551.003906 L 253.480469 551.003906 Z M 253.527344 573.71875 L 263.949219 573.71875 L 263.949219 563.296875 L 253.527344 563.296875 Z M 253.648438 610.335938 L 263.828125 610.335938 L 263.828125 600.152344 L 253.648438 600.152344 Z M 253.601562 598.136719 L 263.878906 598.136719 L 263.878906 587.859375 L 253.601562 587.859375 Z M 241.378906 610.359375 L 251.605469 610.359375 L 251.605469 600.128906 L 241.378906 600.128906 Z M 240.703125 427.347656 L 252.28125 427.347656 L 252.28125 415.773438 L 240.703125 415.773438 Z M 241.328125 598.160156 L 251.65625 598.160156 L 251.65625 587.835938 L 241.328125 587.835938 Z M 241.234375 573.765625 L 251.75 573.765625 L 251.75 563.25 L 241.234375 563.25 Z M 241.402344 622.582031 L 251.582031 622.582031 L 251.582031 612.398438 L 241.402344 612.398438 Z M 241.210938 561.542969 L 251.773438 561.542969 L 251.773438 550.980469 L 241.210938 550.980469 Z M 241.496094 646.976562 L 251.488281 646.976562 L 251.488281 636.988281 L 241.496094 636.988281 Z M 253.433594 549.324219 L 264.046875 549.324219 L 264.046875 538.710938 L 253.433594 538.710938 Z M 240.777344 439.519531 L 252.207031 439.519531 L 252.207031 428.089844 L 240.777344 428.089844 Z M 241.136719 549.371094 L 251.847656 549.371094 L 251.847656 538.660156 L 241.136719 538.660156 Z M 240.800781 451.742188 L 252.183594 451.742188 L 252.183594 440.359375 L 240.800781 440.359375 Z M 240.898438 476.136719 L 252.085938 476.136719 L 252.085938 464.949219 L 240.898438 464.949219 Z M 240.847656 463.9375 L 252.136719 463.9375 L 252.136719 452.652344 L 240.847656 452.652344 Z M 252.878906 390.679688 L 264.597656 390.679688 L 264.597656 378.964844 L 252.878906 378.964844 Z M 265.703125 549.296875 L 276.269531 549.296875 L 276.269531 538.734375 L 265.703125 538.734375 Z M 265.800781 573.695312 L 276.171875 573.695312 L 276.171875 563.320312 L 265.800781 563.320312 Z M 228.242188 366.335938 L 240.25 366.335938 L 240.25 354.328125 L 228.242188 354.328125 Z M 265.992188 622.484375 L 275.980469 622.484375 L 275.980469 612.496094 L 265.992188 612.496094 Z M 253.382812 537.125 L 264.09375 537.125 L 264.09375 526.417969 L 253.382812 526.417969 Z M 265.894531 598.089844 L 276.078125 598.089844 L 276.078125 587.910156 L 265.894531 587.910156 Z M 265.535156 500.484375 L 276.4375 500.484375 L 276.4375 489.582031 L 265.535156 489.582031 Z M 265.320312 439.472656 L 276.652344 439.472656 L 276.652344 428.136719 L 265.320312 428.136719 Z M 266.085938 646.878906 L 275.882812 646.878906 L 275.882812 637.082031 L 266.085938 637.082031 Z M 265.367188 451.667969 L 276.605469 451.667969 L 276.605469 440.433594 L 265.367188 440.433594 Z M 265.511719 488.261719 L 276.460938 488.261719 L 276.460938 477.3125 L 265.511719 477.3125 Z M 265.4375 476.089844 L 276.53125 476.089844 L 276.53125 464.996094 L 265.4375 464.996094 Z M 265.628906 524.878906 L 276.339844 524.878906 L 276.339844 514.171875 L 265.628906 514.171875 Z M 253.167969 476.113281 L 264.308594 476.113281 L 264.308594 464.972656 L 253.167969 464.972656 Z M 253.121094 463.914062 L 264.359375 463.914062 L 264.359375 452.679688 L 253.121094 452.679688 Z M 253.09375 451.695312 L 264.382812 451.695312 L 264.382812 440.410156 L 253.09375 440.410156 Z M 252.832031 378.484375 L 264.644531 378.484375 L 264.644531 366.671875 L 252.832031 366.671875 Z M 253.359375 524.902344 L 264.117188 524.902344 L 264.117188 514.148438 L 253.359375 514.148438 Z M 253.265625 500.507812 L 264.214844 500.507812 L 264.214844 489.558594 L 253.265625 489.558594 Z M 253.214844 488.308594 L 264.261719 488.308594 L 264.261719 477.265625 L 253.214844 477.265625 Z M 265.269531 427.273438 L 276.699219 427.273438 L 276.699219 415.84375 L 265.269531 415.84375 Z M 253.046875 439.496094 L 264.429688 439.496094 L 264.429688 428.113281 L 253.046875 428.113281 Z M 252.925781 402.878906 L 264.550781 402.878906 L 264.550781 391.257812 L 252.925781 391.257812 Z M 252.953125 415.101562 L 264.527344 415.101562 L 264.527344 403.527344 L 252.953125 403.527344 Z M 253 427.296875 L 264.476562 427.296875 L 264.476562 415.820312 L 253 415.820312 Z M 388.074219 414.691406 L 398.832031 414.691406 L 398.832031 403.933594 L 388.074219 403.933594 Z M 536.191406 597.226562 L 544.640625 597.226562 L 544.640625 588.773438 L 536.191406 588.773438 Z M 536.285156 621.621094 L 544.546875 621.621094 L 544.546875 613.359375 L 536.285156 613.359375 Z M 523.054688 377.691406 L 533.285156 377.691406 L 533.285156 367.460938 L 523.054688 367.460938 Z M 536.382812 646.015625 L 544.449219 646.015625 L 544.449219 637.949219 L 536.382812 637.949219 Z M 523.125 402.109375 L 533.210938 402.109375 L 533.210938 392.027344 L 523.125 392.027344 Z M 523.078125 389.914062 L 533.261719 389.914062 L 533.261719 379.730469 L 523.078125 379.730469 Z M 535.515625 426.457031 L 545.316406 426.457031 L 545.316406 416.660156 L 535.515625 416.660156 Z M 535.804688 499.644531 L 545.027344 499.644531 L 545.027344 490.421875 L 535.804688 490.421875 Z M 535.683594 475.273438 L 545.144531 475.273438 L 545.144531 465.8125 L 535.683594 465.8125 Z M 535.589844 450.878906 L 545.242188 450.878906 L 545.242188 441.222656 L 535.589844 441.222656 Z M 536.070312 572.855469 L 544.761719 572.855469 L 544.761719 564.160156 L 536.070312 564.160156 Z M 560.5625 548.363281 L 569.257812 548.363281 L 569.257812 539.671875 L 560.5625 539.671875 Z M 523.175781 414.308594 L 533.164062 414.308594 L 533.164062 404.320312 L 523.175781 404.320312 Z M 535.972656 548.457031 L 544.859375 548.457031 L 544.859375 539.574219 L 535.972656 539.574219 Z M 523.582031 524.109375 L 532.753906 524.109375 L 532.753906 514.9375 L 523.582031 514.9375 Z M 523.65625 536.285156 L 532.683594 536.285156 L 532.683594 527.257812 L 523.65625 527.257812 Z M 523.558594 511.890625 L 532.78125 511.890625 L 532.78125 502.667969 L 523.558594 502.667969 Z M 523.726562 560.703125 L 532.613281 560.703125 L 532.613281 551.820312 L 523.726562 551.820312 Z M 523.222656 426.507812 L 533.117188 426.507812 L 533.117188 416.613281 L 523.222656 416.613281 Z M 523.703125 548.484375 L 532.636719 548.484375 L 532.636719 539.550781 L 523.703125 539.550781 Z M 523.511719 499.691406 L 532.828125 499.691406 L 532.828125 490.375 L 523.511719 490.375 Z M 523.269531 438.703125 L 533.066406 438.703125 L 533.066406 428.90625 L 523.269531 428.90625 Z M 523.320312 450.902344 L 533.019531 450.902344 L 533.019531 441.199219 L 523.320312 441.199219 Z M 523.367188 463.097656 L 532.972656 463.097656 L 532.972656 453.496094 L 523.367188 453.496094 Z M 523.414062 475.296875 L 532.921875 475.296875 L 532.921875 465.789062 L 523.414062 465.789062 Z M 523.4375 487.519531 L 532.898438 487.519531 L 532.898438 478.058594 L 523.4375 478.058594 Z M 560.660156 572.757812 L 569.160156 572.757812 L 569.160156 564.257812 L 560.660156 564.257812 Z M 547.980469 475.222656 L 557.34375 475.222656 L 557.34375 465.859375 L 547.980469 465.859375 Z M 547.789062 426.433594 L 557.539062 426.433594 L 557.539062 416.683594 L 547.789062 416.683594 Z M 547.738281 414.234375 L 557.585938 414.234375 L 557.585938 404.390625 L 547.738281 404.390625 Z M 547.933594 463.027344 L 557.394531 463.027344 L 557.394531 453.566406 L 547.933594 453.566406 Z M 547.691406 402.039062 L 557.632812 402.039062 L 557.632812 392.097656 L 547.691406 392.097656 Z M 547.882812 450.828125 L 557.441406 450.828125 L 557.441406 441.273438 L 547.882812 441.273438 Z M 547.835938 438.632812 L 557.488281 438.632812 L 557.488281 428.980469 L 547.835938 428.980469 Z M 560.851562 621.546875 L 568.96875 621.546875 L 568.96875 613.433594 L 560.851562 613.433594 Z M 560.753906 597.152344 L 569.0625 597.152344 L 569.0625 588.84375 L 560.753906 588.84375 Z M 523.796875 572.878906 L 532.539062 572.878906 L 532.539062 564.136719 L 523.796875 564.136719 Z M 535.46875 414.261719 L 545.363281 414.261719 L 545.363281 404.367188 L 535.46875 404.367188 Z M 547.621094 377.617188 L 557.707031 377.617188 L 557.707031 367.535156 L 547.621094 367.535156 Z M 560.972656 645.917969 L 568.847656 645.917969 L 568.847656 638.042969 L 560.972656 638.042969 Z M 547.667969 389.816406 L 557.65625 389.816406 L 557.65625 379.828125 L 547.667969 379.828125 Z M 548.4375 584.980469 L 556.890625 584.980469 L 556.890625 576.527344 L 548.4375 576.527344 Z M 548.628906 633.769531 L 556.695312 633.769531 L 556.695312 625.703125 L 548.628906 625.703125 Z M 548.027344 487.421875 L 557.296875 487.421875 L 557.296875 478.152344 L 548.027344 478.152344 Z M 548.582031 621.570312 L 556.746094 621.570312 L 556.746094 613.410156 L 548.582031 613.410156 Z M 535.324219 377.667969 L 545.507812 377.667969 L 545.507812 367.488281 L 535.324219 367.488281 Z M 535.421875 402.0625 L 545.410156 402.0625 L 545.410156 392.074219 L 535.421875 392.074219 Z M 548.507812 609.398438 L 556.816406 609.398438 L 556.816406 601.089844 L 548.507812 601.089844 Z M 548.171875 524.015625 L 557.152344 524.015625 L 557.152344 515.035156 L 548.171875 515.035156 Z M 548.363281 572.804688 L 556.960938 572.804688 L 556.960938 564.210938 L 548.363281 564.210938 Z M 548.078125 499.621094 L 557.25 499.621094 L 557.25 490.449219 L 548.078125 490.449219 Z M 548.21875 536.214844 L 557.105469 536.214844 L 557.105469 527.328125 L 548.21875 527.328125 Z M 548.316406 560.609375 L 557.007812 560.609375 L 557.007812 551.917969 L 548.316406 551.917969 Z M 535.878906 524.0625 L 544.953125 524.0625 L 544.953125 514.988281 L 535.878906 514.988281 Z M 499.304688 597.367188 L 508.046875 597.367188 L 508.046875 588.628906 L 499.304688 588.628906 Z M 499.425781 621.742188 L 507.925781 621.742188 L 507.925781 613.242188 L 499.425781 613.242188 Z M 499.378906 609.542969 L 507.972656 609.542969 L 507.972656 600.945312 L 499.378906 600.945312 Z M 499.449219 633.960938 L 507.902344 633.960938 L 507.902344 625.511719 L 499.449219 625.511719 Z M 486.363281 426.625 L 496.496094 426.625 L 496.496094 416.492188 L 486.363281 416.492188 Z M 486.289062 402.207031 L 496.566406 402.207031 L 496.566406 391.929688 L 486.289062 391.929688 Z M 486.335938 414.40625 L 496.519531 414.40625 L 496.519531 404.222656 L 486.335938 404.222656 Z M 499.113281 548.578125 L 508.238281 548.578125 L 508.238281 539.453125 L 499.113281 539.453125 Z M 499.066406 536.382812 L 508.285156 536.382812 L 508.285156 527.160156 L 499.066406 527.160156 Z M 401.953125 817.167969 L 409.445312 817.167969 L 409.445312 809.675781 L 401.953125 809.675781 Z M 499.160156 560.777344 L 508.191406 560.777344 L 508.191406 551.746094 L 499.160156 551.746094 Z M 474.089844 426.648438 L 484.273438 426.648438 L 484.273438 416.46875 L 474.089844 416.46875 Z M 498.96875 511.984375 L 508.382812 511.984375 L 508.382812 502.574219 L 498.96875 502.574219 Z M 499.234375 572.949219 L 508.117188 572.949219 L 508.117188 564.066406 L 499.234375 564.066406 Z M 473.972656 390.03125 L 484.394531 390.03125 L 484.394531 379.613281 L 473.972656 379.613281 Z M 487.128906 621.789062 L 495.726562 621.789062 L 495.726562 613.191406 L 487.128906 613.191406 Z M 486.9375 572.996094 L 495.917969 572.996094 L 495.917969 564.015625 L 486.9375 564.015625 Z M 487.011719 597.417969 L 495.847656 597.417969 L 495.847656 588.582031 L 487.011719 588.582031 Z M 473.996094 402.253906 L 484.367188 402.253906 L 484.367188 391.882812 L 473.996094 391.882812 Z M 474.042969 414.453125 L 484.320312 414.453125 L 484.320312 404.175781 L 474.042969 404.175781 Z M 486.457031 451.019531 L 496.398438 451.019531 L 496.398438 441.082031 L 486.457031 441.082031 Z M 486.554688 475.417969 L 496.304688 475.417969 L 496.304688 465.667969 L 486.554688 465.667969 Z M 486.816406 548.625 L 496.039062 548.625 L 496.039062 539.40625 L 486.816406 539.40625 Z M 486.507812 463.21875 L 496.351562 463.21875 L 496.351562 453.375 L 486.507812 453.375 Z M 486.648438 499.8125 L 496.207031 499.8125 L 496.207031 490.253906 L 486.648438 490.253906 Z M 486.746094 524.207031 L 496.109375 524.207031 L 496.109375 514.84375 L 486.746094 514.84375 Z M 511.121094 475.34375 L 520.726562 475.34375 L 520.726562 465.738281 L 511.121094 465.738281 Z M 510.832031 402.160156 L 521.011719 402.160156 L 521.011719 391.976562 L 510.832031 391.976562 Z M 523.847656 585.074219 L 532.492188 585.074219 L 532.492188 576.429688 L 523.847656 576.429688 Z M 510.925781 426.554688 L 520.917969 426.554688 L 520.917969 416.566406 L 510.925781 416.566406 Z M 511.046875 450.925781 L 520.796875 450.925781 L 520.796875 441.175781 L 511.046875 441.175781 Z M 511.40625 548.53125 L 520.4375 548.53125 L 520.4375 539.503906 L 511.40625 539.503906 Z M 498.921875 499.789062 L 508.429688 499.789062 L 508.429688 490.28125 L 498.921875 490.28125 Z M 511.3125 524.136719 L 520.53125 524.136719 L 520.53125 514.914062 L 511.3125 514.914062 Z M 523.941406 609.472656 L 532.394531 609.472656 L 532.394531 601.019531 L 523.941406 601.019531 Z M 523.894531 597.273438 L 532.445312 597.273438 L 532.445312 588.726562 L 523.894531 588.726562 Z M 524.039062 633.867188 L 532.300781 633.867188 L 532.300781 625.605469 L 524.039062 625.605469 Z M 510.808594 389.9375 L 521.039062 389.9375 L 521.039062 379.707031 L 510.808594 379.707031 Z M 523.992188 621.667969 L 532.347656 621.667969 L 532.347656 613.3125 L 523.992188 613.3125 Z M 511.214844 499.738281 L 520.628906 499.738281 L 520.628906 490.328125 L 511.214844 490.328125 Z M 498.65625 426.578125 L 508.695312 426.578125 L 508.695312 416.542969 L 498.65625 416.542969 Z M 498.800781 463.171875 L 508.550781 463.171875 L 508.550781 453.421875 L 498.800781 453.421875 Z M 498.679688 438.800781 L 508.671875 438.800781 L 508.671875 428.8125 L 498.679688 428.8125 Z M 498.753906 450.972656 L 508.597656 450.972656 L 508.597656 441.128906 L 498.753906 441.128906 Z M 511.503906 572.925781 L 520.339844 572.925781 L 520.339844 564.089844 L 511.503906 564.089844 Z M 498.898438 487.566406 L 508.453125 487.566406 L 508.453125 478.011719 L 498.898438 478.011719 Z M 498.824219 475.390625 L 508.527344 475.390625 L 508.527344 465.691406 L 498.824219 465.691406 Z M 511.695312 621.714844 L 520.148438 621.714844 L 520.148438 613.265625 L 511.695312 613.265625 Z M 511.601562 597.320312 L 520.246094 597.320312 L 520.246094 588.675781 L 511.601562 588.675781 Z M 498.609375 414.378906 L 508.742188 414.378906 L 508.742188 404.246094 L 498.609375 404.246094 Z M 498.511719 389.984375 L 508.839844 389.984375 L 508.839844 379.660156 L 498.511719 379.660156 Z M 498.585938 402.160156 L 508.765625 402.160156 L 508.765625 391.976562 L 498.585938 391.976562 Z M 499.257812 585.171875 L 508.09375 585.171875 L 508.09375 576.335938 L 499.257812 576.335938 Z M 634.621094 621.261719 L 642.160156 621.261719 L 642.160156 613.71875 L 634.621094 613.71875 Z M 633.683594 401.773438 L 643.097656 401.773438 L 643.097656 392.363281 L 633.683594 392.363281 Z M 634.714844 645.65625 L 642.066406 645.65625 L 642.066406 638.308594 L 634.714844 638.308594 Z M 621.222656 353.007812 L 631.066406 353.007812 L 631.066406 343.164062 L 621.222656 343.164062 Z M 634.835938 670.027344 L 641.945312 670.027344 L 641.945312 662.917969 L 634.835938 662.917969 Z M 633.613281 377.355469 L 643.167969 377.355469 L 643.167969 367.796875 L 633.613281 367.796875 Z M 645.929688 389.527344 L 655.34375 389.527344 L 655.34375 380.117188 L 645.929688 380.117188 Z M 645.980469 401.726562 L 655.296875 401.726562 L 655.296875 392.410156 L 645.980469 392.410156 Z M 646.914062 621.210938 L 654.359375 621.210938 L 654.359375 613.769531 L 646.914062 613.769531 Z M 621.269531 365.207031 L 631.019531 365.207031 L 631.019531 355.457031 L 621.269531 355.457031 Z M 646.964844 633.410156 L 654.3125 633.410156 L 654.3125 626.0625 L 646.964844 626.0625 Z M 647.082031 657.78125 L 654.191406 657.78125 L 654.191406 650.675781 L 647.082031 650.675781 Z M 633.515625 352.960938 L 643.265625 352.960938 L 643.265625 343.210938 L 633.515625 343.210938 Z M 622.421875 645.703125 L 629.867188 645.703125 L 629.867188 638.261719 L 622.421875 638.261719 Z M 645.882812 377.332031 L 655.390625 377.332031 L 655.390625 367.824219 L 645.882812 367.824219 Z M 622.492188 657.878906 L 629.792969 657.878906 L 629.792969 650.578125 L 622.492188 650.578125 Z M 622.375 633.507812 L 629.914062 633.507812 L 629.914062 625.964844 L 622.375 625.964844 Z M 608.925781 353.054688 L 618.867188 353.054688 L 618.867188 343.117188 L 608.925781 343.117188 Z M 609.023438 377.449219 L 618.773438 377.449219 L 618.773438 367.703125 L 609.023438 367.703125 Z M 622.277344 609.109375 L 630.011719 609.109375 L 630.011719 601.378906 L 622.277344 601.378906 Z M 621.363281 389.601562 L 630.921875 389.601562 L 630.921875 380.042969 L 621.363281 380.042969 Z M 621.316406 377.402344 L 630.96875 377.402344 L 630.96875 367.75 L 621.316406 367.75 Z M 621.414062 401.796875 L 630.875 401.796875 L 630.875 392.339844 L 621.414062 392.339844 Z M 622.207031 596.9375 L 630.082031 596.9375 L 630.082031 589.0625 L 622.207031 589.0625 Z M 621.507812 426.195312 L 630.777344 426.195312 L 630.777344 416.925781 L 621.507812 416.925781 Z M 621.460938 413.996094 L 630.828125 413.996094 L 630.828125 404.632812 L 621.460938 404.632812 Z M 645.785156 352.9375 L 655.488281 352.9375 L 655.488281 343.234375 L 645.785156 343.234375 Z M 682.550781 328.421875 L 692.203125 328.421875 L 692.203125 318.769531 L 682.550781 318.769531 Z M 696.359375 681.984375 L 702.890625 681.984375 L 702.890625 675.453125 L 696.359375 675.453125 Z M 682.648438 352.816406 L 692.109375 352.816406 L 692.109375 343.355469 L 682.648438 343.355469 Z M 694.941406 352.769531 L 704.308594 352.769531 L 704.308594 343.402344 L 694.941406 343.402344 Z M 670.328125 340.640625 L 679.933594 340.640625 L 679.933594 331.039062 L 670.328125 331.039062 Z M 682.695312 365.011719 L 692.058594 365.011719 L 692.058594 355.648438 L 682.695312 355.648438 Z M 645.835938 365.132812 L 655.441406 365.132812 L 655.441406 355.527344 L 645.835938 355.527344 Z M 694.871094 340.59375 L 704.378906 340.59375 L 704.378906 331.085938 L 694.871094 331.085938 Z M 707.117188 328.347656 L 716.625 328.347656 L 716.625 318.839844 L 707.117188 318.839844 Z M 719.410156 318.886719 L 719.410156 328.300781 L 728.824219 328.300781 L 728.824219 318.886719 Z M 720.949219 681.886719 L 727.289062 681.886719 L 727.289062 675.550781 L 720.949219 675.550781 Z M 708.703125 694.132812 L 715.042969 694.132812 L 715.042969 687.796875 L 708.703125 687.796875 Z M 694.847656 328.371094 L 704.402344 328.371094 L 704.402344 318.816406 L 694.847656 318.816406 Z M 684.015625 669.835938 L 690.738281 669.835938 L 690.738281 663.113281 L 684.015625 663.113281 Z M 659.304688 645.558594 L 666.460938 645.558594 L 666.460938 638.402344 L 659.304688 638.402344 Z M 659.425781 669.929688 L 666.34375 669.929688 L 666.34375 663.015625 L 659.425781 663.015625 Z M 658.175781 377.28125 L 667.589844 377.28125 L 667.589844 367.871094 L 658.175781 367.871094 Z M 609.140625 401.824219 L 618.652344 401.824219 L 618.652344 392.3125 L 609.140625 392.3125 Z M 645.761719 340.714844 L 655.511719 340.714844 L 655.511719 330.964844 L 645.761719 330.964844 Z M 658.082031 352.886719 L 667.6875 352.886719 L 667.6875 343.285156 L 658.082031 343.285156 Z M 670.398438 365.0625 L 679.863281 365.0625 L 679.863281 355.601562 L 670.398438 355.601562 Z M 670.375 352.839844 L 679.886719 352.839844 L 679.886719 343.332031 L 670.375 343.332031 Z M 670.472656 377.234375 L 679.789062 377.234375 L 679.789062 367.917969 L 670.472656 367.917969 Z M 671.648438 657.707031 L 678.613281 657.707031 L 678.613281 650.746094 L 671.648438 650.746094 Z M 671.601562 645.511719 L 678.660156 645.511719 L 678.660156 638.453125 L 671.601562 638.453125 Z M 671.769531 682.082031 L 678.492188 682.082031 L 678.492188 675.355469 L 671.769531 675.355469 Z M 573.097656 609.300781 L 581.214844 609.300781 L 581.214844 601.1875 L 573.097656 601.1875 Z M 572.449219 450.757812 L 581.863281 450.757812 L 581.863281 441.34375 L 572.449219 441.34375 Z M 572.402344 438.558594 L 581.910156 438.558594 L 581.910156 429.050781 L 572.402344 429.050781 Z M 572.378906 426.339844 L 581.933594 426.339844 L 581.933594 416.78125 L 572.378906 416.78125 Z M 572.546875 475.152344 L 581.765625 475.152344 L 581.765625 465.933594 L 572.546875 465.933594 Z M 572.859375 548.316406 L 581.453125 548.316406 L 581.453125 539.71875 L 572.859375 539.71875 Z M 572.496094 462.953125 L 581.816406 462.953125 L 581.816406 453.636719 L 572.496094 453.636719 Z M 572.304688 414.164062 L 582.007812 414.164062 L 582.007812 404.464844 L 572.304688 404.464844 Z M 585.5625 645.824219 L 593.246094 645.824219 L 593.246094 638.140625 L 585.5625 638.140625 Z M 585.441406 621.453125 L 593.367188 621.453125 L 593.367188 613.527344 L 585.441406 613.527344 Z M 572.136719 365.347656 L 582.175781 365.347656 L 582.175781 355.3125 L 572.136719 355.3125 Z M 572.234375 389.746094 L 582.078125 389.746094 L 582.078125 379.898438 L 572.234375 379.898438 Z M 572.28125 401.941406 L 582.03125 401.941406 L 582.03125 392.195312 L 572.28125 392.195312 Z M 572.160156 377.570312 L 582.152344 377.570312 L 582.152344 367.582031 L 572.160156 367.582031 Z M 573.3125 658.070312 L 581 658.070312 L 581 650.386719 L 573.3125 650.386719 Z M 609.214844 426.242188 L 618.578125 426.242188 L 618.578125 416.878906 L 609.214844 416.878906 Z M 585.34375 597.058594 L 593.460938 597.058594 L 593.460938 588.941406 L 585.34375 588.941406 Z M 559.988281 401.992188 L 569.832031 401.992188 L 569.832031 392.144531 L 559.988281 392.144531 Z M 560.15625 450.804688 L 569.664062 450.804688 L 569.664062 441.296875 L 560.15625 441.296875 Z M 560.082031 426.386719 L 569.738281 426.386719 L 569.738281 416.734375 L 560.082031 416.734375 Z M 573.265625 645.871094 L 581.046875 645.871094 L 581.046875 638.09375 L 573.265625 638.09375 Z M 573.050781 597.105469 L 581.261719 597.105469 L 581.261719 588.894531 L 573.050781 588.894531 Z M 572.976562 584.929688 L 581.335938 584.929688 L 581.335938 576.574219 L 572.976562 576.574219 Z M 572.929688 572.734375 L 581.382812 572.734375 L 581.382812 564.28125 L 572.929688 564.28125 Z M 560.273438 475.175781 L 569.542969 475.175781 L 569.542969 465.910156 L 560.273438 465.910156 Z M 572.90625 560.511719 L 581.40625 560.511719 L 581.40625 552.011719 L 572.90625 552.011719 Z M 573.21875 633.675781 L 581.09375 633.675781 L 581.09375 625.796875 L 573.21875 625.796875 Z M 559.890625 377.59375 L 569.929688 377.59375 L 569.929688 367.558594 L 559.890625 367.558594 Z M 596.847656 401.871094 L 606.453125 401.871094 L 606.453125 392.265625 L 596.847656 392.265625 Z M 596.777344 389.695312 L 606.523438 389.695312 L 606.523438 379.949219 L 596.777344 379.949219 Z M 596.75 377.476562 L 606.546875 377.476562 L 606.546875 367.679688 L 596.75 367.679688 Z M 596.917969 426.289062 L 606.378906 426.289062 L 606.378906 416.828125 L 596.917969 416.828125 Z M 596.894531 414.066406 L 606.40625 414.066406 L 606.40625 404.558594 L 596.894531 404.558594 Z M 596.703125 365.277344 L 606.597656 365.277344 L 606.597656 355.386719 L 596.703125 355.386719 Z M 610.246094 670.121094 L 617.546875 670.121094 L 617.546875 662.824219 L 610.246094 662.824219 Z M 585.226562 572.683594 L 593.582031 572.683594 L 593.582031 564.328125 L 585.226562 564.328125 Z M 596.65625 353.078125 L 606.644531 353.078125 L 606.644531 343.089844 L 596.65625 343.089844 Z M 610.03125 621.355469 L 617.761719 621.355469 L 617.761719 613.625 L 610.03125 613.625 Z M 596.992188 438.464844 L 606.308594 438.464844 L 606.308594 429.148438 L 596.992188 429.148438 Z M 610.152344 645.726562 L 617.644531 645.726562 L 617.644531 638.234375 L 610.152344 638.234375 Z M 609.910156 596.984375 L 617.882812 596.984375 L 617.882812 589.011719 L 609.910156 589.011719 Z M 597.039062 450.660156 L 606.261719 450.660156 L 606.261719 441.441406 L 597.039062 441.441406 Z M 584.550781 401.917969 L 594.253906 401.917969 L 594.253906 392.21875 L 584.550781 392.21875 Z M 584.410156 365.324219 L 594.398438 365.324219 L 594.398438 355.335938 L 584.410156 355.335938 Z M 584.648438 426.3125 L 594.15625 426.3125 L 594.15625 416.804688 L 584.648438 416.804688 Z M 597.902344 657.972656 L 605.394531 657.972656 L 605.394531 650.480469 L 597.902344 650.480469 Z M 584.746094 450.710938 L 594.0625 450.710938 L 594.0625 441.394531 L 584.746094 441.394531 Z M 584.457031 377.523438 L 594.351562 377.523438 L 594.351562 367.628906 L 584.457031 367.628906 Z M 597.519531 572.636719 L 605.78125 572.636719 L 605.78125 564.378906 L 597.519531 564.378906 Z M 597.566406 584.835938 L 605.734375 584.835938 L 605.734375 576.671875 L 597.566406 576.671875 Z M 597.6875 609.207031 L 605.613281 609.207031 L 605.613281 601.28125 L 597.6875 601.28125 Z M 597.785156 633.601562 L 605.515625 633.601562 L 605.515625 625.871094 L 597.785156 625.871094 Z M 597.734375 621.402344 L 605.5625 621.402344 L 605.5625 613.578125 L 597.734375 613.578125 Z M 499.039062 524.160156 L 508.308594 524.160156 L 508.308594 514.890625 L 499.039062 514.890625 Z M 412.496094 378.027344 L 423.398438 378.027344 L 423.398438 367.125 L 412.496094 367.125 Z M 412.402344 353.632812 L 423.496094 353.632812 L 423.496094 342.539062 L 412.402344 342.539062 Z M 412.542969 390.226562 L 423.351562 390.226562 L 423.351562 379.421875 L 412.542969 379.421875 Z M 412.664062 426.84375 L 423.230469 426.84375 L 423.230469 416.277344 L 412.664062 416.277344 Z M 412.570312 402.445312 L 423.328125 402.445312 L 423.328125 391.691406 L 412.570312 391.691406 Z M 412.375 341.410156 L 423.519531 341.410156 L 423.519531 330.269531 L 412.375 330.269531 Z M 413.914062 743.980469 L 421.980469 743.980469 L 421.980469 735.914062 L 413.914062 735.914062 Z M 412.761719 451.238281 L 423.132812 451.238281 L 423.132812 440.863281 L 412.761719 440.863281 Z M 412.089844 255.980469 L 423.808594 255.980469 L 423.808594 244.261719 L 412.089844 244.261719 Z M 412.328125 329.210938 L 423.566406 329.210938 L 423.566406 317.976562 L 412.328125 317.976562 Z M 412.015625 243.804688 L 423.878906 243.804688 L 423.878906 231.945312 L 412.015625 231.945312 Z M 412.234375 304.816406 L 423.664062 304.816406 L 423.664062 293.386719 L 412.234375 293.386719 Z M 412.207031 292.597656 L 423.6875 292.597656 L 423.6875 281.117188 L 412.207031 281.117188 Z M 413.121094 548.84375 L 422.773438 548.84375 L 422.773438 539.191406 L 413.121094 539.191406 Z M 413.3125 597.632812 L 422.582031 597.632812 L 422.582031 588.363281 L 413.3125 588.363281 Z M 413.410156 622.027344 L 422.484375 622.027344 L 422.484375 612.953125 L 413.410156 612.953125 Z M 413.601562 670.820312 L 422.292969 670.820312 L 422.292969 662.128906 L 413.601562 662.128906 Z M 413.503906 646.425781 L 422.390625 646.425781 L 422.390625 637.539062 L 413.503906 637.539062 Z M 413.792969 719.609375 L 422.101562 719.609375 L 422.101562 711.300781 L 413.792969 711.300781 Z M 413.699219 695.214844 L 422.199219 695.214844 L 422.199219 686.714844 L 413.699219 686.714844 Z M 411.992188 231.582031 L 423.902344 231.582031 L 423.902344 219.675781 L 411.992188 219.675781 Z M 412.878906 487.855469 L 423.015625 487.855469 L 423.015625 477.722656 L 412.878906 477.722656 Z M 412.953125 500.027344 L 422.941406 500.027344 L 422.941406 490.039062 L 412.953125 490.039062 Z M 413.023438 524.449219 L 422.871094 524.449219 L 422.871094 514.601562 L 413.023438 514.601562 Z M 413.191406 573.261719 L 422.703125 573.261719 L 422.703125 563.753906 L 413.191406 563.753906 Z M 412.855469 475.632812 L 423.039062 475.632812 L 423.039062 465.453125 L 412.855469 465.453125 Z M 412.160156 280.398438 L 423.734375 280.398438 L 423.734375 268.824219 L 412.160156 268.824219 Z M 425.753906 634.179688 L 434.636719 634.179688 L 434.636719 625.292969 L 425.753906 625.292969 Z M 425.703125 621.980469 L 434.683594 621.980469 L 434.683594 613 L 425.703125 613 Z M 425.777344 646.398438 L 434.613281 646.398438 L 434.613281 637.5625 L 425.777344 637.5625 Z M 425.632812 609.808594 L 434.757812 609.808594 L 434.757812 600.683594 L 425.632812 600.683594 Z M 411.945312 219.386719 L 423.949219 219.386719 L 423.949219 207.378906 L 411.945312 207.378906 Z M 425.824219 658.597656 L 434.566406 658.597656 L 434.566406 649.855469 L 425.824219 649.855469 Z M 425.441406 561.015625 L 434.949219 561.015625 L 434.949219 551.507812 L 425.441406 551.507812 Z M 425.945312 682.96875 L 434.445312 682.96875 L 434.445312 674.46875 L 425.945312 674.46875 Z M 425.582031 597.609375 L 434.804688 597.609375 L 434.804688 588.390625 L 425.582031 588.390625 Z M 425.320312 524.398438 L 435.070312 524.398438 L 435.070312 514.652344 L 425.320312 514.652344 Z M 425.414062 548.792969 L 434.972656 548.792969 L 434.972656 539.238281 L 425.414062 539.238281 Z M 425.488281 573.214844 L 434.902344 573.214844 L 434.902344 563.800781 L 425.488281 563.800781 Z M 425.558594 585.386719 L 434.828125 585.386719 L 434.828125 576.121094 L 425.558594 576.121094 Z M 425.894531 670.769531 L 434.492188 670.769531 L 434.492188 662.175781 L 425.894531 662.175781 Z M 411.824219 146.03125 L 411.824219 133.785156 L 399.578125 133.785156 L 399.578125 146.03125 L 387.332031 146.03125 L 387.332031 195.015625 L 411.824219 195.015625 L 411.824219 182.769531 L 424.070312 182.769531 L 424.070312 158.277344 L 411.824219 158.277344 Z M 426.425781 792.699219 L 433.964844 792.699219 L 433.964844 785.160156 L 426.425781 785.160156 Z M 375.082031 207.261719 L 387.332031 207.261719 L 387.332031 195.015625 L 375.082031 195.015625 Z M 425.96875 695.191406 L 434.421875 695.191406 L 434.421875 686.738281 L 425.96875 686.738281 Z M 411.871094 194.964844 L 424.023438 194.964844 L 424.023438 182.816406 L 411.871094 182.816406 Z M 426.351562 780.527344 L 434.035156 780.527344 L 434.035156 772.84375 L 426.351562 772.84375 Z M 411.921875 207.164062 L 423.976562 207.164062 L 423.976562 195.109375 L 411.921875 195.109375 Z M 426.039062 707.363281 L 434.347656 707.363281 L 434.347656 699.054688 L 426.039062 699.054688 Z M 426.089844 719.5625 L 434.300781 719.5625 L 434.300781 711.351562 L 426.089844 711.351562 Z M 426.257812 756.128906 L 434.132812 756.128906 L 434.132812 748.253906 L 426.257812 748.253906 Z M 426.207031 743.933594 L 434.179688 743.933594 L 434.179688 735.960938 L 426.207031 735.960938 Z M 426.136719 731.757812 L 434.253906 731.757812 L 434.253906 723.644531 L 426.136719 723.644531 Z M 425.34375 536.621094 L 435.046875 536.621094 L 435.046875 526.921875 L 425.34375 526.921875 Z M 474.140625 438.847656 L 484.222656 438.847656 L 484.222656 428.761719 L 474.140625 428.761719 Z M 401.164062 634.273438 L 410.238281 634.273438 L 410.238281 625.199219 L 401.164062 625.199219 Z M 400.875 561.089844 L 410.527344 561.089844 L 410.527344 551.4375 L 400.875 551.4375 Z M 401.019531 597.679688 L 410.382812 597.679688 L 410.382812 588.316406 L 401.019531 588.316406 Z M 401.066406 609.878906 L 410.335938 609.878906 L 410.335938 600.609375 L 401.066406 600.609375 Z M 401.113281 622.078125 L 410.289062 622.078125 L 410.289062 612.902344 L 401.113281 612.902344 Z M 400.945312 573.261719 L 410.457031 573.261719 L 410.457031 563.753906 L 400.945312 563.753906 Z M 400.824219 548.890625 L 410.574219 548.890625 L 410.574219 539.140625 L 400.824219 539.140625 Z M 400.707031 512.273438 L 410.695312 512.273438 L 410.695312 502.285156 L 400.707031 502.285156 Z M 414.007812 768.375 L 421.886719 768.375 L 421.886719 760.5 L 414.007812 760.5 Z M 400.65625 500.074219 L 410.742188 500.074219 L 410.742188 489.992188 L 400.65625 489.992188 Z M 400.800781 536.667969 L 410.597656 536.667969 L 410.597656 526.871094 L 400.800781 526.871094 Z M 400.730469 524.496094 L 410.671875 524.496094 L 410.671875 514.554688 L 400.730469 514.554688 Z M 401.882812 804.992188 L 409.519531 804.992188 L 409.519531 797.359375 L 401.882812 797.359375 Z M 401.5 719.65625 L 409.902344 719.65625 L 409.902344 711.253906 L 401.5 711.253906 Z M 401.714844 768.425781 L 409.6875 768.425781 L 409.6875 760.453125 L 401.714844 760.453125 Z M 401.546875 731.855469 L 409.855469 731.855469 L 409.855469 723.546875 L 401.546875 723.546875 Z M 401.667969 756.226562 L 409.734375 756.226562 L 409.734375 748.160156 L 401.667969 748.160156 Z M 400.5625 475.679688 L 410.839844 475.679688 L 410.839844 465.402344 L 400.5625 465.402344 Z M 401.785156 780.597656 L 409.613281 780.597656 L 409.613281 772.769531 L 401.785156 772.769531 Z M 401.304688 670.867188 L 410.09375 670.867188 L 410.09375 662.078125 L 401.304688 662.078125 Z M 401.257812 658.667969 L 410.144531 658.667969 L 410.144531 649.785156 L 401.257812 649.785156 Z M 401.210938 646.472656 L 410.191406 646.472656 L 410.191406 637.492188 L 401.210938 637.492188 Z M 401.472656 707.4375 L 409.925781 707.4375 L 409.925781 698.984375 L 401.472656 698.984375 Z M 401.425781 695.238281 L 409.976562 695.238281 L 409.976562 686.691406 L 401.425781 686.691406 Z M 401.355469 683.066406 L 410.046875 683.066406 L 410.046875 674.371094 L 401.355469 674.371094 Z M 400.609375 487.878906 L 410.792969 487.878906 L 410.792969 477.699219 L 400.609375 477.699219 Z M 399.699219 231.632812 L 411.703125 231.632812 L 411.703125 219.625 L 399.699219 219.625 Z M 399.769531 243.804688 L 411.632812 243.804688 L 411.632812 231.945312 L 399.769531 231.945312 Z M 399.839844 268.222656 L 411.558594 268.222656 L 411.558594 256.507812 L 399.839844 256.507812 Z M 399.792969 256.027344 L 411.609375 256.027344 L 411.609375 244.214844 L 399.792969 244.214844 Z M 399.867188 280.445312 L 411.535156 280.445312 L 411.535156 268.777344 L 399.867188 268.777344 Z M 399.914062 292.644531 L 411.488281 292.644531 L 411.488281 281.070312 L 399.914062 281.070312 Z M 399.671875 219.410156 L 411.726562 219.410156 L 411.726562 207.355469 L 399.671875 207.355469 Z M 414.226562 817.144531 L 421.667969 817.144531 L 421.667969 809.699219 L 414.226562 809.699219 Z M 414.128906 792.746094 L 421.765625 792.746094 L 421.765625 785.113281 L 414.128906 785.113281 Z M 414.34375 841.515625 L 421.550781 841.515625 L 421.550781 834.3125 L 414.34375 834.3125 Z M 399.625 207.210938 L 411.777344 207.210938 L 411.777344 195.0625 L 399.625 195.0625 Z M 399.960938 304.839844 L 411.441406 304.839844 L 411.441406 293.363281 L 399.960938 293.363281 Z M 400.347656 414.667969 L 411.054688 414.667969 L 411.054688 403.960938 L 400.347656 403.960938 Z M 400.25 390.273438 L 411.152344 390.273438 L 411.152344 379.371094 L 400.25 379.371094 Z M 400.515625 463.484375 L 410.886719 463.484375 L 410.886719 453.109375 L 400.515625 453.109375 Z M 400.296875 402.472656 L 411.105469 402.472656 L 411.105469 391.664062 L 400.296875 391.664062 Z M 400.394531 426.867188 L 411.007812 426.867188 L 411.007812 416.253906 L 400.394531 416.253906 Z M 399.984375 317.0625 L 411.414062 317.0625 L 411.414062 305.632812 L 399.984375 305.632812 Z M 400.488281 451.261719 L 410.910156 451.261719 L 410.910156 440.839844 L 400.488281 440.839844 Z M 400.417969 439.085938 L 410.984375 439.085938 L 410.984375 428.523438 L 400.417969 428.523438 Z M 400.226562 378.050781 L 411.175781 378.050781 L 411.175781 367.101562 L 400.226562 367.101562 Z M 400.058594 329.238281 L 411.34375 329.238281 L 411.34375 317.953125 L 400.058594 317.953125 Z M 400.082031 341.457031 L 411.320312 341.457031 L 411.320312 330.222656 L 400.082031 330.222656 Z M 400.128906 353.65625 L 411.273438 353.65625 L 411.273438 342.515625 L 400.128906 342.515625 Z M 400.179688 365.855469 L 411.222656 365.855469 L 411.222656 354.808594 L 400.179688 354.808594 Z M 400.96875 585.484375 L 410.429688 585.484375 L 410.429688 576.023438 L 400.96875 576.023438 Z M 449.523438 426.722656 L 459.851562 426.722656 L 459.851562 416.398438 L 449.523438 416.398438 Z M 449.476562 414.523438 L 459.898438 414.523438 L 459.898438 404.105469 L 449.476562 404.105469 Z M 449.429688 402.328125 L 459.945312 402.328125 L 459.945312 391.808594 L 449.429688 391.808594 Z M 462.539062 621.882812 L 471.328125 621.882812 L 471.328125 613.097656 L 462.539062 613.097656 Z M 449.40625 390.105469 L 459.972656 390.105469 L 459.972656 379.539062 L 449.40625 379.539062 Z M 449.597656 451.140625 L 459.777344 451.140625 L 459.777344 440.960938 L 449.597656 440.960938 Z M 462.660156 646.257812 L 471.210938 646.257812 L 471.210938 637.707031 L 462.660156 637.707031 Z M 449.214844 341.316406 L 460.164062 341.316406 L 460.164062 330.367188 L 449.214844 330.367188 Z M 449.164062 329.117188 L 460.210938 329.117188 L 460.210938 318.070312 L 449.164062 318.070312 Z M 449.644531 463.339844 L 459.730469 463.339844 L 459.730469 453.253906 L 449.644531 453.253906 Z M 449.332031 377.929688 L 460.042969 377.929688 L 460.042969 367.222656 L 449.332031 367.222656 Z M 449.308594 365.710938 L 460.066406 365.710938 L 460.066406 354.953125 L 449.308594 354.953125 Z M 449.261719 353.511719 L 460.113281 353.511719 L 460.113281 342.660156 L 449.261719 342.660156 Z M 450.316406 634.105469 L 459.058594 634.105469 L 459.058594 625.367188 L 450.316406 625.367188 Z M 450.078125 573.117188 L 459.296875 573.117188 L 459.296875 563.898438 L 450.078125 563.898438 Z M 450.101562 585.339844 L 459.273438 585.339844 L 459.273438 576.167969 L 450.101562 576.167969 Z M 449.691406 475.535156 L 459.683594 475.535156 L 459.683594 465.546875 L 449.691406 465.546875 Z M 450.246094 621.933594 L 459.128906 621.933594 L 459.128906 613.046875 L 450.246094 613.046875 Z M 450.222656 609.710938 L 459.15625 609.710938 L 459.15625 600.777344 L 450.222656 600.777344 Z M 425.273438 512.203125 L 435.117188 512.203125 L 435.117188 502.355469 L 425.273438 502.355469 Z M 450.03125 560.921875 L 459.347656 560.921875 L 459.347656 551.605469 L 450.03125 551.605469 Z M 449.742188 487.734375 L 459.636719 487.734375 L 459.636719 477.839844 L 449.742188 477.839844 Z M 449.933594 536.523438 L 459.441406 536.523438 L 459.441406 527.015625 L 449.933594 527.015625 Z M 449.789062 499.933594 L 459.585938 499.933594 L 459.585938 490.136719 L 449.789062 490.136719 Z M 449.886719 524.328125 L 459.492188 524.328125 L 459.492188 514.722656 L 449.886719 514.722656 Z M 449.835938 512.128906 L 459.539062 512.128906 L 459.539062 502.429688 L 449.835938 502.429688 Z M 449.574219 438.917969 L 459.804688 438.917969 L 459.804688 428.691406 L 449.574219 428.691406 Z M 474.5 536.453125 L 483.863281 536.453125 L 483.863281 527.089844 L 474.5 527.089844 Z M 474.402344 512.058594 L 483.960938 512.058594 L 483.960938 502.5 L 474.402344 502.5 Z M 474.449219 524.253906 L 483.914062 524.253906 L 483.914062 514.796875 L 474.449219 514.796875 Z M 474.546875 548.652344 L 483.816406 548.652344 L 483.816406 539.382812 L 474.546875 539.382812 Z M 474.691406 585.242188 L 483.671875 585.242188 L 483.671875 576.261719 L 474.691406 576.261719 Z M 474.644531 573.046875 L 483.71875 573.046875 L 483.71875 563.96875 L 474.644531 563.96875 Z M 474.59375 560.847656 L 483.769531 560.847656 L 483.769531 551.675781 L 474.59375 551.675781 Z M 474.355469 499.859375 L 484.007812 499.859375 L 484.007812 490.207031 L 474.355469 490.207031 Z M 474.210938 463.265625 L 484.152344 463.265625 L 484.152344 453.328125 L 474.210938 453.328125 Z M 474.1875 451.046875 L 484.175781 451.046875 L 484.175781 441.054688 L 474.1875 441.054688 Z M 474.28125 475.441406 L 484.082031 475.441406 L 484.082031 465.644531 L 474.28125 465.644531 Z M 474.308594 487.660156 L 484.054688 487.660156 L 484.054688 477.914062 L 474.308594 477.914062 Z M 461.988281 475.488281 L 471.882812 475.488281 L 471.882812 465.597656 L 461.988281 465.597656 Z M 461.890625 451.09375 L 471.976562 451.09375 L 471.976562 441.007812 L 461.890625 441.007812 Z M 462.058594 499.90625 L 471.808594 499.90625 L 471.808594 490.160156 L 462.058594 490.160156 Z M 462.46875 597.464844 L 471.402344 597.464844 L 471.402344 588.53125 L 462.46875 588.53125 Z M 462.179688 524.277344 L 471.691406 524.277344 L 471.691406 514.769531 L 462.179688 514.769531 Z M 462.347656 573.09375 L 471.523438 573.09375 L 471.523438 563.921875 L 462.347656 563.921875 Z M 462.253906 548.699219 L 471.617188 548.699219 L 471.617188 539.335938 L 462.253906 539.335938 Z M 461.628906 377.882812 L 472.242188 377.882812 L 472.242188 367.269531 L 461.628906 367.269531 Z M 461.820312 426.675781 L 472.050781 426.675781 L 472.050781 416.445312 L 461.820312 416.445312 Z M 474.789062 609.640625 L 483.578125 609.640625 L 483.578125 600.851562 L 474.789062 600.851562 Z M 474.835938 621.835938 L 483.527344 621.835938 L 483.527344 613.144531 L 474.835938 613.144531 Z M 461.722656 402.277344 L 472.144531 402.277344 L 472.144531 391.859375 L 461.722656 391.859375 Z M 474.738281 597.441406 L 483.625 597.441406 L 483.625 588.558594 L 474.738281 588.558594 Z M 449.980469 548.722656 L 459.394531 548.722656 L 459.394531 539.308594 L 449.980469 539.308594 Z M 424.527344 304.769531 L 435.863281 304.769531 L 435.863281 293.4375 L 424.527344 293.4375 Z M 424.480469 292.570312 L 435.910156 292.570312 L 435.910156 281.144531 L 424.480469 281.144531 Z M 424.574219 316.96875 L 435.8125 316.96875 L 435.8125 305.730469 L 424.574219 305.730469 Z M 424.429688 280.375 L 435.957031 280.375 L 435.957031 268.847656 L 424.429688 268.847656 Z M 424.648438 341.386719 L 435.742188 341.386719 L 435.742188 330.292969 L 424.648438 330.292969 Z M 424.597656 329.1875 L 435.789062 329.1875 L 435.789062 318 L 424.597656 318 Z M 424.40625 268.152344 L 435.980469 268.152344 L 435.980469 256.578125 L 424.40625 256.578125 Z M 424.261719 231.558594 L 436.125 231.558594 L 436.125 219.699219 L 424.261719 219.699219 Z M 438.480469 743.910156 L 446.402344 743.910156 L 446.402344 735.984375 L 438.480469 735.984375 Z M 438.382812 719.515625 L 446.5 719.515625 L 446.5 711.398438 L 438.382812 711.398438 Z M 424.3125 243.757812 L 436.078125 243.757812 L 436.078125 231.992188 L 424.3125 231.992188 Z M 424.695312 353.585938 L 435.695312 353.585938 L 435.695312 342.585938 L 424.695312 342.585938 Z M 424.359375 255.953125 L 436.03125 255.953125 L 436.03125 244.285156 L 424.359375 244.285156 Z M 424.910156 414.597656 L 435.476562 414.597656 L 435.476562 404.03125 L 424.910156 404.03125 Z M 425.105469 463.386719 L 435.285156 463.386719 L 435.285156 453.207031 L 425.105469 453.207031 Z M 425.128906 475.609375 L 435.261719 475.609375 L 435.261719 465.476562 L 425.128906 465.476562 Z M 425.03125 451.214844 L 435.355469 451.214844 L 435.355469 440.886719 L 425.03125 440.886719 Z M 425.007812 438.992188 L 435.382812 438.992188 L 435.382812 428.617188 L 425.007812 428.617188 Z M 425.175781 487.804688 L 435.214844 487.804688 L 435.214844 477.769531 L 425.175781 477.769531 Z M 425.222656 500.003906 L 435.164062 500.003906 L 435.164062 490.0625 L 425.222656 490.0625 Z M 438.261719 695.140625 L 446.621094 695.140625 L 446.621094 686.785156 L 438.261719 686.785156 Z M 424.960938 426.792969 L 435.429688 426.792969 L 435.429688 416.324219 L 424.960938 416.324219 Z M 424.792969 377.980469 L 435.597656 377.980469 L 435.597656 367.175781 L 424.792969 367.175781 Z M 424.816406 390.199219 L 435.574219 390.199219 L 435.574219 379.445312 L 424.816406 379.445312 Z M 424.71875 365.804688 L 435.667969 365.804688 L 435.667969 354.855469 L 424.71875 354.855469 Z M 424.863281 402.398438 L 435.527344 402.398438 L 435.527344 391.738281 L 424.863281 391.738281 Z M 437.878906 597.5625 L 447.003906 597.5625 L 447.003906 588.4375 L 437.878906 588.4375 Z M 436.894531 329.140625 L 447.988281 329.140625 L 447.988281 318.046875 L 436.894531 318.046875 Z M 438.191406 670.722656 L 446.691406 670.722656 L 446.691406 662.222656 L 438.191406 662.222656 Z M 437.015625 365.757812 L 447.867188 365.757812 L 447.867188 354.90625 L 437.015625 354.90625 Z M 436.964844 353.558594 L 447.917969 353.558594 L 447.917969 342.609375 L 436.964844 342.609375 Z M 437.0625 377.957031 L 447.820312 377.957031 L 447.820312 367.199219 L 437.0625 367.199219 Z M 437.160156 402.351562 L 447.722656 402.351562 L 447.722656 391.785156 L 437.160156 391.785156 Z M 437.183594 414.574219 L 447.699219 414.574219 L 447.699219 404.054688 L 437.183594 404.054688 Z M 436.847656 316.941406 L 448.035156 316.941406 L 448.035156 305.753906 L 436.847656 305.753906 Z M 450.460938 670.699219 L 458.914062 670.699219 L 458.914062 662.246094 L 450.460938 662.246094 Z M 450.507812 682.898438 L 458.867188 682.898438 L 458.867188 674.539062 L 450.507812 674.539062 Z M 436.726562 280.324219 L 448.15625 280.324219 L 448.15625 268.898438 L 436.726562 268.898438 Z M 436.824219 304.722656 L 448.058594 304.722656 L 448.058594 293.484375 L 436.824219 293.484375 Z M 436.941406 341.339844 L 447.941406 341.339844 L 447.941406 330.339844 L 436.941406 330.339844 Z M 437.253906 426.746094 L 447.628906 426.746094 L 447.628906 416.375 L 437.253906 416.375 Z M 450.414062 658.5 L 458.960938 658.5 L 458.960938 649.953125 L 450.414062 649.953125 Z M 437.589844 524.375 L 447.292969 524.375 L 447.292969 514.675781 L 437.589844 514.675781 Z M 437.6875 548.769531 L 447.195312 548.769531 L 447.195312 539.261719 L 437.6875 539.261719 Z M 438.070312 646.351562 L 446.8125 646.351562 L 446.8125 637.613281 L 438.070312 637.613281 Z M 437.976562 621.957031 L 446.90625 621.957031 L 446.90625 613.023438 L 437.976562 613.023438 Z M 437.78125 573.164062 L 447.101562 573.164062 L 447.101562 563.847656 L 437.78125 563.847656 Z M 437.328125 451.164062 L 447.554688 451.164062 L 447.554688 440.9375 L 437.328125 440.9375 Z M 437.566406 512.152344 L 447.316406 512.152344 L 447.316406 502.40625 L 437.566406 502.40625 Z M 437.375 463.363281 L 447.507812 463.363281 L 447.507812 453.230469 L 437.375 453.230469 Z M 437.496094 499.980469 L 447.386719 499.980469 L 447.386719 490.085938 L 437.496094 490.085938 Z M 437.421875 475.5625 L 447.460938 475.5625 L 447.460938 465.523438 L 437.421875 465.523438 Z M 437.421875 475.5625 " fill-opacity="1" fill-rule="nonzero"/></g></svg>