<svg xmlns="http://www.w3.org/2000/svg" xmlns:xlink="http://www.w3.org/1999/xlink" width="1080" zoomAndPan="magnify" viewBox="0 0 810 1012.49997" height="1350" preserveAspectRatio="xMidYMid meet" version="1.0"><defs><clipPath id="9a1df75dde"><path d="M 60 161.277344 L 749.648438 161.277344 L 749.648438 850.9375 L 60 850.9375 Z M 60 161.277344 " clip-rule="nonzero"/></clipPath></defs><g clip-path="url(#9a1df75dde)"><path fill="#23262a" d="M 736.941406 161.34375 L 730.667969 161.34375 L 730.667969 167.625 L 736.941406 167.625 Z M 709.351562 161.34375 L 703.078125 161.34375 L 703.078125 167.625 L 709.351562 167.625 Z M 681.816406 161.289062 L 675.433594 161.289062 L 675.433594 167.679688 L 681.816406 167.679688 Z M 626.640625 161.289062 L 620.257812 161.289062 L 620.257812 167.679688 L 626.640625 167.679688 Z M 599.050781 161.289062 L 592.667969 161.289062 L 592.667969 167.679688 L 599.050781 167.679688 Z M 571.515625 161.277344 L 565.027344 161.277344 L 565.027344 167.730469 L 571.515625 167.730469 Z M 516.394531 161.277344 L 509.792969 161.277344 L 509.792969 167.785156 L 516.394531 167.785156 Z M 488.804688 161.277344 L 482.203125 161.277344 L 482.203125 167.785156 L 488.804688 167.785156 Z M 461.269531 161.277344 L 454.5625 161.277344 L 454.5625 167.839844 L 461.269531 167.839844 Z M 406.199219 161.277344 L 399.273438 161.277344 L 399.273438 167.949219 L 406.199219 167.949219 Z M 378.609375 161.277344 L 371.6875 161.277344 L 371.6875 167.949219 L 378.609375 167.949219 Z M 351.019531 161.277344 L 344.097656 161.277344 L 344.097656 167.949219 L 351.019531 167.949219 Z M 323.484375 161.277344 L 316.453125 161.277344 L 316.453125 168.003906 L 323.484375 168.003906 Z M 295.953125 161.277344 L 288.8125 161.277344 L 288.8125 168.054688 L 295.953125 168.054688 Z M 268.363281 161.277344 L 261.222656 161.277344 L 261.222656 168.054688 L 268.363281 168.054688 Z M 240.773438 161.277344 L 233.632812 161.277344 L 233.632812 168.054688 L 240.773438 168.054688 Z M 213.292969 161.277344 L 205.9375 161.277344 L 205.9375 168.164062 L 213.292969 168.164062 Z M 185.757812 161.277344 L 178.292969 161.277344 L 178.292969 168.21875 L 185.757812 168.21875 Z M 158.117188 161.277344 L 150.757812 161.277344 L 150.757812 168.164062 L 158.117188 168.164062 Z M 130.582031 161.277344 L 123.113281 161.277344 L 123.113281 168.21875 L 130.582031 168.21875 Z M 102.992188 161.277344 L 95.527344 161.277344 L 95.527344 168.21875 L 102.992188 168.21875 Z M 75.402344 161.277344 L 67.9375 161.277344 L 67.9375 168.21875 L 75.402344 168.21875 Z M 736.941406 188.953125 L 730.667969 188.953125 L 730.667969 195.234375 L 736.941406 195.234375 Z M 709.40625 188.902344 L 703.023438 188.902344 L 703.023438 195.289062 L 709.40625 195.289062 Z M 681.816406 188.902344 L 675.433594 188.902344 L 675.433594 195.289062 L 681.816406 195.289062 Z M 654.230469 188.902344 L 647.847656 188.902344 L 647.847656 195.289062 L 654.230469 195.289062 Z M 626.75 188.792969 L 620.148438 188.792969 L 620.148438 195.398438 L 626.75 195.398438 Z M 599.160156 188.792969 L 592.558594 188.792969 L 592.558594 195.398438 L 599.160156 195.398438 Z M 571.625 188.738281 L 564.917969 188.738281 L 564.917969 195.453125 L 571.625 195.453125 Z M 544.035156 188.738281 L 537.328125 188.738281 L 537.328125 195.453125 L 544.035156 195.453125 Z M 516.449219 188.738281 L 509.738281 188.738281 L 509.738281 195.453125 L 516.449219 195.453125 Z M 488.914062 188.683594 L 482.09375 188.683594 L 482.09375 195.507812 L 488.914062 195.507812 Z M 461.378906 188.628906 L 454.453125 188.628906 L 454.453125 195.558594 L 461.378906 195.558594 Z M 433.898438 188.523438 L 426.753906 188.523438 L 426.753906 195.667969 L 433.898438 195.667969 Z M 406.308594 188.523438 L 399.167969 188.523438 L 399.167969 195.667969 L 406.308594 195.667969 Z M 378.71875 188.523438 L 371.578125 188.523438 L 371.578125 195.667969 L 378.71875 195.667969 Z M 351.128906 188.523438 L 343.988281 188.523438 L 343.988281 195.667969 L 351.128906 195.667969 Z M 323.59375 188.46875 L 316.347656 188.46875 L 316.347656 195.722656 L 323.59375 195.722656 Z M 296.003906 188.46875 L 288.757812 188.46875 L 288.757812 195.722656 L 296.003906 195.722656 Z M 268.472656 188.414062 L 261.113281 188.414062 L 261.113281 195.777344 L 268.472656 195.777344 Z M 240.882812 188.414062 L 233.523438 188.414062 L 233.523438 195.777344 L 240.882812 195.777344 Z M 213.402344 188.304688 L 205.828125 188.304688 L 205.828125 195.886719 L 213.402344 195.886719 Z M 185.8125 188.304688 L 178.238281 188.304688 L 178.238281 195.886719 L 185.8125 195.886719 Z M 158.222656 188.304688 L 150.648438 188.304688 L 150.648438 195.886719 L 158.222656 195.886719 Z M 130.632812 188.304688 L 123.0625 188.304688 L 123.0625 195.886719 L 130.632812 195.886719 Z M 103.097656 188.25 L 95.417969 188.25 L 95.417969 195.9375 L 103.097656 195.9375 Z M 75.5625 188.195312 L 67.773438 188.195312 L 67.773438 195.992188 L 75.5625 195.992188 Z M 736.996094 216.511719 L 730.613281 216.511719 L 730.613281 222.902344 L 736.996094 222.902344 Z M 709.460938 216.457031 L 702.96875 216.457031 L 702.96875 222.957031 L 709.460938 222.957031 Z M 681.925781 216.40625 L 675.328125 216.40625 L 675.328125 223.007812 L 681.925781 223.007812 Z M 654.390625 216.351562 L 647.683594 216.351562 L 647.683594 223.0625 L 654.390625 223.0625 Z M 626.800781 216.351562 L 620.09375 216.351562 L 620.09375 223.0625 L 626.800781 223.0625 Z M 599.214844 216.351562 L 592.507812 216.351562 L 592.507812 223.0625 L 599.214844 223.0625 Z M 571.679688 216.296875 L 564.863281 216.296875 L 564.863281 223.117188 L 571.679688 223.117188 Z M 544.144531 216.242188 L 537.21875 216.242188 L 537.21875 223.171875 L 544.144531 223.171875 Z M 516.554688 216.242188 L 509.632812 216.242188 L 509.632812 223.171875 L 516.554688 223.171875 Z M 489.074219 216.132812 L 481.933594 216.132812 L 481.933594 223.28125 L 489.074219 223.28125 Z M 461.539062 216.078125 L 454.289062 216.078125 L 454.289062 223.335938 L 461.539062 223.335938 Z M 434.003906 216.027344 L 426.648438 216.027344 L 426.648438 223.386719 L 434.003906 223.386719 Z M 406.46875 215.972656 L 399.003906 215.972656 L 399.003906 223.441406 L 406.46875 223.441406 Z M 378.828125 216.027344 L 371.46875 216.027344 L 371.46875 223.386719 L 378.828125 223.386719 Z M 351.292969 215.972656 L 343.828125 215.972656 L 343.828125 223.441406 L 351.292969 223.441406 Z M 323.703125 215.972656 L 316.238281 215.972656 L 316.238281 223.441406 L 323.703125 223.441406 Z M 296.167969 215.917969 L 288.59375 215.917969 L 288.59375 223.496094 L 296.167969 223.496094 Z M 268.632812 215.863281 L 260.953125 215.863281 L 260.953125 223.550781 L 268.632812 223.550781 Z M 241.042969 215.863281 L 233.363281 215.863281 L 233.363281 223.550781 L 241.042969 223.550781 Z M 213.507812 215.808594 L 205.71875 215.808594 L 205.71875 223.605469 L 213.507812 223.605469 Z M 185.921875 215.808594 L 178.128906 215.808594 L 178.128906 223.605469 L 185.921875 223.605469 Z M 158.332031 215.808594 L 150.542969 215.808594 L 150.542969 223.605469 L 158.332031 223.605469 Z M 130.742188 215.808594 L 122.953125 215.808594 L 122.953125 223.605469 L 130.742188 223.605469 Z M 103.261719 215.699219 L 95.253906 215.699219 L 95.253906 223.714844 L 103.261719 223.714844 Z M 75.726562 215.644531 L 67.613281 215.644531 L 67.613281 223.769531 L 75.726562 223.769531 Z M 502.921875 229.886719 L 495.675781 229.886719 L 495.675781 237.140625 L 502.921875 237.140625 Z M 392.675781 229.777344 L 385.210938 229.777344 L 385.210938 237.25 L 392.675781 237.25 Z M 282.480469 229.613281 L 274.691406 229.613281 L 274.691406 237.410156 L 282.480469 237.410156 Z M 172.179688 229.5625 L 164.28125 229.5625 L 164.28125 237.464844 L 172.179688 237.464844 Z M 61.933594 229.453125 L 60.09375 229.453125 L 60.09375 237.574219 L 61.933594 237.574219 Z M 737.160156 243.960938 L 730.449219 243.960938 L 730.449219 250.675781 L 737.160156 250.675781 Z M 709.570312 243.960938 L 702.863281 243.960938 L 702.863281 250.675781 L 709.570312 250.675781 Z M 682.035156 243.90625 L 675.21875 243.90625 L 675.21875 250.730469 L 682.035156 250.730469 Z M 654.5 243.855469 L 647.574219 243.855469 L 647.574219 250.785156 L 654.5 250.785156 Z M 626.964844 243.800781 L 619.933594 243.800781 L 619.933594 250.839844 L 626.964844 250.839844 Z M 599.429688 243.746094 L 592.289062 243.746094 L 592.289062 250.890625 L 599.429688 250.890625 Z M 571.839844 243.746094 L 564.699219 243.746094 L 564.699219 250.890625 L 571.839844 250.890625 Z M 544.304688 243.691406 L 537.058594 243.691406 L 537.058594 250.945312 L 544.304688 250.945312 Z M 516.71875 243.691406 L 509.46875 243.691406 L 509.46875 250.945312 L 516.71875 250.945312 Z M 489.183594 243.636719 L 481.824219 243.636719 L 481.824219 251 L 489.183594 251 Z M 461.648438 243.582031 L 454.183594 243.582031 L 454.183594 251.054688 L 461.648438 251.054688 Z M 434.058594 243.582031 L 426.59375 243.582031 L 426.59375 251.054688 L 434.058594 251.054688 Z M 406.46875 243.582031 L 399.003906 243.582031 L 399.003906 251.054688 L 406.46875 251.054688 Z M 379.042969 243.421875 L 371.253906 243.421875 L 371.253906 251.21875 L 379.042969 251.21875 Z M 351.453125 243.421875 L 343.664062 243.421875 L 343.664062 251.21875 L 351.453125 251.21875 Z M 323.863281 243.421875 L 316.074219 243.421875 L 316.074219 251.21875 L 323.863281 251.21875 Z M 296.277344 243.421875 L 288.488281 243.421875 L 288.488281 251.21875 L 296.277344 251.21875 Z M 268.6875 243.421875 L 260.898438 243.421875 L 260.898438 251.21875 L 268.6875 251.21875 Z M 241.152344 243.367188 L 233.253906 243.367188 L 233.253906 251.269531 L 241.152344 251.269531 Z M 213.5625 243.367188 L 205.664062 243.367188 L 205.664062 251.269531 L 213.5625 251.269531 Z M 186.027344 243.3125 L 178.023438 243.3125 L 178.023438 251.324219 L 186.027344 251.324219 Z M 158.441406 243.3125 L 150.433594 243.3125 L 150.433594 251.324219 L 158.441406 251.324219 Z M 130.90625 243.257812 L 122.789062 243.257812 L 122.789062 251.378906 L 130.90625 251.378906 Z M 103.316406 243.257812 L 95.203125 243.257812 L 95.203125 251.378906 L 103.316406 251.378906 Z M 75.726562 243.257812 L 67.613281 243.257812 L 67.613281 251.378906 L 75.726562 251.378906 Z M 737.210938 271.519531 L 730.398438 271.519531 L 730.398438 278.34375 L 737.210938 278.34375 Z M 709.625 271.519531 L 702.808594 271.519531 L 702.808594 278.34375 L 709.625 278.34375 Z M 682.089844 271.464844 L 675.164062 271.464844 L 675.164062 278.394531 L 682.089844 278.394531 Z M 654.609375 271.359375 L 647.46875 271.359375 L 647.46875 278.503906 L 654.609375 278.503906 Z M 627.074219 271.304688 L 619.824219 271.304688 L 619.824219 278.558594 L 627.074219 278.558594 Z M 599.59375 271.195312 L 592.128906 271.195312 L 592.128906 278.667969 L 599.59375 278.667969 Z M 572.003906 271.195312 L 564.539062 271.195312 L 564.539062 278.667969 L 572.003906 278.667969 Z M 544.414062 271.195312 L 536.949219 271.195312 L 536.949219 278.667969 L 544.414062 278.667969 Z M 516.878906 271.140625 L 509.304688 271.140625 L 509.304688 278.722656 L 516.878906 278.722656 Z M 489.292969 271.140625 L 481.71875 271.140625 L 481.71875 278.722656 L 489.292969 278.722656 Z M 461.808594 271.03125 L 454.019531 271.03125 L 454.019531 278.828125 L 461.808594 278.828125 Z M 434.222656 271.03125 L 426.429688 271.03125 L 426.429688 278.828125 L 434.222656 278.828125 Z M 406.632812 271.03125 L 398.839844 271.03125 L 398.839844 278.828125 L 406.632812 278.828125 Z M 379.152344 270.925781 L 371.144531 270.925781 L 371.144531 278.9375 L 379.152344 278.9375 Z M 351.617188 270.871094 L 343.5 270.871094 L 343.5 278.992188 L 351.617188 278.992188 Z M 324.027344 270.871094 L 315.914062 270.871094 L 315.914062 278.992188 L 324.027344 278.992188 Z M 296.4375 270.871094 L 288.324219 270.871094 L 288.324219 278.992188 L 296.4375 278.992188 Z M 268.851562 270.871094 L 260.734375 270.871094 L 260.734375 278.992188 L 268.851562 278.992188 Z M 241.261719 270.871094 L 233.144531 270.871094 L 233.144531 278.992188 L 241.261719 278.992188 Z M 213.671875 270.871094 L 205.558594 270.871094 L 205.558594 278.992188 L 213.671875 278.992188 Z M 186.191406 270.761719 L 177.859375 270.761719 L 177.859375 279.097656 L 186.191406 279.097656 Z M 158.601562 270.761719 L 150.273438 270.761719 L 150.273438 279.097656 L 158.601562 279.097656 Z M 131.066406 270.707031 L 122.628906 270.707031 L 122.628906 279.152344 L 131.066406 279.152344 Z M 103.53125 270.652344 L 94.984375 270.652344 L 94.984375 279.207031 L 103.53125 279.207031 Z M 75.941406 270.652344 L 67.394531 270.652344 L 67.394531 279.207031 L 75.941406 279.207031 Z M 558.316406 284.894531 L 550.636719 284.894531 L 550.636719 292.582031 L 558.316406 292.582031 Z M 448.070312 284.785156 L 440.171875 284.785156 L 440.171875 292.6875 L 448.070312 292.6875 Z M 392.945312 284.730469 L 384.941406 284.730469 L 384.941406 292.742188 L 392.945312 292.742188 Z M 337.875 284.621094 L 329.652344 284.621094 L 329.652344 292.851562 L 337.875 292.851562 Z M 282.699219 284.621094 L 274.476562 284.621094 L 274.476562 292.851562 L 282.699219 292.851562 Z M 227.628906 284.515625 L 219.1875 284.515625 L 219.1875 292.960938 L 227.628906 292.960938 Z M 172.449219 284.515625 L 164.011719 284.515625 L 164.011719 292.960938 L 172.449219 292.960938 Z M 117.378906 284.40625 L 108.726562 284.40625 L 108.726562 293.066406 L 117.378906 293.066406 Z M 62.257812 284.351562 L 60.09375 284.351562 L 60.09375 293.121094 L 62.257812 293.121094 Z M 737.375 298.96875 L 730.234375 298.96875 L 730.234375 306.117188 L 737.375 306.117188 Z M 709.785156 298.96875 L 702.644531 298.96875 L 702.644531 306.117188 L 709.785156 306.117188 Z M 682.359375 298.808594 L 674.894531 298.808594 L 674.894531 306.277344 L 682.359375 306.277344 Z M 654.769531 298.808594 L 647.304688 298.808594 L 647.304688 306.277344 L 654.769531 306.277344 Z M 627.179688 298.808594 L 619.714844 298.808594 L 619.714844 306.277344 L 627.179688 306.277344 Z M 599.753906 298.644531 L 591.964844 298.644531 L 591.964844 306.441406 L 599.753906 306.441406 Z M 572.167969 298.644531 L 564.375 298.644531 L 564.375 306.441406 L 572.167969 306.441406 Z M 544.578125 298.644531 L 536.789062 298.644531 L 536.789062 306.441406 L 544.578125 306.441406 Z M 517.097656 298.535156 L 509.089844 298.535156 L 509.089844 306.550781 L 517.097656 306.550781 Z M 489.507812 298.535156 L 481.5 298.535156 L 481.5 306.550781 L 489.507812 306.550781 Z M 461.972656 298.480469 L 453.859375 298.480469 L 453.859375 306.605469 L 461.972656 306.605469 Z M 434.382812 298.480469 L 426.269531 298.480469 L 426.269531 306.605469 L 434.382812 306.605469 Z M 406.792969 298.480469 L 398.679688 298.480469 L 398.679688 306.605469 L 406.792969 306.605469 Z M 379.3125 298.375 L 370.984375 298.375 L 370.984375 306.710938 L 379.3125 306.710938 Z M 351.722656 298.375 L 343.394531 298.375 L 343.394531 306.710938 L 351.722656 306.710938 Z M 324.136719 298.375 L 315.804688 298.375 L 315.804688 306.710938 L 324.136719 306.710938 Z M 296.601562 298.320312 L 288.160156 298.320312 L 288.160156 306.765625 L 296.601562 306.765625 Z M 269.011719 298.320312 L 260.574219 298.320312 L 260.574219 306.765625 L 269.011719 306.765625 Z M 241.476562 298.265625 L 232.929688 298.265625 L 232.929688 306.820312 L 241.476562 306.820312 Z M 213.886719 298.265625 L 205.339844 298.265625 L 205.339844 306.820312 L 213.886719 306.820312 Z M 186.351562 298.210938 L 177.699219 298.210938 L 177.699219 306.875 L 186.351562 306.875 Z M 158.765625 298.210938 L 150.109375 298.210938 L 150.109375 306.875 L 158.765625 306.875 Z M 131.230469 298.15625 L 122.464844 298.15625 L 122.464844 306.929688 L 131.230469 306.929688 Z M 103.640625 298.15625 L 94.875 298.15625 L 94.875 306.929688 L 103.640625 306.929688 Z M 76.050781 298.15625 L 67.289062 298.15625 L 67.289062 306.929688 L 76.050781 306.929688 Z M 737.535156 326.417969 L 730.070312 326.417969 L 730.070312 333.890625 L 737.535156 333.890625 Z M 710.003906 326.363281 L 702.429688 326.363281 L 702.429688 333.945312 L 710.003906 333.945312 Z M 682.46875 326.3125 L 674.785156 326.3125 L 674.785156 334 L 682.46875 334 Z M 654.933594 326.257812 L 647.144531 326.257812 L 647.144531 334.050781 L 654.933594 334.050781 Z M 627.398438 326.203125 L 619.5 326.203125 L 619.5 334.105469 L 627.398438 334.105469 Z M 599.917969 326.09375 L 591.804688 326.09375 L 591.804688 334.214844 L 599.917969 334.214844 Z M 572.328125 326.09375 L 564.214844 326.09375 L 564.214844 334.214844 L 572.328125 334.214844 Z M 544.738281 326.09375 L 536.625 326.09375 L 536.625 334.214844 L 544.738281 334.214844 Z M 517.203125 326.039062 L 508.980469 326.039062 L 508.980469 334.269531 L 517.203125 334.269531 Z M 489.667969 325.984375 L 481.339844 325.984375 L 481.339844 334.324219 L 489.667969 334.324219 Z M 462.082031 325.984375 L 453.75 325.984375 L 453.75 334.324219 L 462.082031 334.324219 Z M 434.546875 325.933594 L 426.105469 325.933594 L 426.105469 334.378906 L 434.546875 334.378906 Z M 406.957031 325.933594 L 398.515625 325.933594 L 398.515625 334.378906 L 406.957031 334.378906 Z M 379.476562 325.824219 L 370.820312 325.824219 L 370.820312 334.484375 L 379.476562 334.484375 Z M 351.832031 325.878906 L 343.285156 325.878906 L 343.285156 334.433594 L 351.832031 334.433594 Z M 324.242188 325.878906 L 315.695312 325.878906 L 315.695312 334.433594 L 324.242188 334.433594 Z M 296.761719 325.769531 L 288 325.769531 L 288 334.539062 L 296.761719 334.539062 Z M 269.175781 325.769531 L 260.410156 325.769531 L 260.410156 334.539062 L 269.175781 334.539062 Z M 241.585938 325.769531 L 232.820312 325.769531 L 232.820312 334.539062 L 241.585938 334.539062 Z M 214.050781 325.714844 L 205.179688 325.714844 L 205.179688 334.59375 L 214.050781 334.59375 Z M 186.460938 325.714844 L 177.589844 325.714844 L 177.589844 334.59375 L 186.460938 334.59375 Z M 158.925781 325.660156 L 149.945312 325.660156 L 149.945312 334.648438 L 158.925781 334.648438 Z M 131.390625 325.605469 L 122.304688 325.605469 L 122.304688 334.703125 L 131.390625 334.703125 Z M 103.800781 325.605469 L 94.714844 325.605469 L 94.714844 334.703125 L 103.800781 334.703125 Z M 76.265625 325.554688 L 67.070312 325.554688 L 67.070312 334.757812 L 76.265625 334.757812 Z M 723.90625 340.0625 L 716.117188 340.0625 L 716.117188 347.859375 L 723.90625 347.859375 Z M 613.710938 339.898438 L 605.597656 339.898438 L 605.597656 348.023438 L 613.710938 348.023438 Z M 503.519531 339.738281 L 495.078125 339.738281 L 495.078125 348.183594 L 503.519531 348.183594 Z M 448.394531 339.683594 L 439.847656 339.683594 L 439.847656 348.238281 L 448.394531 348.238281 Z M 393.214844 339.683594 L 384.667969 339.683594 L 384.667969 348.238281 L 393.214844 348.238281 Z M 338.144531 339.574219 L 329.382812 339.574219 L 329.382812 348.347656 L 338.144531 348.347656 Z M 283.023438 339.519531 L 274.152344 339.519531 L 274.152344 348.398438 L 283.023438 348.398438 Z M 227.898438 339.46875 L 218.917969 339.46875 L 218.917969 348.453125 L 227.898438 348.453125 Z M 172.773438 339.414062 L 163.6875 339.414062 L 163.6875 348.507812 L 172.773438 348.507812 Z M 117.707031 339.304688 L 108.402344 339.304688 L 108.402344 348.617188 L 117.707031 348.617188 Z M 62.582031 339.25 L 60.09375 339.25 L 60.09375 348.671875 L 62.582031 348.671875 Z M 737.753906 353.816406 L 729.855469 353.816406 L 729.855469 361.71875 L 737.753906 361.71875 Z M 710.21875 353.761719 L 702.210938 353.761719 L 702.210938 361.773438 L 710.21875 361.773438 Z M 682.683594 353.707031 L 674.570312 353.707031 L 674.570312 361.828125 L 682.683594 361.828125 Z M 655.148438 353.652344 L 646.925781 353.652344 L 646.925781 361.882812 L 655.148438 361.882812 Z M 627.667969 353.542969 L 619.230469 353.542969 L 619.230469 361.988281 L 627.667969 361.988281 Z M 599.972656 353.652344 L 591.75 353.652344 L 591.75 361.882812 L 599.972656 361.882812 Z M 572.4375 353.597656 L 564.105469 353.597656 L 564.105469 361.933594 L 572.4375 361.933594 Z M 544.902344 353.542969 L 536.460938 353.542969 L 536.460938 361.988281 L 544.902344 361.988281 Z M 517.3125 353.542969 L 508.875 353.542969 L 508.875 361.988281 L 517.3125 361.988281 Z M 489.722656 353.542969 L 481.285156 353.542969 L 481.285156 361.988281 L 489.722656 361.988281 Z M 462.1875 353.488281 L 453.640625 353.488281 L 453.640625 362.042969 L 462.1875 362.042969 Z M 434.652344 353.433594 L 426 353.433594 L 426 362.097656 L 434.652344 362.097656 Z M 407.117188 353.382812 L 398.355469 353.382812 L 398.355469 362.152344 L 407.117188 362.152344 Z M 379.53125 353.382812 L 370.765625 353.382812 L 370.765625 362.152344 L 379.53125 362.152344 Z M 351.996094 353.328125 L 343.121094 353.328125 L 343.121094 362.207031 L 351.996094 362.207031 Z M 324.460938 353.273438 L 315.480469 353.273438 L 315.480469 362.261719 L 324.460938 362.261719 Z M 296.871094 353.273438 L 287.890625 353.273438 L 287.890625 362.261719 L 296.871094 362.261719 Z M 269.335938 353.21875 L 260.25 353.21875 L 260.25 362.316406 L 269.335938 362.316406 Z M 241.855469 353.109375 L 232.550781 353.109375 L 232.550781 362.421875 L 241.855469 362.421875 Z M 214.265625 353.109375 L 204.960938 353.109375 L 204.960938 362.421875 L 214.265625 362.421875 Z M 186.730469 353.054688 L 177.320312 353.054688 L 177.320312 362.476562 L 186.730469 362.476562 Z M 159.195312 353 L 149.675781 353 L 149.675781 362.53125 L 159.195312 362.53125 Z M 131.609375 353 L 122.085938 353 L 122.085938 362.53125 L 131.609375 362.53125 Z M 104.074219 352.949219 L 94.445312 352.949219 L 94.445312 362.585938 L 104.074219 362.585938 Z M 76.484375 352.949219 L 66.855469 352.949219 L 66.855469 362.585938 L 76.484375 362.585938 Z M 476.144531 367.132812 L 467.273438 367.132812 L 467.273438 376.011719 L 476.144531 376.011719 Z M 365.898438 367.023438 L 356.808594 367.023438 L 356.808594 376.121094 L 365.898438 376.121094 Z M 255.703125 366.863281 L 246.292969 366.863281 L 246.292969 376.28125 L 255.703125 376.28125 Z M 145.511719 366.699219 L 135.773438 366.699219 L 135.773438 376.445312 L 145.511719 376.445312 Z M 737.863281 381.316406 L 729.746094 381.316406 L 729.746094 389.441406 L 737.863281 389.441406 Z M 710.328125 381.261719 L 702.105469 381.261719 L 702.105469 389.492188 L 710.328125 389.492188 Z M 682.792969 381.210938 L 674.460938 381.210938 L 674.460938 389.546875 L 682.792969 389.546875 Z M 655.257812 381.15625 L 646.816406 381.15625 L 646.816406 389.601562 L 655.257812 389.601562 Z M 627.777344 381.046875 L 619.121094 381.046875 L 619.121094 389.710938 L 627.777344 389.710938 Z M 600.242188 380.992188 L 591.476562 380.992188 L 591.476562 389.765625 L 600.242188 389.765625 Z M 572.707031 380.9375 L 563.835938 380.9375 L 563.835938 389.816406 L 572.707031 389.816406 Z M 545.117188 380.9375 L 536.246094 380.9375 L 536.246094 389.816406 L 545.117188 389.816406 Z M 517.582031 380.886719 L 508.605469 380.886719 L 508.605469 389.871094 L 517.582031 389.871094 Z M 490.046875 380.832031 L 480.960938 380.832031 L 480.960938 389.925781 L 490.046875 389.925781 Z M 462.457031 380.832031 L 453.371094 380.832031 L 453.371094 389.925781 L 462.457031 389.925781 Z M 434.871094 380.832031 L 425.78125 380.832031 L 425.78125 389.925781 L 434.871094 389.925781 Z M 407.28125 380.832031 L 398.191406 380.832031 L 398.191406 389.925781 L 407.28125 389.925781 Z M 379.746094 380.777344 L 370.550781 380.777344 L 370.550781 389.980469 L 379.746094 389.980469 Z M 352.210938 380.722656 L 342.90625 380.722656 L 342.90625 390.035156 L 352.210938 390.035156 Z M 324.621094 380.722656 L 315.316406 380.722656 L 315.316406 390.035156 L 324.621094 390.035156 Z M 297.140625 380.613281 L 287.621094 380.613281 L 287.621094 390.144531 L 297.140625 390.144531 Z M 269.554688 380.613281 L 260.03125 380.613281 L 260.03125 390.144531 L 269.554688 390.144531 Z M 242.019531 380.558594 L 232.390625 380.558594 L 232.390625 390.195312 L 242.019531 390.195312 Z M 214.484375 380.507812 L 204.746094 380.507812 L 204.746094 390.25 L 214.484375 390.25 Z M 186.894531 380.507812 L 177.15625 380.507812 L 177.15625 390.25 L 186.894531 390.25 Z M 159.414062 380.398438 L 149.460938 380.398438 L 149.460938 390.359375 L 159.414062 390.359375 Z M 131.824219 380.398438 L 121.871094 380.398438 L 121.871094 390.359375 L 131.824219 390.359375 Z M 104.234375 380.398438 L 94.28125 380.398438 L 94.28125 390.359375 L 104.234375 390.359375 Z M 76.644531 380.398438 L 66.691406 380.398438 L 66.691406 390.359375 L 76.644531 390.359375 Z M 724.175781 395.015625 L 715.84375 395.015625 L 715.84375 403.351562 L 724.175781 403.351562 Z M 669.160156 394.851562 L 660.503906 394.851562 L 660.503906 403.515625 L 669.160156 403.515625 Z M 614.144531 394.691406 L 605.164062 394.691406 L 605.164062 403.679688 L 614.144531 403.679688 Z M 559.019531 394.636719 L 549.933594 394.636719 L 549.933594 403.734375 L 559.019531 403.734375 Z M 503.84375 394.636719 L 494.753906 394.636719 L 494.753906 403.734375 L 503.84375 403.734375 Z M 448.71875 394.582031 L 439.523438 394.582031 L 439.523438 403.785156 L 448.71875 403.785156 Z M 393.703125 394.417969 L 384.183594 394.417969 L 384.183594 403.949219 L 393.703125 403.949219 Z M 338.578125 394.367188 L 328.949219 394.367188 L 328.949219 404.003906 L 338.578125 404.003906 Z M 283.457031 394.3125 L 273.71875 394.3125 L 273.71875 404.058594 L 283.457031 404.058594 Z M 228.332031 394.257812 L 218.488281 394.257812 L 218.488281 404.113281 L 228.332031 404.113281 Z M 173.207031 394.203125 L 163.253906 394.203125 L 163.253906 404.167969 L 173.207031 404.167969 Z M 118.085938 394.148438 L 108.023438 394.148438 L 108.023438 404.21875 L 118.085938 404.21875 Z M 63.015625 394.042969 L 60.09375 394.042969 L 60.09375 404.328125 L 63.015625 404.328125 Z M 738.023438 408.769531 L 729.585938 408.769531 L 729.585938 417.214844 L 738.023438 417.214844 Z M 710.542969 408.660156 L 701.886719 408.660156 L 701.886719 417.320312 L 710.542969 417.320312 Z M 683.007812 408.605469 L 674.246094 408.605469 L 674.246094 417.375 L 683.007812 417.375 Z M 655.472656 408.550781 L 646.601562 408.550781 L 646.601562 417.429688 L 655.472656 417.429688 Z M 627.9375 408.496094 L 618.957031 408.496094 L 618.957031 417.484375 L 627.9375 417.484375 Z M 600.457031 408.390625 L 591.261719 408.390625 L 591.261719 417.59375 L 600.457031 417.59375 Z M 572.871094 408.390625 L 563.671875 408.390625 L 563.671875 417.59375 L 572.871094 417.59375 Z M 545.335938 408.335938 L 536.03125 408.335938 L 536.03125 417.648438 L 545.335938 417.648438 Z M 517.746094 408.335938 L 508.441406 408.335938 L 508.441406 417.648438 L 517.746094 417.648438 Z M 490.210938 408.28125 L 480.796875 408.28125 L 480.796875 417.699219 L 490.210938 417.699219 Z M 462.675781 408.226562 L 453.15625 408.226562 L 453.15625 417.753906 L 462.675781 417.753906 Z M 435.140625 408.171875 L 425.511719 408.171875 L 425.511719 417.808594 L 435.140625 417.808594 Z M 407.550781 408.171875 L 397.921875 408.171875 L 397.921875 417.808594 L 407.550781 417.808594 Z M 380.015625 408.117188 L 370.28125 408.117188 L 370.28125 417.863281 L 380.015625 417.863281 Z M 352.429688 408.117188 L 342.691406 408.117188 L 342.691406 417.863281 L 352.429688 417.863281 Z M 324.894531 408.0625 L 315.046875 408.0625 L 315.046875 417.917969 L 324.894531 417.917969 Z M 297.304688 408.0625 L 287.457031 408.0625 L 287.457031 417.917969 L 297.304688 417.917969 Z M 269.769531 408.007812 L 259.816406 408.007812 L 259.816406 417.972656 L 269.769531 417.972656 Z M 242.234375 407.957031 L 232.171875 407.957031 L 232.171875 418.023438 L 242.234375 418.023438 Z M 214.644531 407.957031 L 204.582031 407.957031 L 204.582031 418.023438 L 214.644531 418.023438 Z M 187.054688 407.957031 L 176.996094 407.957031 L 176.996094 418.023438 L 187.054688 418.023438 Z M 159.628906 407.792969 L 149.242188 407.792969 L 149.242188 418.1875 L 159.628906 418.1875 Z M 132.039062 407.792969 L 121.65625 407.792969 L 121.65625 418.1875 L 132.039062 418.1875 Z M 104.398438 407.847656 L 94.121094 407.847656 L 94.121094 418.132812 L 104.398438 418.132812 Z M 76.808594 407.847656 L 66.53125 407.847656 L 66.53125 418.132812 L 76.808594 418.132812 Z M 476.578125 421.925781 L 466.839844 421.925781 L 466.839844 431.667969 L 476.578125 431.667969 Z M 421.398438 421.925781 L 411.664062 421.925781 L 411.664062 431.667969 L 421.398438 431.667969 Z M 366.332031 421.816406 L 356.378906 421.816406 L 356.378906 431.777344 L 366.332031 431.777344 Z M 311.207031 421.761719 L 301.144531 421.761719 L 301.144531 431.832031 L 311.207031 431.832031 Z M 256.082031 421.707031 L 245.914062 421.707031 L 245.914062 431.886719 L 256.082031 431.886719 Z M 200.960938 421.652344 L 190.679688 421.652344 L 190.679688 431.941406 L 200.960938 431.941406 Z M 145.890625 421.542969 L 135.394531 421.542969 L 135.394531 432.046875 L 145.890625 432.046875 Z M 90.765625 421.492188 L 80.164062 421.492188 L 80.164062 432.101562 L 90.765625 432.101562 Z M 738.1875 436.21875 L 729.421875 436.21875 L 729.421875 444.988281 L 738.1875 444.988281 Z M 710.707031 436.109375 L 701.726562 436.109375 L 701.726562 445.097656 L 710.707031 445.097656 Z M 683.171875 436.054688 L 674.082031 436.054688 L 674.082031 445.148438 L 683.171875 445.148438 Z M 655.636719 436 L 646.4375 436 L 646.4375 445.203125 L 655.636719 445.203125 Z M 628.101562 435.945312 L 618.796875 435.945312 L 618.796875 445.257812 L 628.101562 445.257812 Z M 600.621094 435.835938 L 591.097656 435.835938 L 591.097656 445.367188 L 600.621094 445.367188 Z M 573.140625 435.730469 L 563.402344 435.730469 L 563.402344 445.476562 L 573.140625 445.476562 Z M 545.550781 435.730469 L 535.8125 435.730469 L 535.8125 445.476562 L 545.550781 445.476562 Z M 517.960938 435.730469 L 508.222656 435.730469 L 508.222656 445.476562 L 517.960938 445.476562 Z M 490.425781 435.675781 L 480.582031 435.675781 L 480.582031 445.53125 L 490.425781 445.53125 Z M 462.890625 435.621094 L 452.9375 435.621094 L 452.9375 445.582031 L 462.890625 445.582031 Z M 435.355469 435.566406 L 425.296875 435.566406 L 425.296875 445.636719 L 435.355469 445.636719 Z M 407.769531 435.566406 L 397.707031 435.566406 L 397.707031 445.636719 L 407.769531 445.636719 Z M 380.234375 435.511719 L 370.0625 435.511719 L 370.0625 445.691406 L 380.234375 445.691406 Z M 352.699219 435.460938 L 342.417969 435.460938 L 342.417969 445.746094 L 352.699219 445.746094 Z M 325.164062 435.40625 L 314.777344 435.40625 L 314.777344 445.800781 L 325.164062 445.800781 Z M 297.574219 435.40625 L 287.1875 435.40625 L 287.1875 445.800781 L 297.574219 445.800781 Z M 269.984375 435.40625 L 259.597656 435.40625 L 259.597656 445.800781 L 269.984375 445.800781 Z M 242.449219 435.351562 L 231.957031 435.351562 L 231.957031 445.855469 L 242.449219 445.855469 Z M 214.863281 435.351562 L 204.367188 435.351562 L 204.367188 445.855469 L 214.863281 445.855469 Z M 187.328125 435.296875 L 176.722656 435.296875 L 176.722656 445.910156 L 187.328125 445.910156 Z M 159.792969 435.242188 L 149.082031 435.242188 L 149.082031 445.960938 L 159.792969 445.960938 Z M 132.148438 435.296875 L 121.546875 435.296875 L 121.546875 445.910156 L 132.148438 445.910156 Z M 104.613281 435.242188 L 93.902344 435.242188 L 93.902344 445.960938 L 104.613281 445.960938 Z M 77.023438 435.242188 L 66.3125 435.242188 L 66.3125 445.960938 L 77.023438 445.960938 Z M 724.554688 449.859375 L 715.464844 449.859375 L 715.464844 458.957031 L 724.554688 458.957031 Z M 669.539062 449.699219 L 660.125 449.699219 L 660.125 459.117188 L 669.539062 459.117188 Z M 614.46875 449.589844 L 604.839844 449.589844 L 604.839844 459.226562 L 614.46875 459.226562 Z M 559.398438 449.480469 L 549.554688 449.480469 L 549.554688 459.335938 L 559.398438 459.335938 Z M 504.277344 449.425781 L 494.320312 449.425781 L 494.320312 459.390625 L 504.277344 459.390625 Z M 449.152344 449.375 L 439.089844 449.375 L 439.089844 459.445312 L 449.152344 459.445312 Z M 394.027344 449.320312 L 383.859375 449.320312 L 383.859375 459.496094 L 394.027344 459.496094 Z M 338.957031 449.210938 L 328.570312 449.210938 L 328.570312 459.605469 L 338.957031 459.605469 Z M 283.78125 449.210938 L 273.394531 449.210938 L 273.394531 459.605469 L 283.78125 459.605469 Z M 228.765625 449.046875 L 218.054688 449.046875 L 218.054688 459.769531 L 228.765625 459.769531 Z M 173.75 448.886719 L 162.714844 448.886719 L 162.714844 459.929688 L 173.75 459.929688 Z M 118.460938 448.992188 L 107.644531 448.992188 L 107.644531 459.824219 L 118.460938 459.824219 Z M 63.285156 448.992188 L 60.09375 448.992188 L 60.09375 459.824219 L 63.285156 459.824219 Z M 738.347656 463.667969 L 729.261719 463.667969 L 729.261719 472.761719 L 738.347656 472.761719 Z M 710.867188 463.558594 L 701.5625 463.558594 L 701.5625 472.871094 L 710.867188 472.871094 Z M 683.332031 463.503906 L 673.921875 463.503906 L 673.921875 472.925781 L 683.332031 472.925781 Z M 655.796875 463.449219 L 646.277344 463.449219 L 646.277344 472.980469 L 655.796875 472.980469 Z M 628.316406 463.34375 L 618.578125 463.34375 L 618.578125 473.085938 L 628.316406 473.085938 Z M 600.890625 463.179688 L 590.828125 463.179688 L 590.828125 473.25 L 600.890625 473.25 Z M 573.300781 463.179688 L 563.238281 463.179688 L 563.238281 473.25 L 573.300781 473.25 Z M 545.765625 463.125 L 535.597656 463.125 L 535.597656 473.304688 L 545.765625 473.304688 Z M 518.175781 463.125 L 508.007812 463.125 L 508.007812 473.304688 L 518.175781 473.304688 Z M 490.644531 463.070312 L 480.363281 463.070312 L 480.363281 473.359375 L 490.644531 473.359375 Z M 463.109375 463.015625 L 452.722656 463.015625 L 452.722656 473.414062 L 463.109375 473.414062 Z M 435.519531 463.015625 L 425.132812 463.015625 L 425.132812 473.414062 L 435.519531 473.414062 Z M 407.984375 462.960938 L 397.488281 462.960938 L 397.488281 473.464844 L 407.984375 473.464844 Z M 380.558594 462.800781 L 369.738281 462.800781 L 369.738281 473.628906 L 380.558594 473.628906 Z M 352.96875 462.800781 L 342.148438 462.800781 L 342.148438 473.628906 L 352.96875 473.628906 Z M 325.433594 462.746094 L 314.507812 462.746094 L 314.507812 473.683594 L 325.433594 473.683594 Z M 297.84375 462.746094 L 286.917969 462.746094 L 286.917969 473.683594 L 297.84375 473.683594 Z M 270.257812 462.746094 L 259.328125 462.746094 L 259.328125 473.683594 L 270.257812 473.683594 Z M 242.667969 462.746094 L 231.738281 462.746094 L 231.738281 473.683594 L 242.667969 473.683594 Z M 215.132812 462.691406 L 204.097656 462.691406 L 204.097656 473.738281 L 215.132812 473.738281 Z M 187.542969 462.691406 L 176.507812 462.691406 L 176.507812 473.738281 L 187.542969 473.738281 Z M 160.0625 462.582031 L 148.808594 462.582031 L 148.808594 473.84375 L 160.0625 473.84375 Z M 132.472656 462.582031 L 121.222656 462.582031 L 121.222656 473.84375 L 132.472656 473.84375 Z M 104.882812 462.582031 L 93.632812 462.582031 L 93.632812 473.84375 L 104.882812 473.84375 Z M 77.296875 462.582031 L 66.042969 462.582031 L 66.042969 473.84375 L 77.296875 473.84375 Z M 697.289062 477.148438 L 687.554688 477.148438 L 687.554688 486.894531 L 697.289062 486.894531 Z M 587.203125 476.878906 L 576.925781 476.878906 L 576.925781 487.164062 L 587.203125 487.164062 Z M 532.082031 476.824219 L 521.695312 476.824219 L 521.695312 487.21875 L 532.082031 487.21875 Z M 476.957031 476.769531 L 466.460938 476.769531 L 466.460938 487.273438 L 476.957031 487.273438 Z M 421.886719 476.660156 L 411.175781 476.660156 L 411.175781 487.378906 L 421.886719 487.378906 Z M 394.460938 476.5 L 383.425781 476.5 L 383.425781 487.542969 L 394.460938 487.542969 Z M 366.871094 476.5 L 355.835938 476.5 L 355.835938 487.542969 L 366.871094 487.542969 Z M 311.746094 476.445312 L 300.605469 476.445312 L 300.605469 487.597656 L 311.746094 487.597656 Z M 284.160156 476.445312 L 273.015625 476.445312 L 273.015625 487.597656 L 284.160156 487.597656 Z M 256.570312 476.445312 L 245.425781 476.445312 L 245.425781 487.597656 L 256.570312 487.597656 Z M 201.445312 476.390625 L 190.195312 476.390625 L 190.195312 487.652344 L 201.445312 487.652344 Z M 173.964844 476.28125 L 162.496094 476.28125 L 162.496094 487.757812 L 173.964844 487.757812 Z M 146.375 476.28125 L 134.90625 476.28125 L 134.90625 487.757812 L 146.375 487.757812 Z M 91.199219 476.28125 L 79.730469 476.28125 L 79.730469 487.757812 L 91.199219 487.757812 Z M 63.554688 476.335938 L 60.09375 476.335938 L 60.09375 487.703125 L 63.554688 487.703125 Z M 738.617188 491.007812 L 728.988281 491.007812 L 728.988281 500.644531 L 738.617188 500.644531 Z M 711.136719 490.898438 L 701.292969 490.898438 L 701.292969 500.753906 L 711.136719 500.753906 Z M 683.605469 490.84375 L 673.648438 490.84375 L 673.648438 500.808594 L 683.605469 500.808594 Z M 656.070312 490.792969 L 646.007812 490.792969 L 646.007812 500.859375 L 656.070312 500.859375 Z M 628.535156 490.738281 L 618.363281 490.738281 L 618.363281 500.914062 L 628.535156 500.914062 Z M 601.054688 490.628906 L 590.667969 490.628906 L 590.667969 501.023438 L 601.054688 501.023438 Z M 573.519531 490.574219 L 563.023438 490.574219 L 563.023438 501.078125 L 573.519531 501.078125 Z M 545.984375 490.519531 L 535.378906 490.519531 L 535.378906 501.132812 L 545.984375 501.132812 Z M 518.449219 490.464844 L 507.738281 490.464844 L 507.738281 501.1875 L 518.449219 501.1875 Z M 490.859375 490.464844 L 480.148438 490.464844 L 480.148438 501.1875 L 490.859375 501.1875 Z M 463.269531 490.464844 L 452.558594 490.464844 L 452.558594 501.1875 L 463.269531 501.1875 Z M 435.734375 490.414062 L 424.917969 490.414062 L 424.917969 501.242188 L 435.734375 501.242188 Z M 408.253906 490.304688 L 397.21875 490.304688 L 397.21875 501.347656 L 408.253906 501.347656 Z M 380.828125 490.140625 L 369.46875 490.140625 L 369.46875 501.511719 L 380.828125 501.511719 Z M 353.238281 490.140625 L 341.878906 490.140625 L 341.878906 501.511719 L 353.238281 501.511719 Z M 325.652344 490.140625 L 314.289062 490.140625 L 314.289062 501.511719 L 325.652344 501.511719 Z M 298.0625 490.140625 L 286.703125 490.140625 L 286.703125 501.511719 L 298.0625 501.511719 Z M 270.472656 490.140625 L 259.113281 490.140625 L 259.113281 501.511719 L 270.472656 501.511719 Z M 242.882812 490.140625 L 231.523438 490.140625 L 231.523438 501.511719 L 242.882812 501.511719 Z M 215.292969 490.140625 L 203.933594 490.140625 L 203.933594 501.511719 L 215.292969 501.511719 Z M 187.8125 490.035156 L 176.238281 490.035156 L 176.238281 501.621094 L 187.8125 501.621094 Z M 160.277344 489.980469 L 148.59375 489.980469 L 148.59375 501.675781 L 160.277344 501.675781 Z M 132.691406 489.980469 L 121.003906 489.980469 L 121.003906 501.675781 L 132.691406 501.675781 Z M 105.101562 489.980469 L 93.417969 489.980469 L 93.417969 501.675781 L 105.101562 501.675781 Z M 77.511719 489.980469 L 65.828125 489.980469 L 65.828125 501.675781 L 77.511719 501.675781 Z M 725.042969 504.597656 L 714.980469 504.597656 L 714.980469 514.667969 L 725.042969 514.667969 Z M 669.863281 504.597656 L 659.800781 504.597656 L 659.800781 514.667969 L 669.863281 514.667969 Z M 615.007812 504.273438 L 604.300781 504.273438 L 604.300781 514.992188 L 615.007812 514.992188 Z M 559.832031 504.273438 L 549.121094 504.273438 L 549.121094 514.992188 L 559.832031 514.992188 Z M 504.761719 504.164062 L 493.835938 504.164062 L 493.835938 515.101562 L 504.761719 515.101562 Z M 449.636719 504.109375 L 438.601562 504.109375 L 438.601562 515.15625 L 449.636719 515.15625 Z M 394.730469 503.839844 L 383.152344 503.839844 L 383.152344 515.425781 L 394.730469 515.425781 Z M 339.554688 503.839844 L 327.976562 503.839844 L 327.976562 515.425781 L 339.554688 515.425781 Z M 284.429688 503.785156 L 272.746094 503.785156 L 272.746094 515.480469 L 284.429688 515.480469 Z M 229.25 503.785156 L 217.566406 503.785156 L 217.566406 515.480469 L 229.25 515.480469 Z M 174.234375 503.621094 L 162.226562 503.621094 L 162.226562 515.640625 L 174.234375 515.640625 Z M 119.003906 503.675781 L 107.101562 503.675781 L 107.101562 515.585938 L 119.003906 515.585938 Z M 63.878906 503.621094 L 60.09375 503.621094 L 60.09375 515.640625 L 63.878906 515.640625 Z M 738.835938 518.402344 L 728.773438 518.402344 L 728.773438 528.472656 L 738.835938 528.472656 Z M 711.355469 518.292969 L 701.078125 518.292969 L 701.078125 528.582031 L 711.355469 528.582031 Z M 683.765625 518.292969 L 673.488281 518.292969 L 673.488281 528.582031 L 683.765625 528.582031 Z M 656.285156 518.1875 L 645.789062 518.1875 L 645.789062 528.691406 L 656.285156 528.691406 Z M 628.859375 518.023438 L 618.039062 518.023438 L 618.039062 528.851562 L 628.859375 528.851562 Z M 601.324219 517.96875 L 590.394531 517.96875 L 590.394531 528.90625 L 601.324219 528.90625 Z M 573.789062 517.917969 L 562.753906 517.917969 L 562.753906 528.960938 L 573.789062 528.960938 Z M 546.199219 517.917969 L 535.164062 517.917969 L 535.164062 528.960938 L 546.199219 528.960938 Z M 518.609375 517.917969 L 507.574219 517.917969 L 507.574219 528.960938 L 518.609375 528.960938 Z M 491.074219 517.863281 L 479.933594 517.863281 L 479.933594 529.015625 L 491.074219 529.015625 Z M 463.59375 517.753906 L 452.234375 517.753906 L 452.234375 529.121094 L 463.59375 529.121094 Z M 436.058594 517.699219 L 424.59375 517.699219 L 424.59375 529.175781 L 436.058594 529.175781 Z M 408.632812 517.535156 L 396.839844 517.535156 L 396.839844 529.339844 L 408.632812 529.339844 Z M 381.046875 517.535156 L 369.253906 517.535156 L 369.253906 529.339844 L 381.046875 529.339844 Z M 353.457031 517.535156 L 341.664062 517.535156 L 341.664062 529.339844 L 353.457031 529.339844 Z M 325.867188 517.535156 L 314.074219 517.535156 L 314.074219 529.339844 L 325.867188 529.339844 Z M 298.277344 517.535156 L 286.484375 517.535156 L 286.484375 529.339844 L 298.277344 529.339844 Z M 270.742188 517.484375 L 258.839844 517.484375 L 258.839844 529.394531 L 270.742188 529.394531 Z M 243.207031 517.429688 L 231.199219 517.429688 L 231.199219 529.449219 L 243.207031 529.449219 Z M 215.617188 517.429688 L 203.609375 517.429688 L 203.609375 529.449219 L 215.617188 529.449219 Z M 188.03125 517.429688 L 176.019531 517.429688 L 176.019531 529.449219 L 188.03125 529.449219 Z M 160.550781 517.320312 L 148.324219 517.320312 L 148.324219 529.554688 L 160.550781 529.554688 Z M 133.015625 517.265625 L 120.679688 517.265625 L 120.679688 529.609375 L 133.015625 529.609375 Z M 105.371094 517.320312 L 93.144531 517.320312 L 93.144531 529.554688 L 105.371094 529.554688 Z M 77.78125 517.320312 L 65.558594 517.320312 L 65.558594 529.554688 L 77.78125 529.554688 Z M 742.515625 532.15625 L 742.515625 542.332031 L 749.558594 542.332031 L 749.558594 532.15625 Z M 697.613281 532.046875 L 687.226562 532.046875 L 687.226562 542.441406 L 697.613281 542.441406 Z M 642.652344 531.828125 L 631.832031 531.828125 L 631.832031 542.660156 L 642.652344 542.660156 Z M 587.636719 531.667969 L 576.492188 531.667969 L 576.492188 542.820312 L 587.636719 542.820312 Z M 560.101562 531.613281 L 548.851562 531.613281 L 548.851562 542.875 L 560.101562 542.875 Z M 532.515625 531.613281 L 521.261719 531.613281 L 521.261719 542.875 L 532.515625 542.875 Z M 477.5 531.453125 L 465.921875 531.453125 L 465.921875 543.039062 L 477.5 543.039062 Z M 449.964844 531.398438 L 438.277344 531.398438 L 438.277344 543.09375 L 449.964844 543.09375 Z M 422.375 531.398438 L 410.6875 531.398438 L 410.6875 543.09375 L 422.375 543.09375 Z M 394.945312 531.234375 L 382.9375 531.234375 L 382.9375 543.253906 L 394.945312 543.253906 Z M 367.359375 531.234375 L 355.347656 531.234375 L 355.347656 543.253906 L 367.359375 543.253906 Z M 339.769531 531.234375 L 327.761719 531.234375 L 327.761719 543.253906 L 339.769531 543.253906 Z M 312.179688 531.234375 L 300.171875 531.234375 L 300.171875 543.253906 L 312.179688 543.253906 Z M 284.589844 531.234375 L 272.582031 531.234375 L 272.582031 543.253906 L 284.589844 543.253906 Z M 257.164062 531.074219 L 244.832031 531.074219 L 244.832031 543.417969 L 257.164062 543.417969 Z M 229.578125 531.074219 L 217.242188 531.074219 L 217.242188 543.417969 L 229.578125 543.417969 Z M 201.988281 531.074219 L 189.652344 531.074219 L 189.652344 543.417969 L 201.988281 543.417969 Z M 174.453125 531.019531 L 162.011719 531.019531 L 162.011719 543.46875 L 174.453125 543.46875 Z M 146.808594 531.074219 L 134.476562 531.074219 L 134.476562 543.417969 L 146.808594 543.417969 Z M 119.273438 531.019531 L 106.832031 531.019531 L 106.832031 543.46875 L 119.273438 543.46875 Z M 91.628906 531.074219 L 79.296875 531.074219 L 79.296875 543.417969 L 91.628906 543.417969 Z M 64.042969 531.074219 L 60.09375 531.074219 L 60.09375 543.417969 L 64.042969 543.417969 Z M 738.996094 545.851562 L 728.613281 545.851562 L 728.613281 556.246094 L 738.996094 556.246094 Z M 711.464844 545.796875 L 700.96875 545.796875 L 700.96875 556.300781 L 711.464844 556.300781 Z M 684.035156 545.636719 L 673.21875 545.636719 L 673.21875 556.464844 L 684.035156 556.464844 Z M 656.554688 545.527344 L 645.519531 545.527344 L 645.519531 556.574219 L 656.554688 556.574219 Z M 629.128906 545.363281 L 617.769531 545.363281 L 617.769531 556.734375 L 629.128906 556.734375 Z M 601.539062 545.363281 L 590.179688 545.363281 L 590.179688 556.734375 L 601.539062 556.734375 Z M 573.949219 545.363281 L 562.589844 545.363281 L 562.589844 556.734375 L 573.949219 556.734375 Z M 546.414062 545.3125 L 534.949219 545.3125 L 534.949219 556.789062 L 546.414062 556.789062 Z M 518.828125 545.3125 L 507.359375 545.3125 L 507.359375 556.789062 L 518.828125 556.789062 Z M 491.398438 545.148438 L 479.605469 545.148438 L 479.605469 556.953125 L 491.398438 556.953125 Z M 463.867188 545.09375 L 451.964844 545.09375 L 451.964844 557.003906 L 463.867188 557.003906 Z M 436.332031 545.039062 L 424.320312 545.039062 L 424.320312 557.058594 L 436.332031 557.058594 Z M 408.90625 544.878906 L 396.570312 544.878906 L 396.570312 557.222656 L 408.90625 557.222656 Z M 381.316406 544.878906 L 368.980469 544.878906 L 368.980469 557.222656 L 381.316406 557.222656 Z M 353.726562 544.878906 L 341.390625 544.878906 L 341.390625 557.222656 L 353.726562 557.222656 Z M 326.136719 544.878906 L 313.804688 544.878906 L 313.804688 557.222656 L 326.136719 557.222656 Z M 298.546875 544.878906 L 286.214844 544.878906 L 286.214844 557.222656 L 298.546875 557.222656 Z M 271.066406 544.769531 L 258.515625 544.769531 L 258.515625 557.332031 L 271.066406 557.332031 Z M 243.476562 544.769531 L 230.929688 544.769531 L 230.929688 557.332031 L 243.476562 557.332031 Z M 215.945312 544.714844 L 203.285156 544.714844 L 203.285156 557.382812 L 215.945312 557.382812 Z M 188.355469 544.714844 L 175.695312 544.714844 L 175.695312 557.382812 L 188.355469 557.382812 Z M 160.765625 544.714844 L 148.105469 544.714844 L 148.105469 557.382812 L 160.765625 557.382812 Z M 133.175781 544.714844 L 120.519531 544.714844 L 120.519531 557.382812 L 133.175781 557.382812 Z M 105.535156 544.769531 L 92.984375 544.769531 L 92.984375 557.332031 L 105.535156 557.332031 Z M 77.945312 544.769531 L 65.394531 544.769531 L 65.394531 557.332031 L 77.945312 557.332031 Z M 725.367188 559.496094 L 714.65625 559.496094 L 714.65625 570.214844 L 725.367188 570.214844 Z M 670.351562 559.335938 L 659.316406 559.335938 L 659.316406 570.378906 L 670.351562 570.378906 Z M 615.441406 559.0625 L 603.867188 559.0625 L 603.867188 570.648438 L 615.441406 570.648438 Z M 560.320312 559.007812 L 548.632812 559.007812 L 548.632812 570.703125 L 560.320312 570.703125 Z M 505.304688 558.847656 L 493.292969 558.847656 L 493.292969 570.867188 L 505.304688 570.867188 Z M 450.179688 558.792969 L 438.0625 558.792969 L 438.0625 570.921875 L 450.179688 570.921875 Z M 395.21875 558.574219 L 382.667969 558.574219 L 382.667969 571.136719 L 395.21875 571.136719 Z M 340.039062 558.574219 L 327.488281 558.574219 L 327.488281 571.136719 L 340.039062 571.136719 Z M 284.96875 558.46875 L 272.203125 558.46875 L 272.203125 571.246094 L 284.96875 571.246094 Z M 229.792969 558.46875 L 217.027344 558.46875 L 217.027344 571.246094 L 229.792969 571.246094 Z M 202.257812 558.414062 L 189.382812 558.414062 L 189.382812 571.300781 L 202.257812 571.300781 Z M 174.722656 558.359375 L 161.738281 558.359375 L 161.738281 571.351562 L 174.722656 571.351562 Z M 119.382812 558.519531 L 106.722656 558.519531 L 106.722656 571.191406 L 119.382812 571.191406 Z M 64.203125 558.519531 L 60.09375 558.519531 L 60.09375 571.191406 L 64.203125 571.191406 Z M 739.214844 573.246094 L 728.394531 573.246094 L 728.394531 584.074219 L 739.214844 584.074219 Z M 711.789062 573.085938 L 700.644531 573.085938 L 700.644531 584.238281 L 711.789062 584.238281 Z M 684.253906 573.03125 L 673 573.03125 L 673 584.292969 L 684.253906 584.292969 Z M 656.71875 572.976562 L 645.359375 572.976562 L 645.359375 584.347656 L 656.71875 584.347656 Z M 629.292969 572.816406 L 617.605469 572.816406 L 617.605469 584.507812 L 629.292969 584.507812 Z M 601.757812 572.761719 L 589.964844 572.761719 L 589.964844 584.5625 L 601.757812 584.5625 Z M 574.167969 572.761719 L 562.375 572.761719 L 562.375 584.5625 L 574.167969 584.5625 Z M 546.578125 572.761719 L 534.785156 572.761719 L 534.785156 584.5625 L 546.578125 584.5625 Z M 519.152344 572.597656 L 507.035156 572.597656 L 507.035156 584.726562 L 519.152344 584.726562 Z M 491.617188 572.542969 L 479.390625 572.542969 L 479.390625 584.78125 L 491.617188 584.78125 Z M 464.082031 572.492188 L 451.75 572.492188 L 451.75 584.835938 L 464.082031 584.835938 Z M 436.546875 572.4375 L 424.105469 572.4375 L 424.105469 584.886719 L 436.546875 584.886719 Z M 409.121094 572.273438 L 396.355469 572.273438 L 396.355469 585.050781 L 409.121094 585.050781 Z M 381.53125 572.273438 L 368.765625 572.273438 L 368.765625 585.050781 L 381.53125 585.050781 Z M 353.941406 572.273438 L 341.175781 572.273438 L 341.175781 585.050781 L 353.941406 585.050781 Z M 326.300781 572.328125 L 313.640625 572.328125 L 313.640625 584.996094 L 326.300781 584.996094 Z M 298.871094 572.164062 L 285.890625 572.164062 L 285.890625 585.160156 L 298.871094 585.160156 Z M 271.285156 572.164062 L 258.300781 572.164062 L 258.300781 585.160156 L 271.285156 585.160156 Z M 243.695312 572.164062 L 230.710938 572.164062 L 230.710938 585.160156 L 243.695312 585.160156 Z M 216.160156 572.109375 L 203.070312 572.109375 L 203.070312 585.210938 L 216.160156 585.210938 Z M 188.679688 572.003906 L 175.371094 572.003906 L 175.371094 585.320312 L 188.679688 585.320312 Z M 161.089844 572.003906 L 147.78125 572.003906 L 147.78125 585.320312 L 161.089844 585.320312 Z M 133.5 572.003906 L 120.195312 572.003906 L 120.195312 585.320312 L 133.5 585.320312 Z M 105.914062 572.003906 L 92.605469 572.003906 L 92.605469 585.320312 L 105.914062 585.320312 Z M 78.324219 572.003906 L 65.015625 572.003906 L 65.015625 585.320312 L 78.324219 585.320312 Z M 742.082031 597.992188 L 749.558594 597.992188 L 749.558594 586.945312 L 742.082031 586.945312 Z M 725.636719 586.835938 L 714.382812 586.835938 L 714.382812 598.097656 L 725.636719 598.097656 Z M 698.101562 586.78125 L 686.742188 586.78125 L 686.742188 598.152344 L 698.101562 598.152344 Z M 643.085938 586.621094 L 631.402344 586.621094 L 631.402344 598.316406 L 643.085938 598.316406 Z M 615.660156 586.457031 L 603.648438 586.457031 L 603.648438 598.476562 L 615.660156 598.476562 Z M 588.070312 586.457031 L 576.0625 586.457031 L 576.0625 598.476562 L 588.070312 598.476562 Z M 560.480469 586.457031 L 548.472656 586.457031 L 548.472656 598.476562 L 560.480469 598.476562 Z M 533.054688 586.296875 L 520.722656 586.296875 L 520.722656 598.640625 L 533.054688 598.640625 Z M 505.519531 586.242188 L 493.078125 586.242188 L 493.078125 598.695312 L 505.519531 598.695312 Z M 477.984375 586.1875 L 465.433594 586.1875 L 465.433594 598.75 L 477.984375 598.75 Z M 450.449219 586.132812 L 437.792969 586.132812 L 437.792969 598.800781 L 450.449219 598.800781 Z M 422.859375 586.132812 L 410.203125 586.132812 L 410.203125 598.800781 L 422.859375 598.800781 Z M 395.433594 585.972656 L 382.449219 585.972656 L 382.449219 598.964844 L 395.433594 598.964844 Z M 367.84375 585.972656 L 354.863281 585.972656 L 354.863281 598.964844 L 367.84375 598.964844 Z M 340.257812 585.972656 L 327.273438 585.972656 L 327.273438 598.964844 L 340.257812 598.964844 Z M 312.777344 585.863281 L 299.574219 585.863281 L 299.574219 599.074219 L 312.777344 599.074219 Z M 285.242188 585.808594 L 271.933594 585.808594 L 271.933594 599.128906 L 285.242188 599.128906 Z M 257.652344 585.808594 L 244.34375 585.808594 L 244.34375 599.128906 L 257.652344 599.128906 Z M 230.0625 585.808594 L 216.753906 585.808594 L 216.753906 599.128906 L 230.0625 599.128906 Z M 202.472656 585.808594 L 189.167969 585.808594 L 189.167969 599.128906 L 202.472656 599.128906 Z M 175.046875 585.644531 L 161.414062 585.644531 L 161.414062 599.289062 L 175.046875 599.289062 Z M 147.402344 585.699219 L 133.878906 585.699219 L 133.878906 599.234375 L 147.402344 599.234375 Z M 119.816406 585.699219 L 106.292969 585.699219 L 106.292969 599.234375 L 119.816406 599.234375 Z M 92.226562 585.699219 L 78.703125 585.699219 L 78.703125 599.234375 L 92.226562 599.234375 Z M 64.636719 585.699219 L 60.09375 585.699219 L 60.09375 599.234375 L 64.636719 599.234375 Z M 739.429688 600.644531 L 728.179688 600.644531 L 728.179688 611.90625 L 739.429688 611.90625 Z M 712.003906 600.480469 L 700.429688 600.480469 L 700.429688 612.066406 L 712.003906 612.066406 Z M 684.46875 600.425781 L 672.785156 600.425781 L 672.785156 612.121094 L 684.46875 612.121094 Z M 656.988281 600.320312 L 645.085938 600.320312 L 645.085938 612.230469 L 656.988281 612.230469 Z M 629.5625 600.15625 L 617.335938 600.15625 L 617.335938 612.390625 L 629.5625 612.390625 Z M 601.972656 600.15625 L 589.746094 600.15625 L 589.746094 612.390625 L 601.972656 612.390625 Z M 574.382812 600.15625 L 562.15625 600.15625 L 562.15625 612.390625 L 574.382812 612.390625 Z M 546.957031 599.992188 L 534.40625 599.992188 L 534.40625 612.554688 L 546.957031 612.554688 Z M 519.421875 599.9375 L 506.761719 599.9375 L 506.761719 612.609375 L 519.421875 612.609375 Z M 491.832031 599.9375 L 479.175781 599.9375 L 479.175781 612.609375 L 491.832031 612.609375 Z M 464.296875 599.886719 L 451.53125 599.886719 L 451.53125 612.664062 L 464.296875 612.664062 Z M 436.816406 599.777344 L 423.835938 599.777344 L 423.835938 612.769531 L 436.816406 612.769531 Z M 409.390625 599.613281 L 396.082031 599.613281 L 396.082031 612.933594 L 409.390625 612.933594 Z M 381.746094 599.667969 L 368.546875 599.667969 L 368.546875 612.878906 L 381.746094 612.878906 Z M 354.105469 599.722656 L 341.015625 599.722656 L 341.015625 612.824219 L 354.105469 612.824219 Z M 326.679688 599.558594 L 313.261719 599.558594 L 313.261719 612.988281 L 326.679688 612.988281 Z M 299.144531 599.507812 L 285.621094 599.507812 L 285.621094 613.042969 L 299.144531 613.042969 Z M 271.554688 599.507812 L 258.03125 599.507812 L 258.03125 613.042969 L 271.554688 613.042969 Z M 244.019531 599.453125 L 230.386719 599.453125 L 230.386719 613.09375 L 244.019531 613.09375 Z M 725.851562 614.234375 L 714.167969 614.234375 L 714.167969 625.929688 L 725.851562 625.929688 Z M 670.835938 614.070312 L 658.828125 614.070312 L 658.828125 626.089844 L 670.835938 626.089844 Z M 615.820312 613.90625 L 603.488281 613.90625 L 603.488281 626.253906 L 615.820312 626.253906 Z M 560.804688 613.746094 L 548.148438 613.746094 L 548.148438 626.414062 L 560.804688 626.414062 Z M 505.789062 613.582031 L 492.808594 613.582031 L 492.808594 626.578125 L 505.789062 626.578125 Z M 478.199219 613.582031 L 465.21875 613.582031 L 465.21875 626.578125 L 478.199219 626.578125 Z M 450.71875 613.472656 L 437.519531 613.472656 L 437.519531 626.683594 L 450.71875 626.683594 Z M 395.652344 613.367188 L 382.234375 613.367188 L 382.234375 626.792969 L 395.652344 626.792969 Z M 368.007812 613.421875 L 354.699219 613.421875 L 354.699219 626.738281 L 368.007812 626.738281 Z M 340.582031 613.257812 L 326.949219 613.257812 L 326.949219 626.902344 L 340.582031 626.902344 Z M 739.753906 627.929688 L 727.855469 627.929688 L 727.855469 639.839844 L 739.753906 639.839844 Z M 712.167969 627.929688 L 700.265625 627.929688 L 700.265625 639.839844 L 712.167969 639.839844 Z M 684.738281 627.769531 L 672.515625 627.769531 L 672.515625 640.003906 L 684.738281 640.003906 Z M 657.203125 627.714844 L 644.871094 627.714844 L 644.871094 640.058594 L 657.203125 640.058594 Z M 629.777344 627.550781 L 617.121094 627.550781 L 617.121094 640.21875 L 629.777344 640.21875 Z M 602.132812 627.605469 L 589.585938 627.605469 L 589.585938 640.167969 L 602.132812 640.167969 Z M 574.707031 627.445312 L 561.832031 627.445312 L 561.832031 640.328125 L 574.707031 640.328125 Z M 547.171875 627.390625 L 534.191406 627.390625 L 534.191406 640.382812 L 547.171875 640.382812 Z M 519.636719 627.335938 L 506.546875 627.335938 L 506.546875 640.4375 L 519.636719 640.4375 Z M 492.105469 627.28125 L 478.902344 627.28125 L 478.902344 640.492188 L 492.105469 640.492188 Z M 464.570312 627.226562 L 451.261719 627.226562 L 451.261719 640.546875 L 464.570312 640.546875 Z M 437.035156 627.171875 L 423.617188 627.171875 L 423.617188 640.601562 L 437.035156 640.601562 Z M 741.703125 653.59375 L 749.558594 653.59375 L 749.558594 641.789062 L 741.703125 641.789062 Z M 726.015625 641.683594 L 714.003906 641.683594 L 714.003906 653.703125 L 726.015625 653.703125 Z M 698.589844 641.519531 L 686.253906 641.519531 L 686.253906 653.863281 L 698.589844 653.863281 Z M 671.054688 641.464844 L 658.609375 641.464844 L 658.609375 653.917969 L 671.054688 653.917969 Z M 643.679688 641.25 L 630.804688 641.25 L 630.804688 654.136719 L 643.679688 654.136719 Z M 615.984375 641.355469 L 603.324219 641.355469 L 603.324219 654.027344 L 615.984375 654.027344 Z M 588.558594 641.195312 L 575.574219 641.195312 L 575.574219 654.1875 L 588.558594 654.1875 Z M 561.074219 641.085938 L 547.878906 641.085938 L 547.878906 654.296875 L 561.074219 654.296875 Z M 533.542969 641.03125 L 520.234375 641.03125 L 520.234375 654.351562 L 533.542969 654.351562 Z M 506.007812 640.980469 L 492.589844 640.980469 L 492.589844 654.40625 L 506.007812 654.40625 Z M 478.472656 640.925781 L 464.949219 640.925781 L 464.949219 654.460938 L 478.472656 654.460938 Z M 450.9375 640.871094 L 437.304688 640.871094 L 437.304688 654.511719 L 450.9375 654.511719 Z M 739.863281 655.433594 L 727.746094 655.433594 L 727.746094 667.5625 L 739.863281 667.5625 Z M 712.4375 655.273438 L 699.996094 655.273438 L 699.996094 667.722656 L 712.4375 667.722656 Z M 684.957031 655.164062 L 672.296875 655.164062 L 672.296875 667.832031 L 684.957031 667.832031 Z M 657.421875 655.109375 L 644.65625 655.109375 L 644.65625 667.886719 L 657.421875 667.886719 Z M 629.886719 655.054688 L 617.011719 655.054688 L 617.011719 667.941406 L 629.886719 667.941406 Z M 602.460938 654.894531 L 589.261719 654.894531 L 589.261719 668.101562 L 602.460938 668.101562 Z M 574.925781 654.839844 L 561.617188 654.839844 L 561.617188 668.15625 L 574.925781 668.15625 Z M 547.390625 654.785156 L 533.972656 654.785156 L 533.972656 668.210938 L 547.390625 668.210938 Z M 726.230469 669.078125 L 713.789062 669.078125 L 713.789062 681.53125 L 726.230469 681.53125 Z M 671.269531 668.863281 L 658.394531 668.863281 L 658.394531 681.746094 L 671.269531 681.746094 Z M 643.898438 668.644531 L 630.589844 668.644531 L 630.589844 681.964844 L 643.898438 681.964844 Z M 616.308594 668.644531 L 603 668.644531 L 603 681.964844 L 616.308594 681.964844 Z M 588.773438 668.589844 L 575.359375 668.589844 L 575.359375 682.019531 L 588.773438 682.019531 Z M 561.292969 668.480469 L 547.660156 668.480469 L 547.660156 682.125 L 561.292969 682.125 Z M 740.082031 682.828125 L 727.53125 682.828125 L 727.53125 695.390625 L 740.082031 695.390625 Z M 712.652344 682.667969 L 699.777344 682.667969 L 699.777344 695.554688 L 712.652344 695.554688 Z M 685.117188 682.613281 L 672.136719 682.613281 L 672.136719 695.605469 L 685.117188 695.605469 Z M 657.636719 682.503906 L 644.4375 682.503906 L 644.4375 695.714844 L 657.636719 695.714844 Z M 630.265625 682.289062 L 616.632812 682.289062 L 616.632812 695.929688 L 630.265625 695.929688 Z M 602.675781 682.289062 L 589.042969 682.289062 L 589.042969 695.929688 L 602.675781 695.929688 Z M 741.269531 709.25 L 749.558594 709.25 L 749.558594 696.582031 L 741.269531 696.582031 Z M 726.394531 696.527344 L 713.625 696.527344 L 713.625 709.304688 L 726.394531 709.304688 Z M 698.96875 696.363281 L 685.875 696.363281 L 685.875 709.464844 L 698.96875 709.464844 Z M 671.488281 696.257812 L 658.179688 696.257812 L 658.179688 709.574219 L 671.488281 709.574219 Z M 740.296875 710.226562 L 727.3125 710.226562 L 727.3125 723.21875 L 740.296875 723.21875 Z M 712.816406 710.117188 L 699.617188 710.117188 L 699.617188 723.328125 L 712.816406 723.328125 Z M 685.335938 710.007812 L 671.917969 710.007812 L 671.917969 723.4375 L 685.335938 723.4375 Z M 726.664062 723.867188 L 713.355469 723.867188 L 713.355469 737.1875 L 726.664062 737.1875 Z M 740.566406 737.566406 L 727.042969 737.566406 L 727.042969 751.101562 L 740.566406 751.101562 Z M 740.835938 764.90625 L 749.558594 764.90625 L 749.558594 751.371094 L 740.835938 751.371094 Z M 740.835938 778.714844 L 740.675781 778.714844 L 740.675781 765.070312 L 726.933594 765.070312 L 726.933594 778.714844 L 713.355469 778.714844 L 713.355469 765.015625 L 726.878906 765.015625 L 726.878906 751.265625 L 713.140625 751.265625 L 713.140625 764.800781 L 699.453125 764.800781 L 699.453125 751.210938 L 713.085938 751.210938 L 713.085938 737.457031 L 699.34375 737.457031 L 699.34375 751.101562 L 685.660156 751.101562 L 685.660156 737.347656 L 699.238281 737.347656 L 699.238281 723.707031 L 685.605469 723.707031 L 685.605469 737.296875 L 671.703125 737.296875 L 671.703125 723.652344 L 657.960938 723.652344 L 657.960938 737.1875 L 644.332031 737.1875 L 644.332031 723.542969 L 657.855469 723.542969 L 657.855469 709.898438 L 644.222656 709.898438 L 644.222656 723.4375 L 630.480469 723.4375 L 630.480469 709.792969 L 644.113281 709.792969 L 644.113281 696.039062 L 630.371094 696.039062 L 630.371094 709.683594 L 616.523438 709.683594 L 616.523438 696.039062 L 602.785156 696.039062 L 602.785156 709.683594 L 588.988281 709.683594 L 588.988281 695.984375 L 575.140625 695.984375 L 575.140625 709.519531 L 561.507812 709.519531 L 561.507812 695.929688 L 575.085938 695.929688 L 575.085938 682.289062 L 561.453125 682.289062 L 561.453125 695.878906 L 547.660156 695.878906 L 547.660156 682.125 L 533.703125 682.125 L 533.703125 695.824219 L 520.234375 695.824219 L 520.234375 682.125 L 533.703125 682.125 L 533.703125 668.484375 L 520.070312 668.484375 L 520.070312 681.964844 L 506.332031 681.964844 L 506.332031 668.320312 L 519.910156 668.320312 L 519.910156 654.675781 L 506.277344 654.675781 L 506.277344 668.265625 L 492.320312 668.265625 L 492.320312 654.675781 L 478.6875 654.675781 L 478.6875 668.265625 L 464.839844 668.265625 L 464.839844 654.566406 L 450.992188 654.566406 L 450.992188 668.210938 L 437.304688 668.210938 L 437.304688 654.515625 L 423.5625 654.515625 L 423.5625 640.652344 L 409.554688 640.652344 L 409.554688 627.066406 L 395.921875 627.066406 L 395.921875 640.652344 L 381.964844 640.652344 L 381.964844 627.066406 L 368.332031 627.066406 L 368.332031 640.652344 L 354.539062 640.652344 L 354.539062 626.902344 L 340.582031 626.902344 L 340.582031 640.601562 L 326.949219 640.601562 L 326.949219 626.902344 L 312.992188 626.902344 L 312.992188 640.546875 L 299.414062 640.546875 L 299.414062 626.902344 L 312.992188 626.902344 L 312.992188 613.257812 L 299.359375 613.257812 L 299.359375 626.847656 L 285.457031 626.847656 L 285.457031 613.203125 L 271.714844 613.203125 L 271.714844 626.847656 L 257.921875 626.847656 L 257.921875 613.148438 L 244.074219 613.148438 L 244.074219 626.847656 L 230.332031 626.847656 L 230.332031 613.148438 L 216.484375 613.148438 L 216.484375 626.792969 L 202.90625 626.792969 L 202.90625 613.09375 L 216.429688 613.09375 L 216.429688 599.453125 L 202.796875 599.453125 L 202.796875 612.988281 L 188.949219 612.988281 L 188.949219 599.34375 L 175.101562 599.34375 L 175.101562 613.042969 L 161.359375 613.042969 L 161.359375 599.34375 L 147.511719 599.34375 L 147.511719 613.042969 L 133.71875 613.042969 L 133.71875 599.398438 L 119.976562 599.398438 L 119.976562 613.042969 L 106.128906 613.042969 L 106.128906 599.398438 L 92.386719 599.398438 L 92.386719 613.042969 L 78.539062 613.042969 L 78.539062 599.398438 L 64.800781 599.398438 L 64.800781 613.042969 L 60.09375 613.042969 L 60.09375 627.117188 L 64.582031 627.117188 L 64.582031 640.328125 L 60.09375 640.328125 L 60.09375 655.054688 L 64.257812 655.054688 L 64.257812 667.617188 L 60.09375 667.617188 L 60.09375 682.992188 L 63.824219 682.992188 L 63.824219 694.902344 L 60.09375 694.902344 L 60.09375 710.929688 L 63.5 710.929688 L 63.5 722.191406 L 60.09375 722.191406 L 60.09375 738.867188 L 63.015625 738.867188 L 63.015625 749.316406 L 60.09375 749.316406 L 60.09375 766.964844 L 62.691406 766.964844 L 62.691406 776.546875 L 60.09375 776.546875 L 60.09375 794.957031 L 62.257812 794.957031 L 62.257812 803.726562 L 60.09375 803.726562 L 60.09375 823 L 61.878906 823 L 61.878906 831.015625 L 60.09375 831.015625 L 60.09375 850.9375 L 95.417969 850.9375 L 95.417969 836.96875 L 103.152344 836.96875 L 103.152344 850.882812 L 136.746094 850.882812 L 136.746094 850.828125 L 178.078125 850.828125 L 178.078125 850.773438 L 205.613281 850.773438 L 205.613281 836.753906 L 213.617188 836.753906 L 213.617188 850.773438 L 233.199219 850.773438 L 233.199219 850.613281 L 246.832031 850.613281 L 246.832031 850.558594 L 260.574219 850.558594 L 260.574219 836.535156 L 269.121094 836.535156 L 269.121094 850.449219 L 315.640625 850.449219 L 315.640625 836.265625 L 324.515625 836.265625 L 324.515625 850.234375 L 343.015625 850.234375 L 343.015625 850.179688 L 356.753906 850.179688 L 356.753906 850.125 L 370.496094 850.125 L 370.496094 836.15625 L 379.800781 836.15625 L 379.800781 850.125 L 398.085938 850.125 L 398.085938 850.070312 L 411.824219 850.070312 L 411.824219 849.910156 L 425.457031 849.910156 L 425.457031 836.046875 L 435.304688 836.046875 L 435.304688 849.800781 L 466.730469 849.800781 L 466.730469 849.746094 L 480.472656 849.746094 L 480.472656 835.722656 L 490.644531 835.722656 L 490.644531 849.636719 L 507.953125 849.636719 L 507.953125 849.582031 L 521.695312 849.582031 L 521.695312 849.421875 L 535.328125 849.421875 L 535.328125 835.453125 L 546.144531 835.453125 L 546.144531 849.3125 L 562.808594 849.3125 L 562.808594 849.257812 L 576.546875 849.257812 L 576.546875 849.207031 L 590.289062 849.207031 L 590.289062 835.238281 L 601.539062 835.238281 L 601.539062 849.097656 L 617.769531 849.097656 L 617.769531 849.042969 L 631.507812 849.042969 L 631.507812 848.878906 L 645.140625 848.878906 L 645.140625 835.019531 L 657.042969 835.019531 L 657.042969 848.773438 L 672.621094 848.773438 L 672.621094 848.664062 L 686.308594 848.664062 L 686.308594 848.609375 L 700.050781 848.609375 L 700.050781 834.640625 L 712.546875 834.640625 L 712.546875 848.445312 L 727.476562 848.445312 L 727.476562 834.480469 L 740.242188 834.480469 L 740.242188 848.339844 L 749.558594 848.339844 L 749.558594 833.613281 L 741.109375 833.613281 L 741.109375 820.457031 L 749.558594 820.457031 L 749.558594 806.269531 L 740.945312 806.269531 L 740.945312 792.683594 L 749.558594 792.683594 L 749.558594 778.820312 L 740.835938 778.820312 Z M 76.644531 762.957031 L 66.691406 762.957031 L 66.691406 752.996094 L 76.644531 752.996094 Z M 77.457031 708.546875 L 65.882812 708.546875 L 65.882812 696.960938 L 77.457031 696.960938 Z M 78.105469 654.082031 L 65.230469 654.082031 L 65.230469 640.980469 L 78.105469 640.980469 Z M 78.433594 626.792969 L 64.90625 626.792969 L 64.90625 613.148438 L 78.433594 613.148438 Z M 89.46875 831.011719 L 81.460938 831.011719 L 81.460938 822.945312 L 89.46875 822.945312 Z M 89.898438 803.78125 L 81.082031 803.78125 L 81.082031 794.957031 L 89.898438 794.957031 Z M 90.277344 776.546875 L 80.648438 776.546875 L 80.648438 766.964844 L 90.277344 766.964844 Z M 90.765625 749.316406 L 80.324219 749.316406 L 80.324219 738.863281 L 90.765625 738.863281 Z M 91.089844 722.191406 L 79.835938 722.191406 L 79.835938 710.929688 L 91.089844 710.929688 Z M 91.414062 694.902344 L 79.511719 694.902344 L 79.511719 682.992188 L 91.414062 682.992188 Z M 91.847656 667.617188 L 79.082031 667.617188 L 79.082031 655.054688 L 91.847656 655.054688 Z M 92.117188 640.328125 L 78.757812 640.328125 L 78.757812 627.117188 L 92.117188 627.117188 Z M 103.910156 790.191406 L 94.660156 790.191406 L 94.660156 780.933594 L 103.910156 780.933594 Z M 104.722656 735.832031 L 93.796875 735.832031 L 93.796875 724.898438 L 104.722656 724.898438 Z M 105.046875 708.546875 L 93.46875 708.546875 L 93.46875 696.960938 L 105.046875 696.960938 Z M 105.371094 681.257812 L 93.144531 681.257812 L 93.144531 668.914062 L 105.371094 668.914062 Z M 105.695312 654.082031 L 92.820312 654.082031 L 92.820312 641.03125 L 105.695312 641.03125 Z M 106.019531 626.738281 L 92.496094 626.738281 L 92.496094 613.148438 L 106.019531 613.148438 Z M 117.109375 831.066406 L 109.050781 831.066406 L 109.050781 822.890625 L 117.109375 822.890625 Z M 117.542969 803.835938 L 108.832031 803.835938 L 108.832031 803.78125 L 108.617188 803.78125 L 108.617188 794.902344 L 117.542969 794.902344 Z M 118.03125 776.601562 L 108.238281 776.601562 L 108.238281 766.800781 L 118.03125 766.800781 Z M 118.355469 749.476562 L 107.75 749.476562 L 107.75 738.863281 L 118.355469 738.863281 Z M 118.679688 722.191406 L 107.425781 722.191406 L 107.425781 710.929688 L 118.679688 710.929688 Z M 119.003906 694.902344 L 107.101562 694.902344 L 107.101562 682.992188 L 119.003906 682.992188 Z M 119.488281 667.617188 L 106.667969 667.617188 L 106.667969 655.054688 L 119.488281 655.054688 Z M 119.652344 640.328125 L 106.398438 640.328125 L 106.398438 627.117188 L 119.652344 627.117188 Z M 131.988281 763.121094 L 121.707031 763.121094 L 121.707031 752.835938 L 131.988281 752.835938 Z M 132.636719 708.546875 L 121.058594 708.546875 L 121.058594 696.960938 L 132.636719 696.960938 Z M 132.960938 681.257812 L 120.734375 681.257812 L 120.734375 668.863281 L 132.960938 668.863281 Z M 133.285156 654.136719 L 120.410156 654.136719 L 120.410156 641.085938 L 133.285156 641.085938 Z M 133.609375 626.683594 L 120.085938 626.683594 L 120.085938 613.148438 L 133.609375 613.148438 Z M 144.753906 831.121094 L 136.746094 831.121094 L 136.746094 831.066406 L 136.585938 831.066406 L 136.585938 822.890625 L 144.753906 822.890625 Z M 145.292969 803.835938 L 136.152344 803.835938 L 136.152344 794.738281 L 145.292969 794.738281 Z M 145.617188 776.765625 L 135.988281 776.765625 L 135.988281 776.601562 L 135.664062 776.601562 L 135.664062 766.800781 L 145.617188 766.800781 Z M 145.945312 749.421875 L 145.726562 749.421875 L 145.726562 749.476562 L 135.339844 749.476562 L 135.339844 738.863281 L 145.945312 738.863281 Z M 146.269531 722.191406 L 135.015625 722.191406 L 135.015625 710.929688 L 146.269531 710.929688 Z M 146.59375 694.902344 L 134.691406 694.902344 L 134.691406 682.992188 L 146.59375 682.992188 Z M 147.078125 667.617188 L 134.203125 667.617188 L 134.203125 655.054688 L 147.078125 655.054688 Z M 147.242188 640.328125 L 134.042969 640.328125 L 134.042969 627.117188 L 147.242188 627.117188 Z M 159.195312 790.40625 L 149.621094 790.40625 L 149.621094 780.769531 L 159.195312 780.769531 Z M 159.847656 735.832031 L 148.972656 735.832031 L 148.972656 724.898438 L 159.847656 724.898438 Z M 160.550781 681.257812 L 148.324219 681.257812 L 148.324219 668.863281 L 160.550781 668.863281 Z M 160.875 654.136719 L 148 654.136719 L 148 641.085938 L 160.875 641.085938 Z M 161.199219 626.683594 L 147.675781 626.683594 L 147.675781 613.203125 L 161.199219 613.203125 Z M 172.558594 831.121094 L 164.121094 831.121094 L 164.121094 822.675781 L 172.558594 822.675781 Z M 172.828125 804.050781 L 163.902344 804.050781 L 163.902344 803.886719 L 163.578125 803.886719 L 163.578125 794.792969 L 172.828125 794.792969 Z M 173.152344 776.710938 L 163.253906 776.710938 L 163.253906 766.855469 L 173.152344 766.855469 Z M 173.476562 749.421875 L 162.929688 749.421875 L 162.929688 738.917969 L 173.476562 738.917969 Z M 173.804688 722.136719 L 162.605469 722.136719 L 162.605469 710.929688 L 173.804688 710.929688 Z M 174.183594 694.902344 L 162.28125 694.902344 L 162.28125 682.992188 L 174.183594 682.992188 Z M 174.667969 667.617188 L 161.792969 667.617188 L 161.792969 655.054688 L 174.667969 655.054688 Z M 174.832031 640.328125 L 161.632812 640.328125 L 161.632812 627.117188 L 174.832031 627.117188 Z M 187.109375 763.066406 L 176.941406 763.066406 L 176.941406 752.886719 L 187.109375 752.886719 Z M 187.8125 708.492188 L 176.238281 708.492188 L 176.238281 696.960938 L 187.8125 696.960938 Z M 188.460938 654.136719 L 175.585938 654.136719 L 175.585938 641.085938 L 188.460938 641.085938 Z M 188.734375 626.683594 L 175.261719 626.683594 L 175.261719 613.203125 L 188.734375 613.203125 Z M 200.039062 831.175781 L 191.492188 831.175781 L 191.492188 822.730469 L 200.039062 822.730469 Z M 200.308594 803.941406 L 200.203125 803.941406 L 200.203125 803.996094 L 191.222656 803.996094 L 191.222656 794.847656 L 200.308594 794.847656 Z M 200.6875 776.65625 L 190.898438 776.65625 L 190.898438 766.855469 L 200.6875 766.855469 Z M 201.066406 749.367188 L 200.851562 749.367188 L 200.851562 749.421875 L 190.574219 749.421875 L 190.574219 738.917969 L 201.066406 738.917969 Z M 201.390625 722.136719 L 190.25 722.136719 L 190.25 710.929688 L 201.390625 710.929688 Z M 201.769531 694.902344 L 189.871094 694.902344 L 189.871094 682.992188 L 201.769531 682.992188 Z M 202.257812 667.617188 L 189.382812 667.617188 L 189.382812 655.054688 L 202.257812 655.054688 Z M 202.527344 640.328125 L 189.21875 640.328125 L 189.21875 627.171875 L 202.527344 627.171875 Z M 214.484375 790.246094 L 204.90625 790.246094 L 204.90625 780.878906 L 214.484375 780.878906 Z M 215.1875 735.78125 L 204.203125 735.78125 L 204.203125 724.953125 L 215.1875 724.953125 Z M 215.566406 708.492188 L 203.824219 708.492188 L 203.824219 696.960938 L 215.566406 696.960938 Z M 215.890625 681.257812 L 203.5 681.257812 L 203.5 668.863281 L 215.890625 668.863281 Z M 216.214844 654.136719 L 203.175781 654.136719 L 203.175781 640.980469 L 216.214844 640.980469 Z M 227.734375 831.175781 L 219.1875 831.175781 L 219.1875 822.839844 L 227.734375 822.839844 Z M 228.113281 803.886719 L 218.917969 803.886719 L 218.917969 794.683594 L 228.113281 794.683594 Z M 228.546875 776.820312 L 218.539062 776.820312 L 218.539062 766.695312 L 228.546875 766.695312 Z M 228.820312 749.585938 L 218.378906 749.585938 L 218.378906 749.367188 L 218.160156 749.367188 L 218.160156 738.757812 L 228.820312 738.757812 Z M 229.195312 722.296875 L 217.835938 722.296875 L 217.835938 710.765625 L 229.195312 710.765625 Z M 229.578125 695.066406 L 217.457031 695.066406 L 217.457031 682.828125 L 229.578125 682.828125 Z M 229.902344 667.777344 L 216.972656 667.777344 L 216.972656 654.894531 L 229.902344 654.894531 Z M 230.171875 640.492188 L 216.699219 640.492188 L 216.699219 627.011719 L 230.171875 627.011719 Z M 241.746094 817.695312 L 232.875 817.695312 L 232.875 808.652344 L 241.746094 808.652344 Z M 242.503906 763.285156 L 231.957031 763.285156 L 231.957031 752.726562 L 242.503906 752.726562 Z M 243.261719 708.710938 L 231.253906 708.710938 L 231.253906 696.742188 L 243.261719 696.742188 Z M 243.476562 681.476562 L 230.929688 681.476562 L 230.929688 668.808594 L 243.476562 668.808594 Z M 243.800781 654.1875 L 230.605469 654.1875 L 230.605469 640.925781 L 243.800781 640.925781 Z M 255.433594 831.394531 L 246.832031 831.394531 L 246.832031 831.339844 L 246.671875 831.339844 L 246.671875 822.621094 L 255.433594 822.621094 Z M 255.867188 804.105469 L 246.292969 804.105469 L 246.292969 794.578125 L 255.867188 794.578125 Z M 256.136719 776.925781 L 246.128906 776.925781 L 246.128906 776.820312 L 245.859375 776.820312 L 245.859375 766.640625 L 256.136719 766.640625 Z M 256.460938 749.640625 L 245.589844 749.640625 L 245.589844 738.703125 L 256.460938 738.703125 Z M 256.894531 722.351562 L 245.210938 722.351562 L 245.210938 710.65625 L 256.894531 710.65625 Z M 257.164062 695.175781 L 244.832031 695.175781 L 244.832031 682.828125 L 257.164062 682.828125 Z M 257.542969 667.777344 L 244.507812 667.777344 L 244.507812 654.894531 L 257.542969 654.894531 Z M 257.761719 640.492188 L 244.234375 640.492188 L 244.234375 627.011719 L 257.761719 627.011719 Z M 269.769531 790.625 L 259.816406 790.625 L 259.816406 780.609375 L 269.769531 780.609375 Z M 270.582031 735.996094 L 259.164062 735.996094 L 259.164062 724.625 L 270.582031 724.625 Z M 270.796875 708.816406 L 258.734375 708.816406 L 258.734375 696.742188 L 270.796875 696.742188 Z M 271.066406 681.476562 L 258.515625 681.476562 L 258.515625 668.753906 L 271.066406 668.753906 Z M 271.445312 654.242188 L 258.191406 654.242188 L 258.191406 640.925781 L 271.445312 640.925781 Z M 283.238281 831.5 L 274.152344 831.5 L 274.152344 822.40625 L 283.238281 822.40625 Z M 283.457031 804.269531 L 283.292969 804.269531 L 283.292969 804.320312 L 273.988281 804.320312 L 273.988281 804.160156 L 273.71875 804.160156 L 273.71875 794.578125 L 283.457031 794.578125 Z M 283.726562 776.925781 L 273.449219 776.925781 L 273.449219 766.640625 L 283.726562 766.640625 Z M 284.050781 749.640625 L 273.125 749.640625 L 273.125 738.539062 L 284.050781 738.539062 Z M 284.429688 722.460938 L 284.320312 722.460938 L 284.320312 722.515625 L 272.691406 722.515625 L 272.691406 710.710938 L 284.429688 710.710938 Z M 284.699219 695.121094 L 272.417969 695.121094 L 272.417969 682.828125 L 284.699219 682.828125 Z M 285.1875 667.777344 L 272.039062 667.777344 L 272.039062 654.839844 L 285.1875 654.839844 Z M 285.347656 640.546875 L 271.824219 640.546875 L 271.824219 626.957031 L 285.347656 626.957031 Z M 297.683594 763.285156 L 287.078125 763.285156 L 287.078125 752.671875 L 297.683594 752.671875 Z M 298.492188 708.761719 L 286.375 708.761719 L 286.375 696.796875 L 298.492188 696.796875 Z M 299.035156 654.296875 L 285.726562 654.296875 L 285.726562 640.925781 L 299.035156 640.925781 Z M 310.882812 831.5 L 301.523438 831.5 L 301.523438 822.460938 L 310.882812 822.460938 Z M 311.152344 804.269531 L 301.308594 804.269531 L 301.308594 794.578125 L 311.152344 794.578125 Z M 311.476562 776.925781 L 301.035156 776.925781 L 301.035156 766.640625 L 311.476562 766.640625 Z M 311.800781 749.640625 L 300.710938 749.640625 L 300.710938 738.648438 L 311.800781 738.648438 Z M 312.125 722.40625 L 300.332031 722.40625 L 300.332031 710.605469 L 312.125 710.605469 Z M 312.449219 695.226562 L 300.0625 695.226562 L 300.0625 682.667969 L 312.449219 682.667969 Z M 312.777344 667.941406 L 299.898438 667.941406 L 299.898438 667.777344 L 299.574219 667.777344 L 299.574219 654.839844 L 312.777344 654.839844 Z M 325.109375 790.730469 L 314.992188 790.730469 L 314.992188 780.445312 L 325.109375 780.445312 Z M 325.8125 736.160156 L 314.289062 736.160156 L 314.289062 724.574219 L 325.8125 724.574219 Z M 326.082031 708.871094 L 313.859375 708.871094 L 313.859375 696.636719 L 326.082031 696.636719 Z M 326.460938 681.585938 L 313.53125 681.585938 L 313.53125 668.699219 L 326.460938 668.699219 Z M 326.679688 654.296875 L 313.316406 654.296875 L 313.316406 640.871094 L 326.679688 640.871094 Z M 338.523438 831.71875 L 329.058594 831.71875 L 329.058594 822.296875 L 338.523438 822.296875 Z M 338.796875 804.429688 L 328.949219 804.429688 L 328.949219 804.375 L 328.789062 804.375 L 328.789062 794.414062 L 338.796875 794.414062 Z M 339.175781 777.089844 L 328.464844 777.089844 L 328.464844 766.421875 L 339.175781 766.421875 Z M 339.445312 749.855469 L 328.300781 749.855469 L 328.300781 749.800781 L 328.136719 749.800781 L 328.136719 738.488281 L 339.445312 738.488281 Z M 339.714844 722.570312 L 327.8125 722.570312 L 327.8125 710.605469 L 339.714844 710.605469 Z M 340.148438 695.226562 L 327.488281 695.226562 L 327.488281 682.613281 L 340.148438 682.613281 Z M 340.417969 667.996094 L 327.164062 667.996094 L 327.164062 654.785156 L 340.417969 654.785156 Z M 352.480469 818.128906 L 342.691406 818.128906 L 342.691406 808.328125 L 352.480469 808.328125 Z M 353.183594 763.554688 L 342.042969 763.554688 L 342.042969 752.453125 L 353.183594 752.453125 Z M 353.835938 708.871094 L 341.445312 708.871094 L 341.445312 696.527344 L 353.835938 696.527344 Z M 354.050781 681.691406 L 341.066406 681.691406 L 341.066406 668.644531 L 354.050781 668.644531 Z M 354.320312 654.351562 L 340.851562 654.351562 L 340.851562 640.871094 L 354.320312 640.871094 Z M 366.167969 831.824219 L 356.753906 831.824219 L 356.753906 831.769531 L 356.59375 831.769531 L 356.59375 822.242188 L 366.167969 822.242188 Z M 366.546875 804.484375 L 356.324219 804.484375 L 356.324219 794.253906 L 366.546875 794.253906 Z M 366.816406 777.25 L 355.945312 777.25 L 355.945312 766.316406 L 366.816406 766.316406 Z M 367.085938 749.964844 L 355.671875 749.964844 L 355.671875 738.488281 L 367.085938 738.488281 Z M 367.464844 722.570312 L 355.402344 722.570312 L 355.402344 710.441406 L 367.464844 710.441406 Z M 367.738281 695.390625 L 354.96875 695.390625 L 354.96875 682.613281 L 367.738281 682.613281 Z M 368.0625 667.996094 L 354.699219 667.996094 L 354.699219 654.730469 L 368.0625 654.730469 Z M 380.449219 790.949219 L 369.847656 790.949219 L 369.847656 780.28125 L 380.449219 780.28125 Z M 380.828125 763.609375 L 369.523438 763.609375 L 369.523438 752.402344 L 380.828125 752.402344 Z M 381.152344 736.265625 L 369.304688 736.265625 L 369.304688 724.410156 L 381.152344 724.410156 Z M 381.371094 709.035156 L 368.875 709.035156 L 368.875 696.527344 L 381.371094 696.527344 Z M 381.640625 681.691406 L 368.65625 681.691406 L 368.65625 668.589844 L 381.640625 668.589844 Z M 381.910156 654.40625 L 368.386719 654.40625 L 368.386719 640.707031 L 381.910156 640.707031 Z M 393.917969 831.824219 L 384.128906 831.824219 L 384.128906 822.082031 L 393.917969 822.082031 Z M 394.136719 804.648438 L 384.019531 804.648438 L 384.019531 804.484375 L 383.75 804.484375 L 383.75 794.253906 L 394.136719 794.253906 Z M 394.40625 777.25 L 383.480469 777.25 L 383.480469 766.261719 L 394.40625 766.261719 Z M 394.839844 750.019531 L 383.207031 750.019531 L 383.207031 738.324219 L 394.839844 738.324219 Z M 395.054688 722.675781 L 394.894531 722.675781 L 394.894531 722.730469 L 382.828125 722.730469 L 382.828125 710.496094 L 395.054688 710.496094 Z M 395.273438 695.335938 L 382.558594 695.335938 L 382.558594 682.613281 L 395.273438 682.613281 Z M 395.703125 667.996094 L 382.234375 667.996094 L 382.234375 654.730469 L 395.703125 654.730469 Z M 407.769531 818.34375 L 397.652344 818.34375 L 397.652344 808.164062 L 407.769531 808.164062 Z M 408.472656 763.609375 L 397.058594 763.609375 L 397.058594 752.238281 L 408.472656 752.238281 Z M 408.957031 709.035156 L 396.515625 709.035156 L 396.515625 696.582031 L 408.957031 696.582031 Z M 409.5 654.460938 L 395.976562 654.460938 L 395.976562 640.707031 L 409.5 640.707031 Z M 421.453125 832.042969 L 411.824219 832.042969 L 411.824219 831.878906 L 411.554688 831.878906 L 411.554688 822.132812 L 421.453125 822.132812 Z M 421.726562 804.59375 L 411.339844 804.59375 L 411.339844 794.253906 L 421.726562 794.253906 Z M 421.996094 777.25 L 411.066406 777.25 L 411.066406 766.207031 L 421.996094 766.207031 Z M 422.320312 750.074219 L 410.632812 750.074219 L 410.632812 738.378906 L 422.320312 738.378906 Z M 422.589844 722.675781 L 410.417969 722.675781 L 410.417969 710.496094 L 422.589844 710.496094 Z M 423.023438 695.335938 L 410.203125 695.335938 L 410.203125 682.613281 L 423.023438 682.613281 Z M 423.347656 667.996094 L 409.769531 667.996094 L 409.769531 654.730469 L 423.347656 654.730469 Z M 435.84375 790.949219 L 425.023438 790.949219 L 425.023438 780.28125 L 435.84375 780.28125 Z M 436.113281 763.609375 L 424.59375 763.609375 L 424.59375 752.347656 L 436.113281 752.347656 Z M 436.4375 736.320312 L 424.375 736.320312 L 424.375 724.464844 L 436.4375 724.464844 Z M 436.710938 708.980469 L 424.105469 708.980469 L 424.105469 696.417969 L 436.710938 696.417969 Z M 437.035156 681.800781 L 423.835938 681.800781 L 423.835938 668.480469 L 437.035156 668.480469 Z M 449.261719 832.148438 L 439.199219 832.148438 L 439.199219 821.917969 L 449.261719 821.917969 Z M 449.53125 804.808594 L 439.089844 804.808594 L 439.089844 804.59375 L 438.925781 804.59375 L 438.925781 794.035156 L 449.53125 794.035156 Z M 449.855469 777.46875 L 438.65625 777.46875 L 438.65625 766.152344 L 449.855469 766.152344 Z M 450.070312 750.128906 L 438.332031 750.128906 L 438.332031 738.214844 L 450.070312 738.214844 Z M 450.394531 722.839844 L 438.0625 722.839844 L 438.0625 710.332031 L 450.394531 710.332031 Z M 450.71875 695.5 L 437.628906 695.5 L 437.628906 682.394531 L 450.71875 682.394531 Z M 463.214844 818.507812 L 452.667969 818.507812 L 452.667969 807.949219 L 463.214844 807.949219 Z M 463.867188 763.878906 L 452.125 763.878906 L 452.125 752.183594 L 463.867188 752.183594 Z M 464.460938 709.195312 L 451.53125 709.195312 L 451.53125 696.308594 L 464.460938 696.308594 Z M 464.675781 681.910156 L 451.207031 681.910156 L 451.207031 668.429688 L 464.675781 668.429688 Z M 476.957031 832.203125 L 466.730469 832.203125 L 466.730469 832.148438 L 466.570312 832.148438 L 466.570312 821.863281 L 476.957031 821.863281 Z M 477.335938 804.863281 L 466.300781 804.863281 L 466.300781 793.925781 L 477.335938 793.925781 Z M 477.5 777.578125 L 465.976562 777.578125 L 465.976562 765.988281 L 477.5 765.988281 Z M 477.769531 750.289062 L 465.757812 750.289062 L 465.757812 738.164062 L 477.769531 738.164062 Z M 478.148438 722.894531 L 465.597656 722.894531 L 465.597656 722.839844 L 465.433594 722.839844 L 465.433594 710.171875 L 478.148438 710.171875 Z M 478.363281 695.660156 L 465.109375 695.660156 L 465.109375 682.34375 L 478.363281 682.34375 Z M 491.238281 791.382812 L 479.878906 791.382812 L 479.878906 779.957031 L 491.238281 779.957031 Z M 491.507812 763.933594 L 479.554688 763.933594 L 479.554688 752.074219 L 491.507812 752.074219 Z M 491.832031 736.59375 L 479.335938 736.59375 L 479.335938 724.085938 L 491.832031 724.085938 Z M 492.050781 709.359375 L 478.957031 709.359375 L 478.957031 696.257812 L 492.050781 696.257812 Z M 492.265625 681.964844 L 478.742188 681.964844 L 478.742188 668.320312 L 492.265625 668.320312 Z M 504.761719 832.3125 L 494.050781 832.3125 L 494.050781 821.699219 L 504.761719 821.699219 Z M 504.925781 805.027344 L 493.941406 805.027344 L 493.941406 804.917969 L 493.671875 804.917969 L 493.671875 793.820312 L 504.925781 793.820312 Z M 505.140625 777.683594 L 493.511719 777.683594 L 493.511719 765.9375 L 505.140625 765.9375 Z M 505.574219 750.34375 L 493.238281 750.34375 L 493.238281 738 L 505.574219 738 Z M 505.734375 723.054688 L 492.859375 723.054688 L 492.859375 710.171875 L 505.734375 710.171875 Z M 505.953125 695.660156 L 492.644531 695.660156 L 492.644531 682.34375 L 505.953125 682.34375 Z M 518.609375 818.832031 L 507.628906 818.832031 L 507.628906 807.734375 L 518.609375 807.734375 Z M 519.261719 763.988281 L 507.089844 763.988281 L 507.089844 751.859375 L 519.261719 751.859375 Z M 519.53125 736.808594 L 506.761719 736.808594 L 506.761719 724.085938 L 519.53125 724.085938 Z M 519.800781 709.359375 L 506.546875 709.359375 L 506.546875 696.257812 L 519.800781 696.257812 Z M 532.40625 832.53125 L 521.695312 832.53125 L 521.695312 832.367188 L 521.425781 832.367188 L 521.425781 821.648438 L 532.40625 821.648438 Z M 532.675781 805.078125 L 521.261719 805.078125 L 521.261719 793.765625 L 532.675781 793.765625 Z M 532.945312 777.738281 L 521.152344 777.738281 L 521.152344 777.683594 L 521.046875 777.683594 L 521.046875 765.773438 L 532.945312 765.773438 Z M 533.214844 750.503906 L 520.613281 750.503906 L 520.613281 737.890625 L 533.214844 737.890625 Z M 533.488281 723.164062 L 520.449219 723.164062 L 520.449219 710.007812 L 533.488281 710.007812 Z M 546.414062 818.886719 L 535.164062 818.886719 L 535.164062 807.570312 L 546.414062 807.570312 Z M 546.632812 791.542969 L 534.894531 791.542969 L 534.894531 779.6875 L 546.632812 779.6875 Z M 546.902344 764.203125 L 534.515625 764.203125 L 534.515625 751.804688 L 546.902344 751.804688 Z M 547.171875 736.863281 L 534.246094 736.863281 L 534.246094 723.921875 L 547.171875 723.921875 Z M 547.445312 709.519531 L 533.972656 709.519531 L 533.972656 696.09375 L 547.445312 696.09375 Z M 560.101562 832.636719 L 548.960938 832.636719 L 548.960938 821.429688 L 560.101562 821.429688 Z M 560.320312 805.296875 L 548.6875 805.296875 L 548.6875 793.601562 L 560.320312 793.601562 Z M 560.644531 777.902344 L 548.417969 777.902344 L 548.417969 765.71875 L 560.644531 765.71875 Z M 560.914062 750.558594 L 548.148438 750.558594 L 548.148438 737.835938 L 560.914062 737.835938 Z M 561.074219 723.21875 L 547.878906 723.21875 L 547.878906 709.953125 L 561.074219 709.953125 Z M 574.058594 818.996094 L 562.535156 818.996094 L 562.535156 807.515625 L 574.058594 807.515625 Z M 574.601562 764.3125 L 562.050781 764.3125 L 562.050781 751.695312 L 574.601562 751.695312 Z M 587.800781 832.746094 L 576.546875 832.746094 L 576.546875 832.691406 L 576.441406 832.691406 L 576.441406 821.375 L 587.800781 821.375 Z M 588.125 805.351562 L 576.222656 805.351562 L 576.222656 793.441406 L 588.125 793.441406 Z M 588.285156 778.0625 L 575.898438 778.0625 L 575.898438 765.609375 L 588.285156 765.609375 Z M 588.503906 750.667969 L 575.628906 750.667969 L 575.628906 737.78125 L 588.503906 737.78125 Z M 588.828125 723.273438 L 575.464844 723.273438 L 575.464844 709.847656 L 588.828125 709.847656 Z M 601.808594 819.101562 L 590.070312 819.101562 L 590.070312 807.300781 L 601.808594 807.300781 Z M 602.027344 791.816406 L 589.746094 791.816406 L 589.746094 779.527344 L 602.027344 779.527344 Z M 602.296875 764.367188 L 589.53125 764.367188 L 589.53125 751.695312 L 602.296875 751.695312 Z M 602.566406 736.972656 L 589.3125 736.972656 L 589.3125 723.761719 L 602.566406 723.761719 Z M 615.605469 832.855469 L 603.921875 832.855469 L 603.921875 821.214844 L 615.605469 821.214844 Z M 615.765625 805.511719 L 603.597656 805.511719 L 603.597656 793.386719 L 615.765625 793.386719 Z M 615.929688 778.117188 L 603.433594 778.117188 L 603.433594 765.503906 L 615.929688 765.503906 Z M 616.308594 750.777344 L 603.21875 750.777344 L 603.21875 737.621094 L 616.308594 737.621094 Z M 616.417969 723.4375 L 602.890625 723.4375 L 602.890625 709.792969 L 616.417969 709.792969 Z M 629.453125 819.320312 L 617.496094 819.320312 L 617.496094 807.246094 L 629.453125 807.246094 Z M 630.046875 764.421875 L 617.011719 764.421875 L 617.011719 751.480469 L 630.046875 751.480469 Z M 630.15625 737.1875 L 616.742188 737.1875 L 616.742188 723.761719 L 630.15625 723.761719 Z M 643.195312 833.070312 L 631.507812 833.070312 L 631.507812 832.910156 L 631.292969 832.910156 L 631.292969 821.160156 L 643.195312 821.160156 Z M 643.355469 805.566406 L 631.128906 805.566406 L 631.128906 793.332031 L 643.355469 793.332031 Z M 643.625 778.171875 L 631.078125 778.171875 L 631.078125 778.117188 L 630.96875 778.117188 L 630.96875 765.339844 L 643.625 765.339844 Z M 643.898438 750.9375 L 630.589844 750.9375 L 630.589844 737.621094 L 643.898438 737.621094 Z M 657.257812 819.320312 L 645.035156 819.320312 L 645.035156 807.246094 L 657.257812 807.246094 Z M 657.476562 791.871094 L 644.816406 791.871094 L 644.816406 779.363281 L 657.476562 779.363281 Z M 657.636719 764.527344 L 644.4375 764.527344 L 644.4375 751.480469 L 657.636719 751.480469 Z M 671 833.179688 L 658.882812 833.179688 L 658.882812 820.945312 L 671 820.945312 Z M 671.214844 805.785156 L 658.71875 805.785156 L 658.71875 793.113281 L 671.214844 793.113281 Z M 671.433594 778.386719 L 658.449219 778.386719 L 658.449219 765.339844 L 671.433594 765.339844 Z M 671.59375 750.9375 L 658.179688 750.9375 L 658.179688 737.402344 L 671.59375 737.402344 Z M 685.011719 819.535156 L 672.40625 819.535156 L 672.40625 806.972656 L 685.011719 806.972656 Z M 685.226562 792.140625 L 672.191406 792.140625 L 672.191406 779.144531 L 685.226562 779.144531 Z M 685.390625 764.746094 L 672.027344 764.746094 L 672.027344 751.371094 L 685.390625 751.371094 Z M 698.75 833.339844 L 686.308594 833.339844 L 686.308594 833.289062 L 686.253906 833.289062 L 686.253906 820.78125 L 698.75 820.78125 Z M 698.96875 805.945312 L 686.039062 805.945312 L 686.039062 792.953125 L 698.96875 792.953125 Z M 699.074219 778.550781 L 685.820312 778.550781 L 685.820312 765.179688 L 699.074219 765.179688 Z M 712.761719 819.699219 L 699.832031 819.699219 L 699.832031 806.8125 L 712.761719 806.8125 Z M 712.976562 792.300781 L 699.617188 792.300781 L 699.617188 779.09375 L 712.976562 779.09375 Z M 726.5 833.503906 L 713.679688 833.503906 L 713.679688 820.617188 L 726.5 820.617188 Z M 726.664062 806.109375 L 713.464844 806.109375 L 713.464844 792.789062 L 726.664062 792.789062 Z M 740.511719 819.859375 L 727.257812 819.859375 L 727.257812 806.703125 L 740.511719 806.703125 Z M 740.511719 819.859375 " fill-opacity="1" fill-rule="nonzero"/></g></svg>