<svg xmlns="http://www.w3.org/2000/svg" xmlns:xlink="http://www.w3.org/1999/xlink" width="1080" zoomAndPan="magnify" viewBox="0 0 810 1012.49997" height="1350" preserveAspectRatio="xMidYMid meet" version="1.0"><defs><clipPath id="f5cb348d51"><path d="M 444 810 L 471 810 L 471 843.910156 L 444 843.910156 Z M 444 810 " clip-rule="nonzero"/></clipPath><clipPath id="d4ad218273"><path d="M 232 43.304688 L 238 43.304688 L 238 55 L 232 55 Z M 232 43.304688 " clip-rule="nonzero"/></clipPath><clipPath id="b323f75894"><path d="M 17.171875 392 L 36 392 L 36 411 L 17.171875 411 Z M 17.171875 392 " clip-rule="nonzero"/></clipPath></defs><path fill="#f177aa" d="M 724.847656 118.742188 C 724.863281 118.953125 724.882812 119.175781 724.90625 119.390625 C 729.054688 115.210938 733.25 111.003906 737.539062 106.746094 C 733.261719 110.8125 729.042969 114.800781 724.847656 118.742188 Z M 724.847656 118.742188 " fill-opacity="1" fill-rule="nonzero"/><path fill="#f177aa" d="M 653.773438 188.859375 C 653.773438 190.695312 654.175781 192.441406 654.898438 194.011719 C 659.78125 188.4375 664.832031 182.773438 670.039062 177.035156 C 668.828125 176.640625 667.542969 176.425781 666.210938 176.425781 C 659.320312 176.425781 653.773438 182.011719 653.773438 188.859375 Z M 653.773438 188.859375 " fill-opacity="1" fill-rule="nonzero"/><path fill="#f177aa" d="M 650.429688 543.578125 C 650.429688 552.285156 657.472656 559.332031 666.210938 559.332031 C 674.847656 559.332031 681.925781 552.285156 681.925781 543.578125 C 681.925781 543.359375 681.917969 543.144531 681.910156 542.925781 C 673.257812 538.898438 665.023438 534.832031 657.1875 530.734375 C 653.101562 533.566406 650.429688 538.261719 650.429688 543.578125 Z M 650.429688 543.578125 " fill-opacity="1" fill-rule="nonzero"/><path fill="#f177aa" d="M 582.660156 259.746094 C 582.660156 266.179688 587.464844 271.40625 593.707031 272.101562 C 597.644531 266.253906 601.785156 260.320312 606.207031 254.257812 C 604.191406 250.222656 600.011719 247.4375 595.125 247.4375 C 588.210938 247.4375 582.660156 252.957031 582.660156 259.746094 Z M 582.660156 259.746094 " fill-opacity="1" fill-rule="nonzero"/><path fill="#f177aa" d="M 580.921875 476.710938 C 582.351562 481.734375 586.371094 485.667969 591.480469 486.953125 C 587.722656 483.582031 584.21875 480.167969 580.921875 476.710938 Z M 580.921875 476.710938 " fill-opacity="1" fill-rule="nonzero"/><path fill="#f177aa" d="M 579.546875 543.578125 C 579.546875 552.15625 586.492188 559.097656 595.132812 559.097656 C 603.699219 559.097656 610.648438 552.148438 610.648438 543.578125 C 610.648438 535.070312 603.699219 527.992188 595.132812 527.992188 C 586.492188 527.992188 579.546875 535.074219 579.546875 543.578125 Z M 579.546875 543.578125 " fill-opacity="1" fill-rule="nonzero"/><path fill="#f177aa" d="M 511.453125 330.796875 C 511.453125 337.746094 517.066406 343.328125 524.050781 343.328125 C 531 343.328125 536.683594 337.746094 536.683594 330.796875 C 536.683594 323.71875 531 318.195312 524.050781 318.195312 C 517.066406 318.195312 511.453125 323.710938 511.453125 330.796875 Z M 511.453125 330.796875 " fill-opacity="1" fill-rule="nonzero"/><path fill="#f177aa" d="M 511.03125 401.710938 C 511.03125 408.886719 516.839844 414.699219 524.050781 414.699219 C 531.226562 414.699219 537.039062 408.886719 537.039062 401.710938 C 537.039062 394.566406 531.226562 388.753906 524.050781 388.753906 C 516.839844 388.753906 511.03125 394.566406 511.03125 401.710938 Z M 511.03125 401.710938 " fill-opacity="1" fill-rule="nonzero"/><path fill="#f177aa" d="M 509.859375 472.632812 C 509.859375 480.492188 516.191406 486.855469 524.050781 486.855469 C 531.875 486.855469 538.242188 480.492188 538.242188 472.632812 C 538.242188 464.808594 531.882812 458.410156 524.050781 458.410156 C 516.191406 458.40625 509.859375 464.804688 509.859375 472.632812 Z M 509.859375 472.632812 " fill-opacity="1" fill-rule="nonzero"/><path fill="#f177aa" d="M 509.046875 543.578125 C 509.046875 551.859375 515.769531 558.546875 524.046875 558.546875 C 532.292969 558.546875 538.984375 551.855469 538.984375 543.578125 C 538.984375 535.296875 532.292969 528.707031 524.046875 528.707031 C 515.769531 528.707031 509.046875 535.300781 509.046875 543.578125 Z M 509.046875 543.578125 " fill-opacity="1" fill-rule="nonzero"/><path fill="#f177aa" d="M 508.074219 614.5 C 508.074219 616.144531 508.324219 617.734375 508.789062 619.230469 C 515.28125 611.984375 522.6875 605.660156 531.050781 600.230469 C 528.941406 599.203125 526.558594 598.625 524.050781 598.625 C 515.25 598.621094 508.074219 605.765625 508.074219 614.5 Z M 508.074219 614.5 " fill-opacity="1" fill-rule="nonzero"/><path fill="#f177aa" d="M 440.570312 330.796875 C 440.570312 337.617188 446.121094 343.101562 453.003906 343.101562 C 459.855469 343.101562 465.410156 337.617188 465.410156 330.796875 C 465.410156 323.878906 459.855469 318.359375 453.003906 318.359375 C 446.121094 318.355469 440.570312 323.878906 440.570312 330.796875 Z M 440.570312 330.796875 " fill-opacity="1" fill-rule="nonzero"/><path fill="#f177aa" d="M 440.570312 401.710938 C 440.570312 408.53125 446.121094 414.179688 453.003906 414.179688 C 459.855469 414.179688 465.410156 408.527344 465.410156 401.710938 C 465.410156 394.859375 459.855469 389.34375 453.003906 389.34375 C 446.121094 389.34375 440.570312 394.859375 440.570312 401.710938 Z M 440.570312 401.710938 " fill-opacity="1" fill-rule="nonzero"/><path fill="#f177aa" d="M 439.398438 472.632812 C 439.398438 480.132812 445.472656 486.207031 453.003906 486.207031 C 460.472656 486.207031 466.546875 480.132812 466.546875 472.632812 C 466.546875 465.132812 460.472656 459.089844 453.003906 459.089844 C 445.46875 459.089844 439.398438 465.128906 439.398438 472.632812 Z M 439.398438 472.632812 " fill-opacity="1" fill-rule="nonzero"/><path fill="#f177aa" d="M 438.585938 543.578125 C 438.585938 551.5 445.015625 557.996094 453.003906 557.996094 C 460.925781 557.996094 467.355469 551.5 467.355469 543.578125 C 467.355469 535.589844 460.925781 529.257812 453.003906 529.257812 C 445.015625 529.257812 438.585938 535.597656 438.585938 543.578125 Z M 438.585938 543.578125 " fill-opacity="1" fill-rule="nonzero"/><path fill="#f177aa" d="M 437.613281 614.5 C 437.613281 623.007812 444.496094 629.925781 453.003906 629.925781 C 461.511719 629.925781 468.328125 623.007812 468.332031 614.5 C 468.332031 606.089844 461.511719 599.140625 453.003906 599.140625 C 444.496094 599.140625 437.613281 606.089844 437.613281 614.5 Z M 437.613281 614.5 " fill-opacity="1" fill-rule="nonzero"/><path fill="#f177aa" d="M 437.027344 685.519531 C 437.027344 694.285156 444.136719 701.429688 453.003906 701.429688 C 461.804688 701.429688 468.914062 694.285156 468.914062 685.519531 C 468.914062 676.6875 461.804688 669.542969 453.003906 669.542969 C 444.140625 669.542969 437.027344 676.6875 437.027344 685.519531 Z M 437.027344 685.519531 " fill-opacity="1" fill-rule="nonzero"/><path fill="#f177aa" d="M 436.671875 756.433594 C 436.671875 765.523438 443.914062 772.769531 453.003906 772.769531 C 461.996094 772.769531 469.335938 765.523438 469.335938 756.433594 C 469.335938 747.40625 461.996094 740.132812 453.003906 740.132812 C 443.914062 740.132812 436.671875 747.40625 436.671875 756.433594 Z M 436.671875 756.433594 " fill-opacity="1" fill-rule="nonzero"/><g clip-path="url(#f5cb348d51)"><path fill="#f177aa" d="M 457.296875 843.957031 C 464.664062 842.0625 470.089844 835.402344 470.089844 827.351562 C 470.089844 817.96875 462.453125 810.273438 453.011719 810.273438 C 449.730469 810.273438 446.660156 811.195312 444.050781 812.785156 C 448.503906 822.664062 452.917969 833.058594 457.296875 843.957031 Z M 457.296875 843.957031 " fill-opacity="1" fill-rule="nonzero"/></g><path fill="#f177aa" d="M 370.070312 330.796875 C 370.070312 337.292969 375.398438 342.582031 381.890625 342.582031 C 388.414062 342.582031 393.742188 337.292969 393.742188 330.796875 C 393.742188 324.171875 388.414062 318.941406 381.890625 318.941406 C 375.398438 318.941406 370.070312 324.171875 370.070312 330.796875 Z M 370.070312 330.796875 " fill-opacity="1" fill-rule="nonzero"/><path fill="#f177aa" d="M 369.679688 401.710938 C 369.679688 408.433594 375.203125 413.890625 381.890625 413.890625 C 388.640625 413.890625 394.160156 408.433594 394.160156 401.710938 C 394.160156 395.019531 388.640625 389.5 381.890625 389.5 C 375.203125 389.5 369.679688 395.023438 369.679688 401.710938 Z M 369.679688 401.710938 " fill-opacity="1" fill-rule="nonzero"/><path fill="#f177aa" d="M 368.941406 472.632812 C 368.941406 479.808594 374.71875 485.621094 381.894531 485.621094 C 389.101562 485.621094 394.917969 479.808594 394.917969 472.632812 C 394.917969 465.488281 389.105469 459.675781 381.894531 459.675781 C 374.714844 459.675781 368.941406 465.488281 368.941406 472.632812 Z M 368.941406 472.632812 " fill-opacity="1" fill-rule="nonzero"/><path fill="#f177aa" d="M 367.898438 543.578125 C 367.898438 551.273438 374.167969 557.542969 381.894531 557.542969 C 389.6875 557.542969 395.953125 551.273438 395.953125 543.578125 C 395.953125 535.882812 389.683594 529.613281 381.894531 529.613281 C 374.164062 529.621094 367.898438 535.882812 367.898438 543.578125 Z M 367.898438 543.578125 " fill-opacity="1" fill-rule="nonzero"/><path fill="#f177aa" d="M 367.117188 614.5 C 367.117188 622.683594 373.808594 629.273438 381.890625 629.273438 C 390.035156 629.273438 396.699219 622.679688 396.699219 614.5 C 396.699219 606.449219 390.042969 599.855469 381.890625 599.855469 C 373.808594 599.855469 367.117188 606.449219 367.117188 614.5 Z M 367.117188 614.5 " fill-opacity="1" fill-rule="nonzero"/><path fill="#f177aa" d="M 365.984375 685.519531 C 365.984375 694.285156 373.128906 701.429688 381.894531 701.429688 C 390.726562 701.429688 397.871094 694.285156 397.871094 685.519531 C 397.871094 676.6875 390.726562 669.542969 381.894531 669.542969 C 373.125 669.542969 365.984375 676.6875 365.984375 685.519531 Z M 365.984375 685.519531 " fill-opacity="1" fill-rule="nonzero"/><path fill="#f177aa" d="M 301.605469 189.339844 C 301.761719 192.507812 303.507812 195.257812 306.074219 196.800781 C 304.582031 194.359375 303.089844 191.871094 301.605469 189.339844 Z M 301.605469 189.339844 " fill-opacity="1" fill-rule="nonzero"/><path fill="#f177aa" d="M 300.777344 259.746094 C 300.777344 265.332031 305.324219 269.816406 310.847656 269.816406 C 316.402344 269.816406 320.914062 265.335938 320.914062 259.746094 C 320.914062 254.289062 316.402344 249.804688 310.847656 249.8125 C 305.324219 249.804688 300.777344 254.289062 300.777344 259.746094 Z M 300.777344 259.746094 " fill-opacity="1" fill-rule="nonzero"/><path fill="#f177aa" d="M 300 330.796875 C 300 336.703125 304.90625 341.542969 310.847656 341.542969 C 316.855469 341.542969 321.722656 336.703125 321.722656 330.796875 C 321.722656 324.757812 316.855469 319.917969 310.847656 319.917969 C 304.902344 319.914062 300 324.753906 300 330.796875 Z M 300 330.796875 " fill-opacity="1" fill-rule="nonzero"/><path fill="#f177aa" d="M 299.414062 401.710938 C 299.414062 407.980469 304.546875 413.144531 310.847656 413.144531 C 317.179688 413.144531 322.242188 407.980469 322.242188 401.710938 C 322.242188 395.449219 317.179688 390.316406 310.847656 390.316406 C 304.546875 390.316406 299.414062 395.441406 299.414062 401.710938 Z M 299.414062 401.710938 " fill-opacity="1" fill-rule="nonzero"/><path fill="#f177aa" d="M 298.441406 472.632812 C 298.441406 479.453125 303.996094 485.039062 310.847656 485.039062 C 317.730469 485.039062 323.28125 479.453125 323.28125 472.632812 C 323.28125 465.8125 317.730469 460.195312 310.847656 460.195312 C 303.996094 460.191406 298.441406 465.8125 298.441406 472.632812 Z M 298.441406 472.632812 " fill-opacity="1" fill-rule="nonzero"/><path fill="#f177aa" d="M 297.402344 543.578125 C 297.402344 550.949219 303.441406 556.988281 310.847656 556.988281 C 318.21875 556.988281 324.226562 550.949219 324.226562 543.578125 C 324.226562 536.175781 318.21875 530.230469 310.847656 530.230469 C 303.445312 530.238281 297.402344 536.175781 297.402344 543.578125 Z M 297.402344 543.578125 " fill-opacity="1" fill-rule="nonzero"/><path fill="#f177aa" d="M 296.070312 614.5 C 296.070312 622.683594 302.691406 629.273438 310.839844 629.273438 C 319.027344 629.273438 325.582031 622.679688 325.582031 614.5 C 325.582031 606.449219 319.027344 599.855469 310.839844 599.855469 C 302.691406 599.855469 296.070312 606.449219 296.070312 614.5 Z M 296.070312 614.5 " fill-opacity="1" fill-rule="nonzero"/><path fill="#f177aa" d="M 319.644531 671.738281 C 317.105469 670.117188 314.089844 669.179688 310.847656 669.179688 C 310.148438 669.179688 309.464844 669.222656 308.785156 669.308594 C 312.457031 669.921875 316.066406 670.757812 319.644531 671.738281 Z M 319.644531 671.738281 " fill-opacity="1" fill-rule="nonzero"/><g clip-path="url(#d4ad218273)"><path fill="#f177aa" d="M 232.300781 46.957031 C 232.300781 50.34375 234.5 53.222656 237.574219 54.164062 C 236.136719 50.601562 234.683594 46.976562 233.234375 43.335938 C 232.636719 44.414062 232.300781 45.648438 232.300781 46.957031 Z M 232.300781 46.957031 " fill-opacity="1" fill-rule="nonzero"/></g><path fill="#f177aa" d="M 247.761719 119.296875 C 247.84375 118.84375 247.886719 118.378906 247.886719 117.902344 C 247.886719 116.191406 247.347656 114.605469 246.429688 113.289062 C 246.882812 115.308594 247.328125 117.316406 247.761719 119.296875 Z M 247.761719 119.296875 " fill-opacity="1" fill-rule="nonzero"/><path fill="#f177aa" d="M 236.617188 340.113281 C 237.601562 340.449219 238.660156 340.632812 239.761719 340.632812 C 245.25 340.632812 249.664062 336.148438 249.664062 330.796875 C 249.664062 327.964844 248.472656 325.417969 246.558594 323.625 C 243.640625 329.515625 240.335938 335.027344 236.617188 340.113281 Z M 236.617188 340.113281 " fill-opacity="1" fill-rule="nonzero"/><path fill="#f177aa" d="M 229.148438 401.710938 C 229.148438 407.554688 233.890625 412.332031 239.769531 412.332031 C 245.648438 412.332031 250.417969 407.558594 250.417969 401.710938 C 250.417969 395.773438 245.648438 391.0625 239.769531 391.0625 C 233.890625 391.0625 229.148438 395.773438 229.148438 401.710938 Z M 229.148438 401.710938 " fill-opacity="1" fill-rule="nonzero"/><path fill="#f177aa" d="M 227.980469 472.632812 C 227.980469 479.128906 233.308594 484.519531 239.769531 484.519531 C 246.324219 484.519531 251.652344 479.128906 251.652344 472.632812 C 251.652344 466.171875 246.324219 460.941406 239.769531 460.941406 C 233.304688 460.941406 227.980469 466.167969 227.980469 472.632812 Z M 227.980469 472.632812 " fill-opacity="1" fill-rule="nonzero"/><path fill="#f177aa" d="M 226.8125 543.578125 C 226.8125 550.722656 232.625 556.566406 239.769531 556.566406 C 246.972656 556.566406 252.792969 550.722656 252.792969 543.578125 C 252.792969 536.402344 246.980469 530.59375 239.769531 530.59375 C 232.625 530.59375 226.8125 536.402344 226.8125 543.578125 Z M 226.8125 543.578125 " fill-opacity="1" fill-rule="nonzero"/><path fill="#f177aa" d="M 225.773438 614.5 C 225.773438 622.226562 232.035156 628.496094 239.769531 628.496094 C 247.53125 628.496094 253.792969 622.230469 253.792969 614.5 C 253.792969 606.902344 247.53125 600.632812 239.769531 600.632812 C 232.035156 600.632812 225.773438 606.902344 225.773438 614.5 Z M 225.773438 614.5 " fill-opacity="1" fill-rule="nonzero"/><path fill="#f177aa" d="M 250.09375 673.878906 C 247.339844 671.457031 243.726562 669.996094 239.769531 669.996094 C 231.976562 669.996094 225.503906 675.707031 224.382812 683.207031 C 233.199219 679.390625 241.761719 676.277344 250.09375 673.878906 Z M 250.09375 673.878906 " fill-opacity="1" fill-rule="nonzero"/><path fill="#f177aa" d="M 158.492188 401.710938 C 158.492188 407.328125 163.105469 411.878906 168.71875 411.878906 C 174.371094 411.878906 178.984375 407.332031 178.984375 401.710938 C 178.984375 396.027344 174.371094 391.417969 168.71875 391.417969 C 163.097656 391.417969 158.492188 396.027344 158.492188 401.710938 Z M 158.492188 401.710938 " fill-opacity="1" fill-rule="nonzero"/><path fill="#f177aa" d="M 157.484375 472.632812 C 157.484375 478.769531 162.519531 483.832031 168.71875 483.832031 C 174.953125 483.832031 179.957031 478.769531 179.957031 472.632812 C 179.957031 466.460938 174.960938 461.464844 168.71875 461.464844 C 162.519531 461.464844 157.484375 466.460938 157.484375 472.632812 Z M 157.484375 472.632812 " fill-opacity="1" fill-rule="nonzero"/><path fill="#f177aa" d="M 174.355469 554.355469 C 178.257812 552.332031 180.929688 548.277344 180.929688 543.585938 C 180.929688 536.863281 175.441406 531.34375 168.71875 531.34375 C 168.28125 531.34375 167.851562 531.367188 167.421875 531.410156 C 170.53125 538.84375 172.863281 546.476562 174.355469 554.355469 Z M 174.355469 554.355469 " fill-opacity="1" fill-rule="nonzero"/><path fill="#f177aa" d="M 167.378906 627.847656 C 167.820312 627.890625 168.269531 627.914062 168.71875 627.914062 C 176.121094 627.914062 182.097656 621.976562 182.097656 614.5 C 182.097656 609 178.777344 604.320312 174.011719 602.289062 C 172.507812 610.546875 170.296875 619.058594 167.378906 627.847656 Z M 167.378906 627.847656 " fill-opacity="1" fill-rule="nonzero"/><path fill="#f177aa" d="M 154.136719 685.519531 C 154.136719 693.574219 160.664062 700.101562 168.71875 700.101562 C 176.777344 700.101562 183.332031 693.574219 183.332031 685.519531 C 183.332031 677.46875 176.777344 670.972656 168.71875 670.972656 C 160.671875 670.96875 154.136719 677.464844 154.136719 685.519531 Z M 154.136719 685.519531 " fill-opacity="1" fill-rule="nonzero"/><path fill="#f177aa" d="M 87.769531 401.710938 C 87.769531 407.101562 92.214844 411.546875 97.609375 411.546875 C 103.128906 411.546875 107.453125 407.101562 107.453125 401.710938 C 107.453125 396.222656 103.136719 391.875 97.609375 391.875 C 92.222656 391.875 87.769531 396.222656 87.769531 401.710938 Z M 87.769531 401.710938 " fill-opacity="1" fill-rule="nonzero"/><path fill="#f177aa" d="M 85.371094 764.675781 C 87.695312 768.136719 91.4375 770.554688 95.757812 771.089844 C 101.410156 766.171875 106.988281 761.410156 112.476562 756.839844 C 112.480469 756.703125 112.480469 756.570312 112.480469 756.429688 C 112.480469 749.957031 108.285156 744.453125 102.445312 742.457031 C 97.046875 749.710938 91.359375 757.113281 85.371094 764.675781 Z M 85.371094 764.675781 " fill-opacity="1" fill-rule="nonzero"/><g clip-path="url(#b323f75894)"><path fill="#f177aa" d="M 17.308594 401.710938 C 17.308594 406.746094 21.46875 410.898438 26.628906 410.898438 C 31.726562 410.898438 35.855469 406.738281 35.855469 401.710938 C 35.855469 396.578125 31.730469 392.425781 26.628906 392.425781 C 21.46875 392.425781 17.308594 396.578125 17.308594 401.710938 Z M 17.308594 401.710938 " fill-opacity="1" fill-rule="nonzero"/></g><path fill="#f177aa" d="M 20.390625 840.515625 C 20.714844 840.667969 21.039062 840.808594 21.375 840.9375 C 27.761719 834.570312 34.082031 828.316406 40.289062 822.292969 C 39.960938 821.410156 39.542969 820.566406 39.054688 819.769531 C 33.046875 826.5625 26.796875 833.492188 20.390625 840.515625 Z M 20.390625 840.515625 " fill-opacity="1" fill-rule="nonzero"/></svg>